<svg width="17" height="25" viewBox="0 0 17 25" fill="none" xmlns="http://www.w3.org/2000/svg">
<path d="M7.56915 9.37551C7.41333 8.88013 6.75323 8.88013 6.59742 9.37551L5.68377 12.2833C5.48266 12.9225 5.14383 13.5032 4.69413 13.9795C4.24443 14.4559 3.69622 14.8146 3.09296 15.0274L0.350587 15.9956C-0.116862 16.1608 -0.116862 16.8604 0.350587 17.0255L3.09438 17.9937C3.69753 18.2069 4.24555 18.5659 4.69501 19.0425C5.14446 19.519 5.48299 20.1 5.68377 20.7393L6.59742 23.6456C6.63101 23.7541 6.69607 23.8485 6.78332 23.9154C6.87057 23.9825 6.97555 24.0185 7.08328 24.0185C7.19101 24.0185 7.29599 23.9825 7.38324 23.9154C7.47049 23.8485 7.53555 23.7541 7.56915 23.6456L8.4828 20.7378C8.68376 20.0988 9.02238 19.5181 9.47182 19.0418C9.92126 18.5655 10.4692 18.2066 11.0722 17.9937L13.816 17.0255C13.9183 16.9898 14.0075 16.9209 14.0707 16.8284C14.1339 16.736 14.1679 16.6247 14.1679 16.5105C14.1679 16.3964 14.1339 16.2852 14.0707 16.1926C14.0075 16.1002 13.9183 16.0312 13.816 15.9956L11.0722 15.0274C10.4692 14.8144 9.92126 14.4556 9.47182 13.9793C9.02238 13.503 8.68376 12.9223 8.4828 12.2833L7.56915 9.37551ZM13.0411 1.72108C13.0208 1.65608 12.9817 1.59951 12.9293 1.55941C12.8769 1.51932 12.814 1.49773 12.7493 1.49773C12.6847 1.49773 12.6217 1.51932 12.5694 1.55941C12.517 1.59951 12.4779 1.65608 12.4575 1.72108L11.9093 3.46544C11.6643 4.24303 11.0892 4.85251 10.3554 5.11221L8.70944 5.69316C8.6481 5.71469 8.59472 5.75616 8.55688 5.81167C8.51905 5.86718 8.49868 5.93392 8.49868 6.0024C8.49868 6.07088 8.51905 6.13762 8.55688 6.19314C8.59472 6.24865 8.6481 6.29011 8.70944 6.31164L10.3554 6.89259C10.7175 7.01995 11.0466 7.23514 11.3163 7.52104C11.5861 7.80693 11.7892 8.15562 11.9093 8.53937L12.4575 10.2837C12.4779 10.3487 12.517 10.4053 12.5694 10.4454C12.6217 10.4855 12.6847 10.507 12.7493 10.507C12.814 10.507 12.8769 10.4855 12.9293 10.4454C12.9817 10.4053 13.0208 10.3487 13.0411 10.2837L13.5893 8.53937C13.7095 8.15562 13.9126 7.80693 14.1823 7.52104C14.4521 7.23514 14.7812 7.01995 15.1433 6.89259L16.7892 6.31164C16.8506 6.29011 16.904 6.24865 16.9418 6.19314C16.9796 6.13762 17 6.07088 17 6.0024C17 5.93392 16.9796 5.86718 16.9418 5.81167C16.904 5.75616 16.8506 5.71469 16.7892 5.69316L15.1433 5.11221C14.7812 4.98486 14.4521 4.76966 14.1823 4.48376C13.9126 4.19787 13.7095 3.84917 13.5893 3.46544L13.0411 1.72108ZM3.0278 0.146368C3.01382 0.103624 2.98761 0.0665593 2.95284 0.0403276C2.91806 0.0140958 2.87643 0 2.83374 0C2.79105 0 2.74942 0.0140958 2.71464 0.0403276C2.67986 0.0665593 2.65366 0.103624 2.63968 0.146368L2.27422 1.30827C2.11132 1.82767 1.72744 2.23448 1.23733 2.40711L0.140944 2.79442C0.10061 2.80923 0.0656364 2.837 0.0408827 2.87386C0.0161311 2.91072 0.00282926 2.95484 0.00282926 3.00008C0.00282926 3.04531 0.0161311 3.08944 0.0408827 3.12629C0.0656364 3.16315 0.10061 3.19092 0.140944 3.20574L1.23733 3.59303C1.47865 3.6786 1.69792 3.8224 1.87785 4.01308C2.05779 4.20377 2.19347 4.43614 2.27422 4.69189L2.63968 5.85379C2.65366 5.89653 2.67986 5.93359 2.71464 5.95982C2.74942 5.98606 2.79105 6.00015 2.83374 6.00015C2.87643 6.00015 2.91806 5.98606 2.95284 5.95982C2.98761 5.93359 3.01382 5.89653 3.0278 5.85379L3.39326 4.69189C3.474 4.43614 3.60969 4.20377 3.78963 4.01308C3.96956 3.8224 4.18883 3.6786 4.43015 3.59303L5.52512 3.20574C5.56545 3.19092 5.60042 3.16315 5.62518 3.12629C5.64993 3.08944 5.66323 3.04531 5.66323 3.00008C5.66323 2.95484 5.64993 2.91072 5.62518 2.87386C5.60042 2.837 5.56545 2.80923 5.52512 2.79442L4.42873 2.40711C3.93862 2.23448 3.55474 1.82767 3.39185 1.30827L3.0278 0.146368Z" fill="white"/>
</svg>
