<svg width="115" height="114" viewBox="0 0 115 114" fill="none" xmlns="http://www.w3.org/2000/svg">
<path d="M76.7001 89.2151C64.3637 89.2151 54.3516 79.203 54.3516 66.8666C54.3516 54.5302 64.3637 44.5181 76.7001 44.5181C89.0364 44.5181 99.0485 54.5302 99.0485 66.8666C99.0485 79.203 89.0364 89.2151 76.7001 89.2151ZM76.7001 48.0939C66.3304 48.0939 57.9273 56.4969 57.9273 66.8666C57.9273 77.2363 66.3304 85.6393 76.7001 85.6393C87.0697 85.6393 95.4728 77.2363 95.4728 66.8666C95.4728 56.4969 87.0697 48.0939 76.7001 48.0939Z" fill="url(#paint0_linear_162_39)"/>
<path d="M89.2152 60.2514C88.6788 60.2514 88.1424 59.8939 87.7849 59.3575C85.8182 56.4969 82.9576 54.5302 79.5606 53.8151C76.1637 53.0999 72.5879 53.8151 69.5485 55.7817C68.6546 56.3181 67.5818 56.1393 67.0455 55.2454C66.5091 54.3514 66.6879 53.2787 67.5818 52.7423C71.3364 50.2393 75.8061 49.3454 80.2758 50.2393C84.5667 51.1333 88.3212 53.6363 90.8243 57.3908C91.3606 58.2848 91.1818 59.3575 90.2879 59.8939C89.9303 60.0727 89.5728 60.2514 89.2152 60.2514Z" fill="url(#paint1_linear_162_39)"/>
<path d="M103.161 113.53C102.624 113.53 102.088 113.53 101.73 113.351C99.9424 112.994 98.3333 111.921 97.2606 110.312L83.494 86.8909C82.9576 85.9969 83.3152 84.9242 84.2091 84.3878C85.103 83.8515 86.1758 84.209 86.7121 85.103L100.479 108.524C101.015 109.239 101.73 109.776 102.624 109.955C103.518 110.133 104.412 109.955 105.306 109.418C106.021 108.882 106.558 108.167 106.736 107.273C106.915 106.379 106.736 105.306 106.021 104.591L89.0364 83.4939C88.5 82.7787 88.5 81.5272 89.394 80.9909C90.1091 80.4545 91.3606 80.4545 91.897 81.3484L108.882 102.445C110.133 104.055 110.491 106.021 110.312 107.988C109.955 109.955 108.882 111.564 107.273 112.636C105.842 113.173 104.412 113.53 103.161 113.53Z" fill="url(#paint2_linear_162_39)"/>
<path d="M107.63 70.0848H97.2607C96.1879 70.0848 95.4728 69.3696 95.4728 68.2969C95.4728 67.2242 96.1879 66.509 97.2607 66.509H105.842V8.40297C105.842 5.89994 103.518 3.5757 101.015 3.5757H13.4091C10.7273 3.5757 8.58186 5.72115 8.58186 8.40297V66.3302H56.1394C57.2122 66.3302 57.9273 67.0454 57.9273 68.1181C57.9273 69.1909 57.2122 69.906 56.1394 69.906H6.79398C5.72126 69.906 5.0061 69.1909 5.0061 68.1181V8.40297C5.0061 3.75448 8.76065 -6.10352e-05 13.4091 -6.10352e-05H101.015C105.485 -6.10352e-05 109.418 3.93327 109.418 8.40297V68.2969C109.418 69.3696 108.703 70.0848 107.63 70.0848Z" fill="url(#paint3_linear_162_39)"/>
<path d="M62.5758 83.4939H9.65455C4.29091 83.4939 0 79.203 0 73.8393V68.1181C0 67.0454 0.715151 66.3303 1.78788 66.3303H56.1394C57.2121 66.3303 57.9273 67.0454 57.9273 68.1181C57.9273 69.1909 57.2121 69.906 56.1394 69.906H3.57576V73.8393C3.57576 77.0575 6.43636 79.9181 9.65455 79.9181H62.5758C63.6485 79.9181 64.3636 80.6333 64.3636 81.706C64.3636 82.7787 63.6485 83.4939 62.5758 83.4939Z" fill="url(#paint4_linear_162_39)"/>
<path d="M104.77 83.4939H91.003C89.9302 83.4939 89.2151 82.7787 89.2151 81.706C89.2151 80.6333 89.9302 79.9181 91.003 79.9181H104.77C107.988 79.9181 110.848 77.0575 110.848 73.8393V69.906H97.2605C96.1878 69.906 95.4727 69.1909 95.4727 68.1181C95.4727 67.0454 96.1878 66.3303 97.2605 66.3303H112.636C113.709 66.3303 114.424 67.0454 114.424 68.1181V73.8393C114.424 79.203 110.133 83.4939 104.77 83.4939Z" fill="url(#paint5_linear_162_39)"/>
<path d="M60.4303 9.11812H53.9939C52.9212 9.11812 52.2061 8.40296 52.2061 7.33024C52.2061 6.25751 52.9212 5.54236 53.9939 5.54236H60.4303C61.503 5.54236 62.2182 6.25751 62.2182 7.33024C62.2182 8.40296 61.503 9.11812 60.4303 9.11812Z" fill="url(#paint6_linear_162_39)"/>
<path d="M28.6061 39.3333H22.1697C21.097 39.3333 20.3818 38.6182 20.3818 37.5454V16.4485C20.3818 15.3757 21.097 14.6606 22.1697 14.6606H28.6061C29.6788 14.6606 30.394 15.3757 30.394 16.4485V37.5454C30.394 38.6182 29.6788 39.3333 28.6061 39.3333ZM23.9576 35.7576H26.8182V18.2363H23.9576V35.7576Z" fill="url(#paint7_linear_162_39)"/>
<path d="M56.4969 39.1545H50.0606C48.9879 39.1545 48.2727 38.4394 48.2727 37.3666V30.3939C48.2727 29.3212 48.9879 28.606 50.0606 28.606H56.4969C57.5697 28.606 58.2848 29.3212 58.2848 30.3939V37.3666C58.2848 38.4394 57.5697 39.1545 56.4969 39.1545ZM51.8485 35.5787H54.7091V32.1818H51.8485V35.5787Z" fill="url(#paint8_linear_162_39)"/>
<path d="M42.5515 39.1545H36.1151C35.0424 39.1545 34.3273 38.4393 34.3273 37.3666V23.9575C34.3273 22.8848 35.0424 22.1696 36.1151 22.1696H42.5515C43.6242 22.1696 44.3394 22.8848 44.3394 23.9575V37.3666C44.3394 38.4393 43.6242 39.1545 42.5515 39.1545ZM37.903 35.5787H40.7636V25.7454H37.903V35.5787Z" fill="url(#paint9_linear_162_39)"/>
<path d="M88.5 23.5999H74.3758C73.303 23.5999 72.5879 22.8848 72.5879 21.812C72.5879 20.7393 73.303 20.0242 74.3758 20.0242H88.5C89.5727 20.0242 90.2879 20.7393 90.2879 21.812C90.2879 22.8848 89.5727 23.5999 88.5 23.5999Z" fill="url(#paint10_linear_162_39)"/>
<path d="M94.5788 30.7515H69.5485C68.4758 30.7515 67.7606 30.0363 67.7606 28.9636C67.7606 27.8909 68.4758 27.1757 69.5485 27.1757H94.5788C95.6515 27.1757 96.3667 27.8909 96.3667 28.9636C96.3667 30.0363 95.6515 30.7515 94.5788 30.7515Z" fill="url(#paint11_linear_162_39)"/>
<path d="M43.4455 51.6696H21.6333C20.5606 51.6696 19.8455 50.9545 19.8455 49.8818C19.8455 48.809 20.5606 48.0939 21.6333 48.0939H43.4455C44.5182 48.0939 45.2333 48.809 45.2333 49.8818C45.2333 50.9545 44.5182 51.6696 43.4455 51.6696Z" fill="url(#paint12_linear_162_39)"/>
<path d="M43.4455 58.8212H21.6333C20.5606 58.8212 19.8455 58.106 19.8455 57.0333C19.8455 55.9606 20.5606 55.2454 21.6333 55.2454H43.4455C44.5182 55.2454 45.2333 55.9606 45.2333 57.0333C45.2333 58.106 44.5182 58.8212 43.4455 58.8212Z" fill="url(#paint13_linear_162_39)"/>
<path d="M94.5788 37.5454H69.5485C68.4758 37.5454 67.7606 36.8303 67.7606 35.7575C67.7606 34.6848 68.4758 33.9697 69.5485 33.9697H94.5788C95.6515 33.9697 96.3667 34.6848 96.3667 35.7575C96.3667 36.8303 95.6515 37.5454 94.5788 37.5454Z" fill="url(#paint14_linear_162_39)"/>
<defs>
<linearGradient id="paint0_linear_162_39" x1="76.7" y1="89.2151" x2="76.7" y2="44.5181" gradientUnits="userSpaceOnUse">
<stop stop-color="#007AFF"/>
<stop offset="0.5" stop-color="white"/>
<stop offset="0.99" stop-color="#FBB04C"/>
</linearGradient>
<linearGradient id="paint1_linear_162_39" x1="78.9349" y1="60.2514" x2="78.9349" y2="49.9012" gradientUnits="userSpaceOnUse">
<stop stop-color="#007AFF"/>
<stop offset="0.5" stop-color="white"/>
<stop offset="0.99" stop-color="#FBB04C"/>
</linearGradient>
<linearGradient id="paint2_linear_162_39" x1="96.7986" y1="113.53" x2="96.7986" y2="80.6248" gradientUnits="userSpaceOnUse">
<stop stop-color="#007AFF"/>
<stop offset="0.5" stop-color="white"/>
<stop offset="0.99" stop-color="#FBB04C"/>
</linearGradient>
<linearGradient id="paint3_linear_162_39" x1="57.2122" y1="70.0848" x2="57.2122" y2="-6.10352e-05" gradientUnits="userSpaceOnUse">
<stop stop-color="#007AFF"/>
<stop offset="0.5" stop-color="white"/>
<stop offset="0.99" stop-color="#FBB04C"/>
</linearGradient>
<linearGradient id="paint4_linear_162_39" x1="32.1818" y1="83.4939" x2="32.1818" y2="66.3303" gradientUnits="userSpaceOnUse">
<stop stop-color="#007AFF"/>
<stop offset="0.5" stop-color="white"/>
<stop offset="0.99" stop-color="#FBB04C"/>
</linearGradient>
<linearGradient id="paint5_linear_162_39" x1="101.82" y1="83.4939" x2="101.82" y2="66.3303" gradientUnits="userSpaceOnUse">
<stop stop-color="#007AFF"/>
<stop offset="0.5" stop-color="white"/>
<stop offset="0.99" stop-color="#FBB04C"/>
</linearGradient>
<linearGradient id="paint6_linear_162_39" x1="57.2121" y1="9.11812" x2="57.2121" y2="5.54236" gradientUnits="userSpaceOnUse">
<stop stop-color="#007AFF"/>
<stop offset="0.5" stop-color="white"/>
<stop offset="0.99" stop-color="#FBB04C"/>
</linearGradient>
<linearGradient id="paint7_linear_162_39" x1="25.3879" y1="39.3333" x2="25.3879" y2="14.6606" gradientUnits="userSpaceOnUse">
<stop stop-color="#007AFF"/>
<stop offset="0.5" stop-color="white"/>
<stop offset="0.99" stop-color="#FBB04C"/>
</linearGradient>
<linearGradient id="paint8_linear_162_39" x1="53.2788" y1="39.1545" x2="53.2788" y2="28.606" gradientUnits="userSpaceOnUse">
<stop stop-color="#007AFF"/>
<stop offset="0.5" stop-color="white"/>
<stop offset="0.99" stop-color="#FBB04C"/>
</linearGradient>
<linearGradient id="paint9_linear_162_39" x1="39.3333" y1="39.1545" x2="39.3333" y2="22.1696" gradientUnits="userSpaceOnUse">
<stop stop-color="#007AFF"/>
<stop offset="0.5" stop-color="white"/>
<stop offset="0.99" stop-color="#FBB04C"/>
</linearGradient>
<linearGradient id="paint10_linear_162_39" x1="81.4379" y1="23.5999" x2="81.4379" y2="20.0242" gradientUnits="userSpaceOnUse">
<stop stop-color="#007AFF"/>
<stop offset="0.5" stop-color="white"/>
<stop offset="0.99" stop-color="#FBB04C"/>
</linearGradient>
<linearGradient id="paint11_linear_162_39" x1="82.0637" y1="30.7515" x2="82.0637" y2="27.1757" gradientUnits="userSpaceOnUse">
<stop stop-color="#007AFF"/>
<stop offset="0.5" stop-color="white"/>
<stop offset="0.99" stop-color="#FBB04C"/>
</linearGradient>
<linearGradient id="paint12_linear_162_39" x1="32.5394" y1="51.6696" x2="32.5394" y2="48.0939" gradientUnits="userSpaceOnUse">
<stop stop-color="#007AFF"/>
<stop offset="0.5" stop-color="white"/>
<stop offset="0.99" stop-color="#FBB04C"/>
</linearGradient>
<linearGradient id="paint13_linear_162_39" x1="32.5394" y1="58.8212" x2="32.5394" y2="55.2454" gradientUnits="userSpaceOnUse">
<stop stop-color="#007AFF"/>
<stop offset="0.5" stop-color="white"/>
<stop offset="0.99" stop-color="#FBB04C"/>
</linearGradient>
<linearGradient id="paint14_linear_162_39" x1="82.0637" y1="37.5454" x2="82.0637" y2="33.9697" gradientUnits="userSpaceOnUse">
<stop stop-color="#007AFF"/>
<stop offset="0.5" stop-color="white"/>
<stop offset="0.99" stop-color="#FBB04C"/>
</linearGradient>
</defs>
</svg>
