<svg width="117" height="118" viewBox="0 0 117 118" fill="none" xmlns="http://www.w3.org/2000/svg">
<path d="M58.9951 41.8315H14.7488C13.7942 41.8315 13.0205 42.6054 13.0205 43.5598C13.0205 44.5144 13.7942 45.2881 14.7488 45.2881H58.9953C59.9499 45.2881 60.7236 44.5141 60.7236 43.5598C60.7236 42.6054 59.9499 41.8315 58.9951 41.8315Z" fill="url(#paint0_linear_217_7)"/>
<path d="M58.9951 53.9763H14.7488C13.7942 53.9763 13.0205 54.7502 13.0205 55.7045C13.0205 56.6589 13.7942 57.4328 14.7488 57.4328H58.9953C59.9499 57.4328 60.7236 56.6589 60.7236 55.7045C60.7236 54.7502 59.9499 53.9763 58.9951 53.9763Z" fill="url(#paint1_linear_217_7)"/>
<path d="M58.9951 66.1208H14.7488C13.7942 66.1208 13.0205 66.8947 13.0205 67.8491C13.0205 68.8034 13.7942 69.5774 14.7488 69.5774H58.9953C59.9499 69.5774 60.7236 68.8034 60.7236 67.8491C60.7236 66.8947 59.9499 66.1208 58.9951 66.1208Z" fill="url(#paint2_linear_217_7)"/>
<path d="M60.7236 79.9941C60.7236 79.0395 59.9499 78.2658 58.9953 78.2658H14.7488C13.7942 78.2658 13.0205 79.0397 13.0205 79.9941C13.0205 80.9485 13.7942 81.7224 14.7488 81.7224H58.9953C59.9499 81.7224 60.7236 80.9487 60.7236 79.9941Z" fill="url(#paint3_linear_217_7)"/>
<path d="M14.7488 96.0642C13.7942 96.0642 13.0205 96.8381 13.0205 97.7925C13.0205 98.7469 13.7942 99.5208 14.7488 99.5208H36.9286C37.8832 99.5208 38.6569 98.7469 38.6569 97.7925C38.6569 96.8381 37.8832 96.0642 36.9286 96.0642H14.7488Z" fill="url(#paint4_linear_217_7)"/>
<path d="M78.9125 21.3997V15.7915C78.9125 13.6551 77.1745 11.9169 75.0378 11.9169H39.5532C37.4168 11.9169 35.6788 13.6551 35.6788 15.7915V21.3997C35.6788 23.5362 37.4168 25.2741 39.5532 25.2741H42.5498C43.5044 25.2741 44.2781 24.5002 44.2781 23.5459C44.2781 22.5913 43.5044 21.8176 42.5498 21.8176H39.5532C39.323 21.8176 39.1356 21.6302 39.1356 21.4V15.7915C39.1356 15.5613 39.323 15.3737 39.5532 15.3737H75.0378C75.2683 15.3737 75.4557 15.561 75.4557 15.7915V21.3997C75.4557 21.63 75.2683 21.8173 75.0378 21.8173H50.63C49.6754 21.8173 48.9017 22.5913 48.9017 23.5456C48.9017 24.5002 49.6754 25.2739 50.63 25.2739H75.0381C77.1745 25.2744 78.9125 23.5362 78.9125 21.3997Z" fill="url(#paint5_linear_217_7)"/>
<path d="M91.8358 105.392C90.8812 105.392 90.1075 106.166 90.1075 107.121V109.448C90.1075 112.257 87.822 114.543 85.0123 114.543H8.55154C5.74236 114.543 3.45657 112.258 3.45657 109.448V26.3721C3.45657 25.998 3.50036 25.6311 3.57849 25.2741H19.3156C22.6011 25.2741 25.2741 22.6011 25.2741 19.3156V3.57872C25.6311 3.50059 25.9978 3.4568 26.3718 3.4568H85.0121C87.8215 3.4568 90.1073 5.74236 90.1073 8.55177V31.5622C90.1073 32.5168 90.881 33.2905 91.8356 33.2905C92.7902 33.2905 93.5639 32.5166 93.5639 31.5622V8.55154C93.5641 3.83638 89.7277 0 85.0123 0H26.3721C24.0879 0 21.9402 0.889609 20.325 2.50473L2.5045 20.3253C0.889379 21.9404 0 24.0879 0 26.3723V109.448C0 114.164 3.83615 118 8.55154 118H85.0123C89.7277 118 93.5641 114.164 93.5641 109.448V107.121C93.5641 106.166 92.7904 105.392 91.8358 105.392ZM21.8176 5.90092V19.3156C21.8176 20.6952 20.6952 21.8176 19.3156 21.8176H5.90092L21.8176 5.90092Z" fill="url(#paint6_linear_217_7)"/>
<path d="M115.508 61.7654C116.721 59.9845 117.035 57.7879 116.369 55.7386C115.704 53.6893 114.158 52.0967 112.13 51.3694C110.785 50.8868 109.887 49.6515 109.844 48.2226C109.779 46.0688 108.742 44.1071 106.998 42.8404C105.255 41.574 103.068 41.194 101.001 41.7973C99.6275 42.1979 98.1762 41.7259 97.3014 40.5954C95.9829 38.8911 93.9907 37.9137 91.8358 37.9137C89.6812 37.9137 87.6888 38.8911 86.37 40.5954C85.4952 41.7261 84.043 42.1974 82.671 41.7973C80.603 41.1935 78.4165 41.574 76.6731 42.8404C74.9298 44.1071 73.8929 46.0686 73.8275 48.2223C73.7844 49.6512 72.8869 50.8863 71.5412 51.3692C69.5131 52.0965 67.9678 53.6893 67.3022 55.7384C66.6364 57.7877 66.9503 59.9845 68.1635 61.7651C68.9682 62.9467 68.9682 64.4734 68.1635 65.6548C66.9503 67.4356 66.6364 69.6322 67.3022 71.6815C67.9678 73.7308 69.5131 75.3234 71.5412 76.051C72.8869 76.5338 73.7846 77.7689 73.8275 79.1978C73.8876 81.1789 74.7954 83.0404 76.3188 84.3045C77.3239 85.1388 78.5313 85.6608 79.795 85.8353V101.571C79.795 102.899 80.5152 104.126 81.6742 104.774C82.8319 105.421 84.255 105.392 85.3864 104.695L91.7254 100.793C91.8287 100.729 91.8902 100.758 91.9471 100.793L98.2857 104.695C99.4166 105.391 100.839 105.421 101.998 104.773C103.157 104.126 103.877 102.899 103.877 101.571V85.8348C105.141 85.6606 106.348 85.1386 107.353 84.3045C108.877 83.0404 109.785 81.1791 109.845 79.1976C109.888 77.7687 110.785 76.5333 112.131 76.0507C114.159 75.3234 115.705 73.7306 116.37 71.6813C117.036 69.632 116.722 67.4354 115.509 65.6545C114.703 64.4736 114.703 62.947 115.508 61.7654ZM100.097 101.751L93.7586 97.8492C92.5802 97.1239 91.0923 97.1227 89.9128 97.8492L83.574 101.751C83.4297 101.839 83.2516 101.738 83.2516 101.571V85.5071C84.4398 85.3695 85.618 85.853 86.37 86.8249C87.689 88.529 89.6812 89.5064 91.8361 89.5064C93.9907 89.5064 95.9829 88.529 97.3014 86.8249C98.0536 85.8528 99.232 85.3695 100.42 85.5071V101.571C100.42 101.739 100.24 101.839 100.097 101.751ZM112.652 67.6015C113.258 68.4916 113.415 69.5893 113.082 70.6135C112.749 71.6377 111.977 72.4338 110.963 72.7974C108.271 73.7631 106.475 76.2344 106.389 79.0934C106.358 80.0985 105.917 81.0044 105.145 81.6447C104.278 82.3644 103.103 82.6359 101.969 82.305C99.2235 81.5039 96.318 82.4479 94.5673 84.7097C93.9084 85.5613 92.9126 86.0499 91.8356 86.0499C90.7588 86.0499 89.763 85.5615 89.1036 84.7097C87.7671 82.9821 85.7572 82.0233 83.6593 82.0233C83.0098 82.0233 82.3516 82.1153 81.7026 82.3047C80.5571 82.6385 79.3861 82.3587 78.5258 81.6445C77.7544 81.0042 77.3126 80.0982 77.2824 79.0934C77.1958 76.2344 75.4004 73.7631 72.7078 72.7972C71.6942 72.4335 70.9222 71.6377 70.5891 70.6135C70.2563 69.5893 70.4131 68.4914 71.0197 67.6013C72.6299 65.2374 72.6299 62.183 71.0197 59.8191C70.4131 58.929 70.2563 57.831 70.5891 56.8066C70.9219 55.7824 71.6942 54.9864 72.7078 54.6229C75.4004 53.657 77.1958 51.1857 77.2824 48.3267C77.3149 47.2502 77.833 46.2698 78.7044 45.6369C79.5753 45.0038 80.6678 44.8139 81.7023 45.1154C84.4472 45.9167 87.3534 44.9725 89.1036 42.7107C89.7628 41.8589 90.7584 41.3703 91.8356 41.3703C92.9126 41.3703 93.9082 41.8586 94.5673 42.7104C96.3177 44.9725 99.2226 45.9165 101.969 45.1154C103.003 44.8135 104.095 45.0036 104.967 45.6367C105.838 46.2696 106.357 47.2502 106.389 48.3265C106.475 51.1855 108.271 53.657 110.963 54.6227C111.977 54.9861 112.749 55.7822 113.082 56.8064C113.415 57.8306 113.258 58.9288 112.652 59.8186C111.041 62.1827 111.041 65.2376 112.652 67.6015Z" fill="url(#paint7_linear_217_7)"/>
<path d="M91.8359 49.2242C83.8483 49.2242 77.35 55.7225 77.35 63.7101C77.35 71.6977 83.8483 78.1959 91.8359 78.1959C99.8232 78.1959 106.322 71.6977 106.322 63.7101C106.322 55.7225 99.8232 49.2242 91.8359 49.2242ZM91.8359 74.7394C85.7542 74.7394 80.8065 69.7917 80.8065 63.7103C80.8065 57.6289 85.7542 52.681 91.8359 52.681C97.9175 52.681 102.865 57.6287 102.865 63.7103C102.865 69.7919 97.9172 74.7394 91.8359 74.7394Z" fill="url(#paint8_linear_217_7)"/>
<defs>
<linearGradient id="paint0_linear_217_7" x1="36.8721" y1="45.2881" x2="36.8721" y2="41.8315" gradientUnits="userSpaceOnUse">
<stop stop-color="#007AFF"/>
<stop offset="0.5" stop-color="white"/>
<stop offset="0.99" stop-color="#FBB04C"/>
</linearGradient>
<linearGradient id="paint1_linear_217_7" x1="36.8721" y1="57.4328" x2="36.8721" y2="53.9763" gradientUnits="userSpaceOnUse">
<stop stop-color="#007AFF"/>
<stop offset="0.5" stop-color="white"/>
<stop offset="0.99" stop-color="#FBB04C"/>
</linearGradient>
<linearGradient id="paint2_linear_217_7" x1="36.8721" y1="69.5774" x2="36.8721" y2="66.1208" gradientUnits="userSpaceOnUse">
<stop stop-color="#007AFF"/>
<stop offset="0.5" stop-color="white"/>
<stop offset="0.99" stop-color="#FBB04C"/>
</linearGradient>
<linearGradient id="paint3_linear_217_7" x1="36.8721" y1="81.7224" x2="36.8721" y2="78.2658" gradientUnits="userSpaceOnUse">
<stop stop-color="#007AFF"/>
<stop offset="0.5" stop-color="white"/>
<stop offset="0.99" stop-color="#FBB04C"/>
</linearGradient>
<linearGradient id="paint4_linear_217_7" x1="25.8387" y1="99.5208" x2="25.8387" y2="96.0642" gradientUnits="userSpaceOnUse">
<stop stop-color="#007AFF"/>
<stop offset="0.5" stop-color="white"/>
<stop offset="0.99" stop-color="#FBB04C"/>
</linearGradient>
<linearGradient id="paint5_linear_217_7" x1="57.2956" y1="25.2741" x2="57.2956" y2="11.9169" gradientUnits="userSpaceOnUse">
<stop stop-color="#007AFF"/>
<stop offset="0.5" stop-color="white"/>
<stop offset="0.99" stop-color="#FBB04C"/>
</linearGradient>
<linearGradient id="paint6_linear_217_7" x1="46.782" y1="118" x2="46.782" y2="0" gradientUnits="userSpaceOnUse">
<stop stop-color="#007AFF"/>
<stop offset="0.5" stop-color="white"/>
<stop offset="0.99" stop-color="#FBB04C"/>
</linearGradient>
<linearGradient id="paint7_linear_217_7" x1="91.8362" y1="105.239" x2="91.8362" y2="37.9137" gradientUnits="userSpaceOnUse">
<stop stop-color="#007AFF"/>
<stop offset="0.5" stop-color="white"/>
<stop offset="0.99" stop-color="#FBB04C"/>
</linearGradient>
<linearGradient id="paint8_linear_217_7" x1="91.8357" y1="78.1959" x2="91.8357" y2="49.2242" gradientUnits="userSpaceOnUse">
<stop stop-color="#007AFF"/>
<stop offset="0.5" stop-color="white"/>
<stop offset="0.99" stop-color="#FBB04C"/>
</linearGradient>
</defs>
</svg>
