<svg width="464" height="397" viewBox="0 0 464 397" fill="none" xmlns="http://www.w3.org/2000/svg">
<g filter="url(#filter0_f_1_756)">
<path d="M410.088 117.907C406.906 117.929 403.734 118.201 400.617 118.72C391.351 120.403 382.63 123.664 375.031 128.289C371.771 130.205 367.079 134.307 362.547 133.304C358.423 132.382 360.324 125.641 360.386 123.163C360.46 120.034 360.51 116.894 360.559 113.755C360.641 107.576 360.678 101.397 360.67 95.2182C360.67 86.6253 360.67 78.0258 360.67 69.4195V56.4399C360.67 42.532 353.869 29.1937 341.762 19.3593C329.655 9.52491 313.235 4 296.113 4H68.5449C51.4254 4.00266 35.0082 9.52874 22.904 19.3628C10.7999 29.197 4 42.5337 4 56.4399V252.668C4.00423 263.67 8.27014 274.391 16.1933 283.313C24.1165 292.235 35.2951 298.906 48.1454 302.38V392.996C48.1454 392.996 130.41 395.002 168.221 305.068H296.113C313.23 305.074 329.65 299.556 341.76 289.73C353.871 279.904 360.682 266.573 360.695 252.668C360.695 239.629 359.954 226.589 359.621 213.619C359.472 207.932 359.411 202.245 359.509 196.567C359.608 191.311 358.793 184.791 360.436 179.706C360.555 179.236 360.811 178.795 361.183 178.422C361.554 178.048 362.031 177.753 362.572 177.559C368.178 175.854 372.352 184.34 375.365 186.657C378.817 189.307 382.702 191.558 386.91 193.347C396.885 197.707 408.396 199.162 419.529 197.47C430.663 195.778 440.748 191.041 448.107 184.047C455.466 177.053 459.656 168.223 459.98 159.026C460.304 149.829 456.742 140.819 449.887 133.495C445.181 128.581 439.14 124.617 432.236 121.913C425.332 119.209 417.752 117.838 410.088 117.907ZM149.624 44.5838C153.532 44.5838 157.352 45.525 160.601 47.2885C163.85 49.052 166.382 51.5585 167.878 54.4911C169.373 57.4236 169.764 60.6505 169.002 63.7637C168.24 66.8769 166.358 69.7366 163.595 71.981C160.832 74.2255 157.311 75.754 153.479 76.3733C149.646 76.9926 145.674 76.6747 142.063 75.46C138.453 74.2453 135.368 72.1883 133.197 69.549C131.026 66.9098 129.867 63.8069 129.867 60.6327C129.867 56.3763 131.948 52.2942 135.654 49.2844C139.359 46.2746 144.384 44.5838 149.624 44.5838ZM74.682 44.5838C78.5897 44.5838 82.4096 45.525 85.6586 47.2885C88.9077 49.052 91.4401 51.5585 92.9355 54.4911C94.4309 57.4236 94.8221 60.6505 94.0598 63.7637C93.2974 66.8769 91.4157 69.7366 88.6526 71.981C85.8895 74.2255 82.3691 75.754 78.5365 76.3733C74.7039 76.9926 70.7314 76.6747 67.1212 75.46C63.511 74.2453 60.4253 72.1883 58.2544 69.549C56.0834 66.9098 54.9246 63.8069 54.9246 60.6327C54.9246 56.3763 57.0062 52.2942 60.7115 49.2844C64.4167 46.2746 69.442 44.5838 74.682 44.5838ZM224.554 76.6817C220.646 76.6817 216.827 75.7404 213.577 73.9769C210.328 72.2135 207.796 69.7069 206.301 66.7744C204.805 63.8418 204.414 60.6149 205.176 57.5017C205.939 54.3885 207.82 51.5289 210.584 49.2844C213.347 47.0399 216.867 45.5114 220.7 44.8922C224.532 44.2729 228.505 44.5907 232.115 45.8054C235.725 47.0201 238.811 49.0772 240.982 51.7164C243.153 54.3556 244.311 57.4585 244.311 60.6327C244.308 64.8874 242.225 68.967 238.52 71.9746C234.815 74.9821 229.792 76.6716 224.554 76.6716V76.6817Z" fill="#007AFF" fill-opacity="0.04"/>
</g>
<defs>
<filter id="filter0_f_1_756" x="0" y="0" width="464" height="397" filterUnits="userSpaceOnUse" color-interpolation-filters="sRGB">
<feFlood flood-opacity="0" result="BackgroundImageFix"/>
<feBlend mode="normal" in="SourceGraphic" in2="BackgroundImageFix" result="shape"/>
<feGaussianBlur stdDeviation="2" result="effect1_foregroundBlur_1_756"/>
</filter>
</defs>
</svg>
