<svg width="371" height="397" viewBox="0 0 371 397" fill="none" xmlns="http://www.w3.org/2000/svg">
<g filter="url(#filter0_f_1_757)">
<path d="M301.314 4H69.6858C52.2637 4.00266 35.5563 9.52831 23.2382 19.3617C10.9201 29.195 4 42.5308 4 56.4359V119.533C13.8497 113.962 25.6315 110.982 37.7037 111.008C46.9201 111.009 56.0066 112.743 64.2265 116.07C72.4465 119.396 79.5687 124.222 85.0159 130.156C90.463 136.089 94.0818 142.964 95.5789 150.222C97.0759 157.48 96.4092 164.918 93.6327 171.932C90.8561 178.946 86.0479 185.339 79.5979 190.594C73.1478 195.848 65.2373 199.815 56.5076 202.174C47.778 204.533 38.4747 205.217 29.3521 204.17C20.2295 203.124 11.5441 200.377 4 196.151V252.649C4 266.553 10.9205 279.888 23.2389 289.72C35.5574 299.552 52.2649 305.075 69.6858 305.075H173.662C212.141 395.002 295.86 392.996 295.86 392.996V305.045H301.314C318.729 305.045 335.43 299.526 347.748 289.7C360.065 279.875 366.99 266.548 367 252.649V56.4359C367 42.5308 360.08 29.195 347.762 19.3617C335.444 9.52831 318.736 4.00266 301.314 4ZM122.24 252.198C118.263 252.198 114.375 251.257 111.069 249.493C107.762 247.73 105.185 245.224 103.663 242.291C102.142 239.359 101.743 236.132 102.519 233.019C103.295 229.906 105.21 227.047 108.022 224.803C110.834 222.558 114.417 221.03 118.317 220.411C122.217 219.792 126.26 220.109 129.934 221.324C133.608 222.539 136.748 224.595 138.958 227.234C141.167 229.874 142.346 232.976 142.346 236.15C142.346 240.406 140.228 244.488 136.457 247.498C132.686 250.507 127.572 252.198 122.24 252.198ZM198.506 252.198C194.53 252.198 190.642 251.257 187.336 249.493C184.029 247.73 181.452 245.224 179.93 242.291C178.409 239.359 178.01 236.132 178.786 233.019C179.562 229.906 181.477 227.047 184.289 224.803C187.101 222.558 190.684 221.03 194.584 220.411C198.484 219.792 202.527 220.109 206.201 221.324C209.875 222.539 213.015 224.595 215.225 227.234C217.434 229.874 218.613 232.976 218.613 236.15C218.613 240.406 216.495 244.488 212.724 247.498C208.953 250.507 203.839 252.198 198.506 252.198ZM274.773 252.198C270.797 252.198 266.909 251.257 263.603 249.493C260.296 247.73 257.719 245.224 256.197 242.291C254.676 239.359 254.277 236.132 255.053 233.019C255.829 229.906 257.744 227.047 260.556 224.803C263.368 222.558 266.951 221.03 270.851 220.411C274.751 219.792 278.794 220.109 282.468 221.324C286.142 222.539 289.282 224.595 291.491 227.234C293.701 229.874 294.88 232.976 294.88 236.15C294.88 238.261 294.358 240.351 293.345 242.301C292.331 244.25 290.846 246.021 288.973 247.512C287.101 249.002 284.878 250.184 282.433 250.988C279.988 251.792 277.368 252.203 274.723 252.198H274.773Z" fill="#007AFF" fill-opacity="0.04"/>
</g>
<defs>
<filter id="filter0_f_1_757" x="0" y="0" width="371" height="397" filterUnits="userSpaceOnUse" color-interpolation-filters="sRGB">
<feFlood flood-opacity="0" result="BackgroundImageFix"/>
<feBlend mode="normal" in="SourceGraphic" in2="BackgroundImageFix" result="shape"/>
<feGaussianBlur stdDeviation="2" result="effect1_foregroundBlur_1_757"/>
</filter>
</defs>
</svg>
