<svg width="117" height="111" viewBox="0 0 117 111" fill="none" xmlns="http://www.w3.org/2000/svg">
<path d="M115.05 57.4821H62.4V3.96426C62.4 3.70396 62.3496 3.44621 62.2516 3.20572C62.1536 2.96523 62.01 2.74672 61.8289 2.56266C61.6478 2.3786 61.4328 2.23259 61.1962 2.13298C60.9597 2.03337 60.7061 1.98211 60.45 1.98212H5.85C4.29903 1.98392 2.81209 2.611 1.71538 3.72578C0.618681 4.84056 0.00177411 6.35201 0 7.92854V77.3035C0.00177411 78.8801 0.618681 80.3915 1.71538 81.5063C2.81209 82.6211 4.29903 83.2482 5.85 83.25H46.8V99.1071H40.95C40.6939 99.1071 40.4403 99.1584 40.2038 99.258C39.9672 99.3576 39.7522 99.5036 39.5711 99.6877C39.39 99.8717 39.2464 100.09 39.1484 100.331C39.0504 100.571 39 100.829 39 101.089V109.018C39 109.278 39.0504 109.536 39.1484 109.776C39.2464 110.017 39.39 110.235 39.5711 110.419C39.7522 110.603 39.9672 110.749 40.2038 110.849C40.4403 110.949 40.6939 111 40.95 111H76.05C76.3061 111 76.5597 110.949 76.7962 110.849C77.0328 110.749 77.2478 110.603 77.4289 110.419C77.61 110.235 77.7536 110.017 77.8516 109.776C77.9496 109.536 78 109.278 78 109.018V101.089C78 100.829 77.9496 100.571 77.8516 100.331C77.7536 100.09 77.61 99.8717 77.4289 99.6877C77.2478 99.5036 77.0328 99.3576 76.7962 99.258C76.5597 99.1584 76.3061 99.1071 76.05 99.1071H70.2V83.25H111.15C112.701 83.2482 114.188 82.6211 115.285 81.5063C116.381 80.3915 116.998 78.8801 117 77.3035V59.4643C117 59.204 116.95 58.9462 116.852 58.7057C116.754 58.4652 116.61 58.2467 116.429 58.0627C116.248 57.8786 116.033 57.7326 115.796 57.633C115.56 57.5334 115.306 57.4821 115.05 57.4821ZM5.85 5.9464H58.5V13.875H3.9V7.92854C3.90059 7.40303 4.10623 6.89922 4.4718 6.52762C4.83736 6.15603 5.33301 5.947 5.85 5.9464ZM74.1 107.036H42.9V103.071H74.1V107.036ZM66.3 99.1071H50.7V83.25H56.55V89.1964C56.55 89.7221 56.7554 90.2263 57.1211 90.598C57.4868 90.9697 57.9828 91.1785 58.5 91.1785C59.0172 91.1785 59.5132 90.9697 59.8789 90.598C60.2446 90.2263 60.45 89.7221 60.45 89.1964V83.25H66.3V99.1071ZM113.1 77.3035C113.099 77.8291 112.894 78.3329 112.528 78.7045C112.163 79.0761 111.667 79.2851 111.15 79.2857H5.85C5.33301 79.2851 4.83736 79.0761 4.4718 78.7045C4.10623 78.3329 3.90059 77.8291 3.9 77.3035V17.8393H58.5V59.4643C58.5 59.7246 58.5504 59.9823 58.6484 60.2228C58.7464 60.4633 58.8901 60.6818 59.0711 60.8659C59.2522 61.0499 59.4672 61.1959 59.7038 61.2955C59.9403 61.3951 60.1939 61.4464 60.45 61.4464H113.1V77.3035Z" fill="url(#paint0_linear_1_796)"/>
<path d="M7.80001 11.8929C8.87696 11.8929 9.75001 11.0054 9.75001 9.91073C9.75001 8.81602 8.87696 7.92859 7.80001 7.92859C6.72305 7.92859 5.85001 8.81602 5.85001 9.91073C5.85001 11.0054 6.72305 11.8929 7.80001 11.8929Z" fill="url(#paint1_linear_1_796)"/>
<path d="M13.65 11.8929C14.727 11.8929 15.6 11.0054 15.6 9.91073C15.6 8.81602 14.727 7.92859 13.65 7.92859C12.573 7.92859 11.7 8.81602 11.7 9.91073C11.7 11.0054 12.573 11.8929 13.65 11.8929Z" fill="url(#paint2_linear_1_796)"/>
<path d="M19.5 11.8929C20.577 11.8929 21.45 11.0054 21.45 9.91073C21.45 8.81602 20.577 7.92859 19.5 7.92859C18.423 7.92859 17.55 8.81602 17.55 9.91073C17.55 11.0054 18.423 11.8929 19.5 11.8929Z" fill="url(#paint3_linear_1_796)"/>
<path d="M54.6 23.7857C54.6 23.5254 54.5496 23.2677 54.4516 23.0272C54.3536 22.7867 54.21 22.5682 54.0289 22.3841C53.8478 22.2001 53.6328 22.0541 53.3962 21.9545C53.1597 21.8548 52.9061 21.8036 52.65 21.8036H44.85C44.5939 21.8036 44.3404 21.8548 44.1038 21.9545C43.8672 22.0541 43.6522 22.2001 43.4711 22.3841C43.2901 22.5682 43.1464 22.7867 43.0484 23.0272C42.9504 23.2677 42.9 23.5254 42.9 23.7857V31.7143H37.05C36.7939 31.7143 36.5403 31.7656 36.3038 31.8652C36.0672 31.9648 35.8522 32.1108 35.6711 32.2948C35.4901 32.4789 35.3464 32.6974 35.2484 32.9379C35.1504 33.1784 35.1 33.4361 35.1 33.6964V39.6429H29.25C28.9939 39.6429 28.7403 39.6941 28.5038 39.7937C28.2672 39.8934 28.0522 40.0394 27.8711 40.2234C27.6901 40.4075 27.5464 40.626 27.4484 40.8665C27.3504 41.107 27.3 41.3647 27.3 41.625V49.5536H21.45C21.1939 49.5536 20.9404 49.6048 20.7038 49.7045C20.4672 49.8041 20.2522 49.9501 20.0711 50.1341C19.8901 50.3182 19.7464 50.5367 19.6484 50.7772C19.5504 51.0177 19.5 51.2754 19.5 51.5357V57.4822H13.65C13.3939 57.4822 13.1404 57.5334 12.9038 57.633C12.6672 57.7326 12.4522 57.8786 12.2711 58.0627C12.0901 58.2468 11.9464 58.4653 11.8484 58.7058C11.7504 58.9463 11.7 59.204 11.7 59.4643V65.4107H7.8V69.375H62.4V65.4107H54.6V23.7857ZM15.6 61.4464H19.5V65.4107H15.6V61.4464ZM23.4 53.5179H27.3V65.4107H23.4V53.5179ZM31.2 43.6072H35.1V65.4107H31.2V43.6072ZM39 35.6786H42.9V65.4107H39V35.6786ZM46.8 65.4107V25.7679H50.7V65.4107H46.8Z" fill="url(#paint4_linear_1_796)"/>
<path d="M70.2 65.4107H66.3V69.375H70.2V65.4107Z" fill="url(#paint5_linear_1_796)"/>
<path d="M79.95 45.5893C81.0225 45.5894 82.0744 45.2899 82.9908 44.7233C83.9071 44.1568 84.6526 43.3451 85.1458 42.377C85.6389 41.4089 85.8608 40.3216 85.787 39.2339C85.7132 38.1463 85.3468 37.1002 84.7276 36.21C84.1084 35.3198 83.2604 34.6198 82.2763 34.1864C81.2921 33.753 80.2097 33.603 79.1474 33.7528C78.085 33.9025 77.0836 34.3462 76.2526 35.0355C75.4215 35.7247 74.7929 36.6328 74.4354 37.6607H66.3V41.625H74.4354C74.8398 42.7835 75.5869 43.7864 76.5742 44.4961C77.5615 45.2059 78.7407 45.5877 79.95 45.5893ZM79.95 37.6607C80.3357 37.6607 80.7127 37.7769 81.0333 37.9947C81.354 38.2125 81.604 38.5221 81.7516 38.8843C81.8991 39.2465 81.9378 39.645 81.8625 40.0295C81.7873 40.414 81.6016 40.7672 81.3288 41.0444C81.0561 41.3216 80.7087 41.5104 80.3304 41.5869C79.9522 41.6634 79.5601 41.6241 79.2038 41.4741C78.8474 41.3241 78.5429 41.07 78.3286 40.7441C78.1144 40.4181 78 40.0349 78 39.6428C78.0006 39.1173 78.2062 38.6135 78.5718 38.2419C78.9374 37.8703 79.433 37.6613 79.95 37.6607Z" fill="url(#paint6_linear_1_796)"/>
<path d="M111.15 1.98212C109.941 1.98365 108.762 2.3655 107.774 3.07526C106.787 3.78503 106.04 4.78794 105.635 5.9464H101.4C101.119 5.94641 100.841 6.00827 100.585 6.12774C100.33 6.2472 100.102 6.42145 99.9194 6.63853L89.5898 18.8884L83.2788 12.4734C83.0978 12.2893 82.8828 12.1433 82.6462 12.0437C82.4096 11.9441 82.1561 11.8928 81.9 11.8928H66.3V15.8571H81.0923L88.3212 23.2051C88.5022 23.3892 88.7172 23.5352 88.9538 23.6348C89.1903 23.7344 89.4439 23.7857 89.7 23.7857H99.7854C100.245 25.1082 101.151 26.2228 102.341 26.9326C103.531 27.6424 104.93 27.9015 106.29 27.6643C107.65 27.4271 108.884 26.7088 109.774 25.6363C110.663 24.5639 111.151 23.2063 111.151 21.8035C111.151 20.4008 110.663 19.0432 109.774 17.9708C108.884 16.8983 107.65 16.18 106.29 15.9428C104.93 15.7055 103.531 15.9647 102.341 16.6745C101.151 17.3843 100.245 18.4989 99.7854 19.8214H93.9398L102.297 9.91069H105.635C105.993 10.9384 106.622 11.8464 107.453 12.5355C108.284 13.2246 109.285 13.6683 110.347 13.8179C111.409 13.9676 112.492 13.8176 113.476 13.3842C114.46 12.9509 115.308 12.2509 115.927 11.3608C116.546 10.4707 116.912 9.42471 116.986 8.33719C117.06 7.24967 116.838 6.16247 116.345 5.19442C115.852 4.22636 115.107 3.41471 114.19 2.84819C113.274 2.28166 112.222 1.98205 111.15 1.98212ZM105.3 19.8214C105.686 19.8214 106.063 19.9377 106.383 20.1555C106.704 20.3733 106.954 20.6828 107.102 21.045C107.249 21.4072 107.288 21.8057 107.213 22.1902C107.137 22.5747 106.952 22.9279 106.679 23.2051C106.406 23.4823 106.059 23.6711 105.68 23.7476C105.302 23.8241 104.91 23.7848 104.554 23.6348C104.197 23.4848 103.893 23.2307 103.679 22.9048C103.464 22.5788 103.35 22.1956 103.35 21.8035C103.351 21.278 103.556 20.7742 103.922 20.4026C104.287 20.031 104.783 19.822 105.3 19.8214ZM111.15 9.91069C110.764 9.91069 110.387 9.79444 110.067 9.57664C109.746 9.35884 109.496 9.04927 109.348 8.68708C109.201 8.32489 109.162 7.92635 109.237 7.54185C109.313 7.15735 109.498 6.80417 109.771 6.52696C110.044 6.24975 110.391 6.06097 110.77 5.98449C111.148 5.90801 111.54 5.94726 111.896 6.09728C112.253 6.24731 112.557 6.50136 112.771 6.82733C112.986 7.15329 113.1 7.53651 113.1 7.92854C113.099 8.45406 112.894 8.95787 112.528 9.32947C112.163 9.70106 111.667 9.91009 111.15 9.91069Z" fill="url(#paint7_linear_1_796)"/>
<path d="M87.75 11.8929C88.8225 11.893 89.8744 11.5935 90.7908 11.0269C91.7071 10.4604 92.4526 9.64872 92.9458 8.68059C93.4389 7.71246 93.6608 6.62515 93.587 5.53753C93.5132 4.4499 93.1468 3.40381 92.5276 2.51362C91.9084 1.62342 91.0604 0.923373 90.0763 0.490004C89.0921 0.056634 88.0097 -0.0933804 86.9473 0.0563588C85.885 0.206098 84.8836 0.649827 84.0526 1.33904C83.2215 2.02826 82.5929 2.93643 82.2354 3.96429H66.3V7.92857H82.2354C82.6398 9.08704 83.3869 10.09 84.3742 10.7997C85.3615 11.5095 86.5407 11.8913 87.75 11.8929ZM87.75 3.96429C88.1357 3.96429 88.5127 4.08054 88.8333 4.29834C89.154 4.51614 89.404 4.82571 89.5515 5.1879C89.6991 5.55009 89.7378 5.94863 89.6625 6.33313C89.5873 6.71763 89.4016 7.07081 89.1288 7.34802C88.8561 7.62523 88.5087 7.81401 88.1304 7.89049C87.7522 7.96697 87.3601 7.92772 87.0038 7.77769C86.6474 7.62767 86.3429 7.37361 86.1286 7.04765C85.9144 6.72169 85.8 6.33846 85.8 5.94643C85.8006 5.42092 86.0062 4.9171 86.3718 4.54551C86.7374 4.17391 87.233 3.96489 87.75 3.96429Z" fill="url(#paint8_linear_1_796)"/>
<path d="M84.4217 29.1521C83.8265 30.4184 83.691 31.8577 84.0389 33.2157C84.3868 34.5738 85.1959 35.7631 86.3231 36.5733C87.4503 37.3836 88.823 37.7628 90.1986 37.6437C91.5742 37.5247 92.8641 36.9152 93.8403 35.9229C94.8165 34.9306 95.4162 33.6194 95.5333 32.2211C95.6504 30.8228 95.2774 29.4275 94.4802 28.2817C93.6831 27.136 92.5131 26.3136 91.1771 25.9599C89.8411 25.6062 88.4251 25.744 87.1794 26.349L83.2788 22.3842C83.0978 22.2001 82.8828 22.0541 82.6462 21.9545C82.4096 21.8548 82.1561 21.8036 81.9 21.8036H66.3V25.7679H81.0923L84.4217 29.1521ZM91.65 31.7143C91.65 32.1063 91.5356 32.4896 91.3214 32.8155C91.1071 33.1415 90.8025 33.3955 90.4462 33.5456C90.0899 33.6956 89.6978 33.7348 89.3196 33.6584C88.9413 33.5819 88.5938 33.3931 88.3211 33.1159C88.0484 32.8387 87.8627 32.4855 87.7875 32.101C87.7122 31.7165 87.7508 31.318 87.8984 30.9558C88.046 30.5936 88.296 30.284 88.6166 30.0662C88.9373 29.8484 89.3143 29.7322 89.7 29.7322C90.217 29.7328 90.7126 29.9418 91.0782 30.3134C91.4438 30.685 91.6494 31.1888 91.65 31.7143Z" fill="url(#paint9_linear_1_796)"/>
<path d="M97.0727 50.7918L103.079 43.1606C104.356 43.6943 105.778 43.7518 107.092 43.3231C108.407 42.8944 109.531 42.0071 110.264 40.8179C110.998 39.6286 111.294 38.2141 111.101 36.8243C110.908 35.4344 110.238 34.1587 109.209 33.2226C108.18 32.2864 106.859 31.7501 105.478 31.7083C104.098 31.6666 102.748 32.1221 101.666 32.9945C100.584 33.8668 99.8405 35.0998 99.5664 36.4755C99.2924 37.8512 99.5055 39.2811 100.168 40.5126L94.6127 47.5714H66.3V51.5357H95.55C95.8424 51.5357 96.1311 51.4689 96.3947 51.3401C96.6583 51.2113 96.89 51.0239 97.0727 50.7918ZM105.3 35.6786C105.686 35.6786 106.063 35.7948 106.383 36.0126C106.704 36.2304 106.954 36.54 107.102 36.9022C107.249 37.2644 107.288 37.6629 107.213 38.0474C107.137 38.4319 106.952 38.7851 106.679 39.0623C106.406 39.3395 106.059 39.5283 105.68 39.6048C105.302 39.6813 104.91 39.642 104.554 39.492C104.197 39.3419 103.893 39.0879 103.679 38.7619C103.464 38.436 103.35 38.0527 103.35 37.6607C103.351 37.1352 103.556 36.6314 103.922 36.2598C104.287 35.8882 104.783 35.6792 105.3 35.6786Z" fill="url(#paint10_linear_1_796)"/>
<defs>
<linearGradient id="paint0_linear_1_796" x1="58.5" y1="111" x2="58.5" y2="1.98212" gradientUnits="userSpaceOnUse">
<stop stop-color="#007AFF"/>
<stop offset="0.5" stop-color="white"/>
<stop offset="0.99" stop-color="#FBB04C"/>
</linearGradient>
<linearGradient id="paint1_linear_1_796" x1="7.80001" y1="11.8929" x2="7.80001" y2="7.92859" gradientUnits="userSpaceOnUse">
<stop stop-color="#007AFF"/>
<stop offset="0.5" stop-color="white"/>
<stop offset="0.99" stop-color="#FBB04C"/>
</linearGradient>
<linearGradient id="paint2_linear_1_796" x1="13.65" y1="11.8929" x2="13.65" y2="7.92859" gradientUnits="userSpaceOnUse">
<stop stop-color="#007AFF"/>
<stop offset="0.5" stop-color="white"/>
<stop offset="0.99" stop-color="#FBB04C"/>
</linearGradient>
<linearGradient id="paint3_linear_1_796" x1="19.5" y1="11.8929" x2="19.5" y2="7.92859" gradientUnits="userSpaceOnUse">
<stop stop-color="#007AFF"/>
<stop offset="0.5" stop-color="white"/>
<stop offset="0.99" stop-color="#FBB04C"/>
</linearGradient>
<linearGradient id="paint4_linear_1_796" x1="35.1" y1="69.375" x2="35.1" y2="21.8036" gradientUnits="userSpaceOnUse">
<stop stop-color="#007AFF"/>
<stop offset="0.5" stop-color="white"/>
<stop offset="0.99" stop-color="#FBB04C"/>
</linearGradient>
<linearGradient id="paint5_linear_1_796" x1="68.25" y1="69.375" x2="68.25" y2="65.4107" gradientUnits="userSpaceOnUse">
<stop stop-color="#007AFF"/>
<stop offset="0.5" stop-color="white"/>
<stop offset="0.99" stop-color="#FBB04C"/>
</linearGradient>
<linearGradient id="paint6_linear_1_796" x1="76.0504" y1="45.5893" x2="76.0504" y2="33.6964" gradientUnits="userSpaceOnUse">
<stop stop-color="#007AFF"/>
<stop offset="0.5" stop-color="white"/>
<stop offset="0.99" stop-color="#FBB04C"/>
</linearGradient>
<linearGradient id="paint7_linear_1_796" x1="91.65" y1="27.75" x2="91.65" y2="1.98212" gradientUnits="userSpaceOnUse">
<stop stop-color="#007AFF"/>
<stop offset="0.5" stop-color="white"/>
<stop offset="0.99" stop-color="#FBB04C"/>
</linearGradient>
<linearGradient id="paint8_linear_1_796" x1="79.9504" y1="11.8929" x2="79.9504" y2="0" gradientUnits="userSpaceOnUse">
<stop stop-color="#007AFF"/>
<stop offset="0.5" stop-color="white"/>
<stop offset="0.99" stop-color="#FBB04C"/>
</linearGradient>
<linearGradient id="paint9_linear_1_796" x1="80.9272" y1="37.6652" x2="80.9272" y2="21.8036" gradientUnits="userSpaceOnUse">
<stop stop-color="#007AFF"/>
<stop offset="0.5" stop-color="white"/>
<stop offset="0.99" stop-color="#FBB04C"/>
</linearGradient>
<linearGradient id="paint10_linear_1_796" x1="88.7294" y1="51.5357" x2="88.7294" y2="31.7057" gradientUnits="userSpaceOnUse">
<stop stop-color="#007AFF"/>
<stop offset="0.5" stop-color="white"/>
<stop offset="0.99" stop-color="#FBB04C"/>
</linearGradient>
</defs>
</svg>
