<svg width="1250" height="629" viewBox="0 0 1250 629" fill="none" xmlns="http://www.w3.org/2000/svg">
<g opacity="0.67" filter="url(#filter0_f_1_148)">
<path d="M566.272 -124.683C367.731 -60.8886 206.087 42.7974 104.466 155.578C1.57801 269.765 -31.4937 382.372 -2.78744 471.712C25.9189 561.051 118.394 633.317 268.538 666.201C416.833 698.679 608.619 688.802 807.16 625.007C1005.7 561.213 1167.34 457.527 1268.96 344.747C1371.85 230.56 1404.92 117.953 1376.22 28.6138C1347.51 -60.7256 1255.04 -132.993 1104.89 -165.876C956.598 -198.354 764.812 -188.477 566.272 -124.683Z" stroke="url(#paint0_linear_1_148)" stroke-width="130"/>
</g>
<defs>
<filter id="filter0_f_1_148" x="-234.9" y="-406.051" width="1843.23" height="1312.43" filterUnits="userSpaceOnUse" color-interpolation-filters="sRGB">
<feFlood flood-opacity="0" result="BackgroundImageFix"/>
<feBlend mode="normal" in="SourceGraphic" in2="BackgroundImageFix" result="shape"/>
<feGaussianBlur stdDeviation="78.55" result="effect1_foregroundBlur_1_148"/>
</filter>
<linearGradient id="paint0_linear_1_148" x1="208.842" y1="233.468" x2="549.172" y2="781.698" gradientUnits="userSpaceOnUse">
<stop offset="0.144545" stop-color="#FBB04C"/>
<stop offset="0.489545" stop-color="#007AFF"/>
</linearGradient>
</defs>
</svg>
