<svg width="51" height="51" viewBox="0 0 51 51" fill="none" xmlns="http://www.w3.org/2000/svg">
<rect width="50" height="50" rx="25" transform="matrix(1 0 0 -1 0.5 50.5)" fill="url(#paint0_linear_1_710)"/>
<path d="M37.3096 21.1608C37.6336 21.0227 37.8499 20.6549 37.8495 20.2426C37.8491 19.8303 37.6321 19.4631 37.3078 19.3259L24.2642 13.8085C24.0895 13.7346 23.8988 13.7346 23.724 13.8085L10.6804 19.3259C10.3561 19.463 10.1391 19.8303 10.1387 20.2426C10.1382 20.6549 10.3546 21.0227 10.6786 21.1608L15.8456 23.3631V29.712C15.8456 30.7599 16.7575 31.6461 18.5557 32.3458C20.1232 32.9557 22.0546 33.2917 23.9941 33.2917C25.9337 33.2917 27.8651 32.9557 29.4326 32.3458C31.2308 31.6461 32.1427 30.76 32.1427 29.712V23.3631L34.276 22.4538V31.2514C33.3273 31.6536 32.6456 32.7391 32.6456 34.0125C32.6456 35.2858 33.3273 36.3714 34.276 36.7736V40.4906C34.276 41.0281 34.6395 41.4639 35.0878 41.4639C35.5362 41.4639 35.8997 41.0281 35.8997 40.4906V36.7736C36.8484 36.3714 37.5301 35.2859 37.5301 34.0125C37.5301 32.7391 36.8484 31.6536 35.8997 31.2514V21.7617L37.3096 21.1608ZM35.0878 34.9938C34.6364 34.9938 34.2692 34.5536 34.2692 34.0124C34.2692 33.4713 34.6364 33.031 35.0878 33.031C35.5392 33.031 35.9064 33.4713 35.9064 34.0124C35.9064 34.5536 35.5392 34.9938 35.0878 34.9938ZM23.9941 15.7584L34.6059 20.2473L23.9941 24.7701L13.3823 20.2472L23.9941 15.7584ZM30.5189 29.5653C30.3633 29.7534 29.8063 30.2038 28.5491 30.6338C27.2078 31.0924 25.5902 31.3451 23.9941 31.3451C22.398 31.3451 20.7804 31.0924 19.4391 30.6338C18.1819 30.2038 17.6249 29.7534 17.4693 29.5653V24.0551L23.7221 26.7201C23.8101 26.7576 23.9021 26.7764 23.994 26.7764C24.086 26.7764 24.178 26.7576 24.266 26.7201L30.5188 24.0551V29.5653H30.5189Z" fill="white"/>
<defs>
<linearGradient id="paint0_linear_1_710" x1="25" y1="0" x2="25" y2="122.283" gradientUnits="userSpaceOnUse">
<stop stop-color="#007AFF"/>
<stop offset="1" stop-color="white" stop-opacity="0.5"/>
</linearGradient>
</defs>
</svg>
