<svg width="119" height="122" viewBox="0 0 119 122" fill="none" xmlns="http://www.w3.org/2000/svg">
<g id="Group">
<path id="Vector" d="M59.0709 79.6143C60.1909 79.6143 61.099 78.7062 61.099 77.5861V61.0364L82.8576 49.19C84.267 48.4226 84.2667 46.3947 82.8576 45.6273L60.0406 33.2046C59.4359 32.8753 58.7055 32.8753 58.1011 33.2046C33.6957 46.4943 35.1563 45.66 34.8658 45.9325C34.4345 46.3397 34.2231 46.8901 34.2256 47.4199V74.5357C34.2256 75.2785 34.6318 75.9618 35.2841 76.317L58.1011 88.7396C58.705 89.0687 59.4362 89.0689 60.0406 88.7396L82.8576 76.317C83.51 75.9618 83.9161 75.2785 83.9161 74.5357V59.8314C83.9161 58.7113 83.008 57.8032 81.8879 57.8032C80.7678 57.8032 79.8597 58.7113 79.8597 59.8314V73.3307L59.0709 84.6492L38.282 73.3307V48.6138L59.0709 37.2952L77.6465 47.4088L59.0709 57.5223L47.3234 51.1262C46.3399 50.591 45.1078 50.9538 44.5721 51.9377C44.0367 52.9214 44.4 54.153 45.3837 54.6889L57.0427 61.0364V77.5861C57.0427 78.7062 57.9508 79.6143 59.0709 79.6143Z" fill="url(#paint0_linear_218_34)"/>
<path id="Vector_2" d="M116.113 39.8031C117.234 39.8031 118.142 38.895 118.142 37.7749V32.1974C118.142 28.8425 115.412 26.1129 112.057 26.1129H106.48C104.438 26.1129 102.629 27.1247 101.525 28.6722L67.9441 11.2032V6.08455C67.9441 2.72968 65.2147 0 61.8596 0H56.2821C55.162 0 54.2539 0.908119 54.2539 2.02818C54.2539 3.14825 55.162 4.05637 56.2821 4.05637H61.8596C62.9779 4.05637 63.8878 4.96626 63.8878 6.08455V11.6621C63.8878 12.7803 62.9779 13.6902 61.8596 13.6902H56.2821C55.3101 13.6902 54.4773 13.0037 54.2924 12.0548C54.081 10.8275 52.8116 10.06 51.6071 10.4926C51.3855 10.5727 53.5788 9.44423 16.6167 28.6722C15.5123 27.1247 13.7037 26.1129 11.6621 26.1129H6.08455C2.72943 26.1129 0 28.8425 0 32.1974V34.2745C0 35.3946 0.908119 36.3027 2.02818 36.3027C3.14825 36.3027 4.05637 35.3946 4.05637 34.2745V32.1974C4.05637 31.0791 4.96626 30.1692 6.08455 30.1692H11.6621C12.7803 30.1692 13.6902 31.0791 13.6902 32.1974V37.7749C13.6902 38.8932 12.7803 39.8031 11.6621 39.8031H8.8733C7.75324 39.8031 6.84512 40.7112 6.84512 41.8313V79.8597C6.84512 80.9798 7.75324 81.8879 8.8733 81.8879H11.6621C12.7803 81.8879 13.6902 82.7978 13.6902 83.9161V89.4936C13.6902 90.6119 12.7803 91.5218 11.6621 91.5218H6.08455C4.96626 91.5218 4.05637 90.6119 4.05637 89.4936V87.4654C4.05637 86.3453 3.14825 85.4372 2.02818 85.4372C0.908119 85.4372 0 86.3453 0 87.4654V89.4936C0 92.8484 2.72943 95.5781 6.08455 95.5781H11.6621C13.7037 95.5781 15.5123 94.5663 16.6167 93.0188L50.1975 110.488V115.606C50.1975 118.961 52.927 121.691 56.2821 121.691H61.8596C63.4849 121.691 65.0129 121.058 66.1621 119.909C66.9541 119.117 66.9541 117.833 66.1619 117.041C65.3699 116.248 64.0858 116.249 63.2938 117.041C62.9107 117.424 62.4014 117.635 61.8598 117.635H56.2823C55.1641 117.635 54.2542 116.725 54.2542 115.607V110.029C54.2542 108.911 55.1641 108.001 56.2823 108.001H61.8598C62.8194 108.001 63.6307 108.687 63.8467 109.618C63.853 109.646 63.8847 109.913 64.0488 110.228C64.5665 111.224 65.7925 111.608 66.784 111.091L101.525 93.0191C102.629 94.5663 104.438 95.5781 106.48 95.5781H112.057C115.412 95.5781 118.142 92.8484 118.142 89.4936V86.7048C118.142 85.5848 117.234 84.6767 116.113 84.6767C114.993 84.6767 114.085 85.5848 114.085 86.7048V89.4936C114.085 90.6119 113.175 91.5218 112.057 91.5218H106.48C105.361 91.5218 104.451 90.6119 104.451 89.4936V83.9161C104.451 82.7978 105.361 81.8879 106.48 81.8879H109.268C110.388 81.8879 111.297 80.9798 111.297 79.8597V41.8313C111.297 40.7112 110.388 39.8031 109.268 39.8031H106.48C105.361 39.8031 104.451 38.8932 104.451 37.7749V32.1974C104.451 31.0791 105.361 30.1692 106.48 30.1692H112.057C113.175 30.1692 114.085 31.0791 114.085 32.1974V37.7749C114.085 38.895 114.993 39.8031 116.113 39.8031ZM106.48 43.8595H107.24V77.8315H106.48C104.429 77.8315 102.613 78.8522 101.511 80.4114L91.7023 75.2742C90.71 74.7548 89.4842 75.1376 88.9647 76.1299C88.4453 77.1222 88.8281 78.348 89.8204 78.8677L100.395 84.4061V89.0347L66.8127 106.504C65.6959 104.943 63.8695 103.944 61.8596 103.944H61.099V96.0852C61.099 94.9651 60.1909 94.057 59.0708 94.057C57.9508 94.057 57.0427 94.9651 57.0427 96.0852V103.944H56.2821C54.2405 103.944 52.4318 104.956 51.3277 106.503L17.7466 89.0345V84.4059L28.3213 78.8674C29.3136 78.3477 29.6967 77.1219 29.1769 76.1296C28.6572 75.1373 27.4314 74.7545 26.4394 75.274L16.6311 80.4114C15.5283 78.8522 13.7128 77.8315 11.6621 77.8315H10.9015V43.8595H11.6621C13.7128 43.8595 15.5283 42.8388 16.6311 41.2796L26.4394 46.4167C27.4421 46.9418 28.6628 46.543 29.1769 45.5611C29.6967 44.5688 29.3136 43.343 28.3213 42.8233L17.7466 37.2849V32.6563L51.3224 15.1901C52.4349 16.7523 54.2585 17.7466 56.2821 17.7466H57.0427V25.6058C57.0427 26.7259 57.9508 27.634 59.0708 27.634C60.1909 27.634 61.099 26.7259 61.099 25.6058V17.7466H61.8596C63.9012 17.7466 65.7098 16.7348 66.8139 15.1875L100.395 32.6565V37.2851L89.8204 42.8236C88.8281 43.3433 88.445 44.5691 88.9647 45.5614C89.4822 46.5493 90.7054 46.939 91.7023 46.417L101.511 41.2799C102.613 42.8388 104.429 43.8595 106.48 43.8595Z" fill="url(#paint1_linear_218_34)"/>
</g>
<defs>
<linearGradient id="paint0_linear_218_34" x1="59.0708" y1="88.9865" x2="59.0708" y2="32.9576" gradientUnits="userSpaceOnUse">
<stop stop-color="#007AFF"/>
<stop offset="0.5" stop-color="white"/>
<stop offset="0.99" stop-color="#FBB04C"/>
</linearGradient>
<linearGradient id="paint1_linear_218_34" x1="59.0708" y1="121.691" x2="59.0708" y2="0" gradientUnits="userSpaceOnUse">
<stop stop-color="#007AFF"/>
<stop offset="0.5" stop-color="white"/>
<stop offset="0.99" stop-color="#FBB04C"/>
</linearGradient>
</defs>
</svg>
