<svg width="129" height="132" viewBox="0 0 129 132" fill="none" xmlns="http://www.w3.org/2000/svg">
<path id="Vector" fill-rule="evenodd" clip-rule="evenodd" d="M109.784 74.1713C106.944 71.3314 103.021 69.5746 98.6866 69.5746C94.3526 69.5746 90.4288 71.3311 87.5889 74.1711C84.7489 77.011 82.9924 80.9348 82.9924 85.2691C82.9924 89.6033 84.7489 93.5269 87.5889 96.3668C90.4288 99.2067 94.3526 100.963 98.6866 100.963C103.021 100.963 106.944 99.2067 109.784 96.3668C112.624 93.5269 114.381 89.603 114.381 85.2691C114.381 80.9351 112.624 77.0112 109.784 74.1713ZM98.6866 66.0811C103.985 66.0811 108.782 68.229 112.254 71.7014C115.727 75.1738 117.875 79.9707 117.875 85.2691C117.875 90.5675 115.727 95.3644 112.254 98.8368C108.782 102.309 103.985 104.457 98.6866 104.457C93.3882 104.457 88.5913 102.309 85.1189 98.8368C81.6465 95.3644 79.4989 90.5675 79.4989 85.2691C79.4989 79.9707 81.6468 75.1735 85.1189 71.7014C88.5913 68.229 93.3882 66.0814 98.6866 66.0814V66.0811ZM116.128 108.034C115.825 108.421 115.53 108.923 115.236 109.426C114.458 110.755 113.677 112.088 112.176 112.824C110.675 113.56 109.151 113.37 107.617 113.179C107.271 113.136 106.925 113.092 106.595 113.065L113.55 125.263L115.36 119.906C115.644 119.057 116.518 118.573 117.372 118.755L117.373 118.753L122.907 119.925L116.127 108.034L116.128 108.034ZM99.6275 83.3441C99.8856 83.9784 100.475 84.3777 101.115 84.4233L101.115 84.4288L103.58 84.6112L101.688 86.2113C101.143 86.6729 100.952 87.398 101.144 88.0414L101.715 90.3698L99.6004 89.06C99.0103 88.6958 98.2879 88.7264 97.7416 89.0789L95.6575 90.3698L96.2503 87.9509C96.4102 87.2892 96.1691 86.6245 95.6829 86.2124L95.684 86.2111L93.7923 84.6109L96.2579 84.4285C96.9948 84.3766 97.592 83.874 97.8001 83.2093L98.6863 81.0409L99.6272 83.3435L99.6275 83.3441ZM100.297 75.7909L102.437 81.0286L108.087 81.4461C109.047 81.5139 109.771 82.3479 109.704 83.3088C109.668 83.8215 109.413 84.2664 109.038 84.56L104.763 88.1765L106.112 93.6827C106.338 94.6173 105.764 95.5582 104.83 95.7841C104.341 95.9022 103.851 95.8016 103.462 95.5454L98.6866 92.5876L93.8673 95.5727C93.0497 96.0775 91.9773 95.824 91.4725 95.0064C91.2185 94.5949 91.1564 94.1189 91.262 93.683H91.2611L92.6108 88.1768L88.2839 84.5168C87.5492 83.895 87.4576 82.7953 88.0791 82.0605C88.3952 81.687 88.8346 81.48 89.2869 81.448V81.4467L94.9361 81.0291L97.0766 75.7914C97.4384 74.9022 98.4525 74.4746 99.3418 74.8363C99.7937 75.0201 100.126 75.3728 100.297 75.7914L100.297 75.7909ZM68.4515 27.7036C69.1532 27.0709 69.7514 26.323 69.6844 25.8319C69.6683 25.7125 69.6648 25.5943 69.673 25.4787C69.9295 16.6376 68.9612 10.4503 66.7677 6.91773C64.8569 3.84019 61.8095 2.94687 57.6259 4.23804C57.3584 4.32035 57.0864 4.33484 56.8277 4.29136V4.29246C46.1869 2.50089 38.876 3.65945 34.8947 7.76839C31.2807 11.4984 30.2627 17.8306 31.8402 26.7633C32.9714 25.8084 33.9445 24.8334 34.7588 23.8372C36.0035 22.315 36.8676 20.7539 37.3502 19.1549C37.6253 18.2318 38.5968 17.7062 39.5199 17.9813C39.5601 17.9933 39.5998 18.0067 39.6386 18.0212C43.5116 19.3799 47.3203 19.7573 51.0645 19.1527C54.8417 18.5429 58.5905 16.9266 62.3107 14.3046C63.0982 13.7507 64.1859 13.9402 64.7396 14.7277C64.8249 14.8491 64.8925 14.9773 64.943 15.1099C66.0428 17.5339 66.8976 19.9648 67.5073 22.4033C67.9454 24.1555 68.2604 25.9225 68.4518 27.7034L68.4515 27.7036ZM69.0903 31.5654C68.9355 31.6551 68.7827 31.7352 68.6342 31.8046V40.3419C68.7982 40.1221 68.9721 39.8823 69.1518 39.6288C69.9623 38.485 70.6882 37.0486 71.1167 35.6306C71.4921 34.3886 71.6223 33.232 71.327 32.4612C71.1236 31.9296 70.5428 31.5818 69.4121 31.5925C69.3022 31.5933 69.1945 31.584 69.09 31.5651L69.0903 31.5654ZM30.7666 31.5905C30.727 31.5925 30.6876 31.5933 30.6482 31.5925C29.531 31.5862 28.9559 31.9329 28.7536 32.4612C28.4586 33.232 28.5887 34.3886 28.9639 35.6306C29.3926 37.0486 30.1186 38.485 30.9288 39.6288C31.0937 39.8618 31.2539 40.083 31.4062 40.288V31.435L31.3983 31.4385L31.3955 31.4396L31.3786 31.447L31.3745 31.4489L31.3687 31.4514L31.3638 31.4536C31.2 31.5233 31.0237 31.5689 30.8391 31.5853H30.8377L30.8271 31.5864L30.815 31.5875L30.803 31.5884L30.7787 31.5897L30.7666 31.5905ZM65.1413 29.9871L65.1407 30.0278V40.6594C65.1407 44.31 63.6456 47.6307 61.2371 50.0391C58.8287 52.4475 55.5084 53.9427 51.8574 53.9427H48.183C44.532 53.9427 41.2117 52.4478 38.8032 50.0394C36.3948 47.6309 34.8999 44.3106 34.8999 40.6596V28.7211C35.8632 27.8488 36.7169 26.9577 37.4607 26.0482C38.5741 24.6865 39.4466 23.2783 40.0788 21.8239C43.9597 22.9507 47.8037 23.2069 51.6102 22.5923C55.3145 21.9943 58.9564 20.577 62.5363 18.3406C63.1816 19.9626 63.7104 21.5991 64.123 23.2499C64.6827 25.4893 65.0223 27.7351 65.1416 29.9874L65.1413 29.9871ZM40.7176 76.241L47.4589 70.0298L35.3541 59.2799L32.7529 61.76L40.7176 76.241ZM50.0549 67.681L40.09 58.8315L41.5155 56.0471C43.5616 56.9401 45.8169 57.4361 48.183 57.4361H51.8574C54.2235 57.4361 56.4788 56.9401 58.5249 56.0471L59.972 58.8739L50.0549 67.681ZM56.7205 73.7792C56.758 73.7995 56.7952 73.8211 56.8318 73.8446C57.0497 73.9835 57.2261 74.1626 57.3579 74.3666L59.3925 76.241L67.3572 61.76L64.7563 59.2799L52.6515 70.0298L56.7211 73.7795L56.7205 73.7792ZM52.252 81.6263H47.9443C45.9791 89.8161 44.0155 98.0066 42.0511 106.197L50.0981 115.243L58.1451 106.197C56.1807 98.0066 54.2172 89.8161 52.252 81.6263ZM48.1608 78.1329L46.5505 75.6071L50.0549 72.3784L53.6137 75.6572L52.0354 78.1329H48.1611H48.1608ZM81.3457 108.166H81.1707L74.4663 119.924L80.0004 118.753L80.001 118.755C80.8557 118.573 81.7294 119.057 82.0132 119.906L83.8231 125.263L90.7782 113.064C90.4485 113.092 90.1023 113.135 89.757 113.178C88.2232 113.369 86.698 113.559 85.1977 112.824C83.6962 112.087 82.9155 110.754 82.1379 109.426C81.8757 108.978 81.614 108.531 81.346 108.165L81.3457 108.166ZM83.2253 105.057C83.1493 104.989 83.0711 104.922 82.9902 104.857C82.4912 104.456 81.944 104.166 81.3739 103.929C81.3468 103.917 81.3198 103.906 81.2924 103.895C80.7939 103.693 80.2788 103.528 79.7634 103.364C78.8074 103.058 77.8507 102.752 77.4673 102.275C77.0867 101.8 76.9934 100.798 76.9005 99.7927C76.7908 98.609 76.6809 97.4228 76.1346 96.3088C75.5921 95.203 74.7417 94.3972 73.8864 93.5873C73.1289 92.8701 72.3663 92.1474 72.2159 91.5067C72.0644 90.8611 72.4177 89.8609 72.7748 88.8497C73.1812 87.6994 73.5911 86.5389 73.5911 85.2691C73.5911 83.9992 73.1812 82.8387 72.7748 81.6884C72.4177 80.6772 72.0644 79.6773 72.2159 79.0314C72.3663 78.3905 73.1292 77.668 73.8864 76.9508C74.7414 76.1409 75.5921 75.3354 76.1346 74.2293C76.6809 73.1153 76.7908 71.9294 76.9005 70.7454C76.9934 69.7405 77.0867 68.7378 77.4673 68.2637C77.8507 67.786 78.8074 67.4803 79.7634 67.1746C80.8984 66.812 82.0329 66.4492 82.9902 65.6811C83.9426 64.9168 84.5403 63.8958 85.1397 62.8723C85.6543 61.9932 86.1708 61.1114 86.7259 60.8391C87.276 60.5692 88.302 60.6971 89.3337 60.8257C90.5166 60.973 91.7055 61.1212 92.9266 60.8347C94.1125 60.5563 95.1037 59.9176 96.1043 59.2728C97.0222 58.6814 97.9513 58.0823 98.6866 58.0823C99.4219 58.0823 100.351 58.6814 101.269 59.2728C102.269 59.9176 103.26 60.5566 104.447 60.8347C105.668 61.1212 106.857 60.973 108.04 60.8257C109.071 60.6971 110.097 60.5694 110.647 60.8391C111.202 61.1111 111.719 61.9932 112.234 62.8723C112.833 63.8958 113.431 64.9168 114.383 65.6811C115.34 66.4494 116.475 66.812 117.61 67.1746C118.566 67.48 119.523 67.7857 119.906 68.2637C120.287 68.7381 120.38 69.7408 120.473 70.7454C120.582 71.9294 120.693 73.1153 121.239 74.2293C121.781 75.3354 122.632 76.1409 123.487 76.9508C124.244 77.668 125.007 78.3905 125.157 79.0314C125.309 79.677 124.955 80.6772 124.598 81.6884C124.192 82.8387 123.782 83.9992 123.782 85.2691C123.782 86.5389 124.192 87.6994 124.598 88.8497C124.955 89.8609 125.309 90.8609 125.157 91.5067C125.007 92.1477 124.244 92.8701 123.487 93.5873C122.632 94.3972 121.781 95.203 121.239 96.3088C120.692 97.4225 120.582 98.6087 120.473 99.7927C120.379 100.797 120.287 101.8 119.906 102.275C119.523 102.752 118.566 103.058 117.61 103.364C117.094 103.528 116.578 103.693 116.079 103.896C116.052 103.907 116.026 103.917 116 103.929C115.429 104.167 114.882 104.457 114.383 104.857C113.431 105.622 112.833 106.643 112.234 107.666C111.719 108.545 111.202 109.427 110.647 109.699C110.097 109.969 109.071 109.841 108.04 109.713C106.857 109.565 105.668 109.417 104.446 109.704C103.26 109.982 102.269 110.621 101.269 111.266C100.351 111.857 99.4219 112.456 98.6866 112.456C97.9513 112.456 97.0219 111.857 96.1043 111.266C95.1037 110.621 94.1125 109.982 92.9266 109.704C91.7052 109.417 90.5166 109.565 89.3337 109.713C88.302 109.841 87.276 109.969 86.7259 109.699C86.1711 109.427 85.6546 108.545 85.1397 107.666C84.6387 106.811 84.1389 105.957 83.4323 105.254C83.3686 105.183 83.2994 105.117 83.2253 105.057V105.057ZM61.3566 104.672H74.9347C74.8724 104.604 74.8114 104.532 74.7518 104.458C73.7185 103.17 73.5766 101.64 73.4344 100.107C73.3543 99.2425 73.2739 98.3763 73.0094 97.8376C72.7519 97.3126 72.12 96.7141 71.4845 96.1122C70.3494 95.0371 69.2065 93.9545 68.8179 92.2986C68.4348 90.6659 68.9574 89.1863 69.4859 87.6904C69.7903 86.8285 70.0973 85.9589 70.0973 85.2696C70.0973 84.5803 69.7903 83.7107 69.4859 82.8489C68.9574 81.3526 68.4348 79.8733 68.8179 78.2406C69.2065 76.5847 70.3494 75.5019 71.4845 74.427C72.12 73.8251 72.7519 73.2266 73.0094 72.7016C73.2739 72.1627 73.3543 71.2964 73.4344 70.4323C73.5766 68.8989 73.7185 67.3687 74.7518 66.0811C75.2035 65.5184 75.7383 65.1121 76.32 64.7941C75.8464 64.6305 75.3676 64.4782 74.8836 64.338C73.4396 63.9196 71.9515 63.6076 70.429 63.4113L61.3761 79.8708C60.9126 80.715 59.8525 81.0234 59.0084 80.5599C58.8656 80.4814 58.7382 80.386 58.6272 80.2775L56.2127 78.0528L55.3109 79.4673L61.3566 104.673V104.672ZM39.133 108.166H1.74672C0.782031 108.166 0 107.384 0 106.419V93.1145C0 84.4597 3.33922 76.5415 8.79402 70.583C14.117 64.7689 21.452 60.8265 29.662 59.8924L34.1097 55.6514L34.1111 55.653C34.7583 55.0359 35.7815 55.0072 36.4634 55.6107L37.4032 56.4455L38.4858 54.3307C37.718 53.7838 36.998 53.1741 36.333 52.5091C34.2557 50.4318 32.7171 47.8152 31.9506 44.8935C30.6141 44.4722 29.2425 43.2611 28.0902 41.6347C27.0616 40.1825 26.1483 38.3868 25.6203 36.6404C25.0392 34.7178 24.8954 32.7764 25.4918 31.2195C26.0162 29.8501 27.005 28.8217 28.5983 28.3681C26.5535 17.7407 27.8193 10.0639 32.3969 5.33972C37.1722 0.411284 45.3753 -1.1052 57.0049 0.788901C62.6979 -0.845161 66.9391 0.583276 69.7282 5.07558C72.2835 9.19109 73.4251 16.0087 73.1533 25.5276C73.2364 26.5429 72.8148 27.629 72.1656 28.6136C73.3644 29.1419 74.1431 30.0582 74.588 31.2195C75.1841 32.7764 75.0405 34.7178 74.4595 36.6404C73.9318 38.3868 73.0182 40.1828 71.9895 41.6347C70.8247 43.2789 69.4359 44.4982 68.0857 44.9069C67.3181 47.8229 65.7809 50.435 63.7068 52.5091C63.0418 53.1741 62.3219 53.7838 61.5541 54.3307L62.6582 56.4878L63.6459 55.6109C64.3278 55.0075 65.351 55.0362 65.9982 55.6533L65.9996 55.6517L70.4637 59.9085C72.3092 60.1232 74.1095 60.4893 75.8518 60.9941C77.5863 61.4967 79.266 62.1382 80.8773 62.9051C81.3135 62.518 81.7247 61.8158 82.1368 61.1119C82.9147 59.7836 83.6951 58.4506 85.1966 57.7142C86.6969 56.9784 88.2219 57.1684 89.7556 57.3596C90.6377 57.4695 91.5242 57.58 92.1342 57.4367C92.7352 57.2959 93.4743 56.8193 94.2203 56.3385C95.5694 55.469 96.9355 54.5886 98.6858 54.5886C100.436 54.5886 101.802 55.469 103.151 56.3385C103.897 56.8193 104.636 57.2956 105.237 57.4367C105.847 57.5797 106.734 57.4692 107.616 57.3593C109.15 57.1682 110.675 56.9784 112.175 57.7139C113.676 58.4503 114.457 59.7833 115.235 61.1117C115.67 61.8535 116.103 62.594 116.566 62.9653C117.029 63.3375 117.844 63.598 118.66 63.8586C120.124 64.3265 121.589 64.7949 122.621 66.08C123.654 67.3676 123.796 68.8981 123.938 70.4313C124.018 71.2956 124.099 72.1616 124.363 72.7005C124.62 73.2255 125.252 73.8241 125.888 74.4259C127.023 75.5008 128.166 76.5833 128.554 78.2395C128.938 79.8722 128.415 81.3518 127.886 82.8478C127.582 83.7096 127.275 84.5792 127.275 85.2685C127.275 85.9578 127.582 86.8277 127.886 87.6893C128.415 89.1855 128.938 90.6648 128.554 92.2975C128.166 93.9537 127.023 95.0362 125.888 96.1111C125.252 96.713 124.621 97.3115 124.363 97.8365C124.099 98.3755 124.018 99.2417 123.938 100.106C123.796 101.639 123.654 103.169 122.621 104.457C121.729 105.568 120.513 106.069 119.255 106.486L127.815 121.501C128.05 121.872 128.146 122.332 128.048 122.795C127.848 123.737 126.923 124.339 125.981 124.139L118.164 122.484L115.619 130.018C115.491 130.423 115.216 130.783 114.818 131.009C113.981 131.484 112.918 131.191 112.444 130.354L103.211 114.161L103.152 114.199C101.803 115.069 100.437 115.949 98.6863 115.949C96.9361 115.949 95.5697 115.069 94.2208 114.199L94.162 114.161L84.9291 130.354C84.4545 131.191 83.3913 131.484 82.5549 131.009C82.1565 130.783 81.8811 130.423 81.7537 130.018L79.2086 122.484L71.3918 124.139C70.4498 124.339 69.5239 123.737 69.3243 122.795C69.2262 122.332 69.3221 121.872 69.557 121.501L77.1608 108.165H61.0632L51.4183 119.008C51.4035 119.025 51.3882 119.042 51.3726 119.059L51.3685 119.063L51.3442 119.088L51.3313 119.101L51.3185 119.114L51.2933 119.138L51.2892 119.142C51.1703 119.253 51.0393 119.345 50.9001 119.417L50.8938 119.42L50.8673 119.433L50.852 119.441L50.8364 119.448L50.8115 119.46L50.7998 119.465L50.7724 119.477L50.7631 119.48C50.595 119.55 50.4189 119.591 50.2411 119.606H50.2403L50.2001 119.609H50.196C50.17 119.61 50.1441 119.611 50.1181 119.612H50.1154H50.0801H50.0773C50.0514 119.611 50.0254 119.61 49.9994 119.609H49.9953L49.9551 119.606H49.9543C49.7766 119.591 49.6005 119.55 49.4323 119.48L49.423 119.477L49.3957 119.465L49.3839 119.46L49.359 119.448L49.3434 119.441L49.3281 119.433L49.3016 119.42L49.2953 119.417C49.1561 119.345 49.0252 119.253 48.9062 119.142L48.9021 119.138L48.877 119.114L48.8641 119.101L48.8512 119.088L48.8269 119.063L48.8228 119.059C48.8072 119.042 48.7919 119.025 48.7772 119.008L39.1322 108.165L39.133 108.166ZM3.49344 104.672V93.1148C3.49344 85.353 6.4802 78.26 11.3597 72.9305C16.0423 67.8155 22.4716 64.3194 29.6797 63.408L38.7341 79.87C39.1975 80.7141 40.2577 81.0226 41.1018 80.5591C41.2445 80.4806 41.3719 80.3852 41.4829 80.2766L43.9518 78.0019L44.8856 79.4664L38.8399 104.672H3.49344Z" fill="url(#paint0_linear_218_31)"/>
<defs>
<linearGradient id="paint0_linear_218_31" x1="64.3431" y1="131.237" x2="64.3431" y2="0" gradientUnits="userSpaceOnUse">
<stop stop-color="#007AFF"/>
<stop offset="0.5" stop-color="white"/>
<stop offset="0.99" stop-color="#FBB04C"/>
</linearGradient>
</defs>
</svg>
