<svg width="155" height="190" viewBox="0 0 155 190" fill="none" xmlns="http://www.w3.org/2000/svg">
<g id="Group">
<g id="Group_2">
<g id="Group_3">
<path id="Vector" d="M5.62587 83.1746C5.62587 83.1746 1.65458 87.0967 3.05538 92.8811C3.48543 94.6575 5.07918 97.0382 6.21835 98.4405C7.62188 100.169 8.3915 102.353 8.3915 104.609L10.0327 136.835C10.0327 136.835 -0.411738 147.658 7.33518 175.695H15.7863C15.7863 175.695 23.2781 136.928 24.7264 116.747C26.1746 96.5642 24.7264 85.8906 24.7264 85.8906L5.62587 83.1746Z" fill="#007AFF"/>
<path id="Vector_2" d="M22.6829 134.721C23.6046 128.159 24.3595 121.856 24.7258 116.746C24.9073 114.217 25.043 111.838 25.1422 109.609L13.7014 100.382L22.6829 134.721Z" fill="#323232"/>
<path id="Vector_3" d="M7.33472 175.695V180.044C7.33472 180.044 8.94046 182.106 10.3364 181.797C11.7317 181.487 12.8284 179.632 14.1245 179.632L14.5001 175.694H7.33472V175.695Z" fill="#FBB04C" fill-opacity="0.5"/>
<path id="Vector_4" d="M7.33451 180.044C7.33451 180.044 8.94025 182.106 10.3361 181.797C11.7315 181.487 12.8282 179.632 14.1243 179.632C15.8543 179.632 16.7471 179.757 17.7631 181.828C18.9143 184.175 22.873 185.494 26.617 185.494C29.5495 185.494 29.3145 187.495 29.3145 187.495C30.0771 187.677 29.9386 189.617 29.9386 189.617H5.09759C4.74603 187.07 5.7424 187.009 5.7424 187.009C5.2731 179.612 7.33451 179.431 7.33451 179.431V180.044Z" fill="#007AFF"/>
</g>
<g id="Group_4">
<path id="Vector_5" d="M10.0322 87.6496V89.5056C10.0322 93.4559 11.3256 97.2896 13.7016 100.382L38.2597 136.835C38.2597 136.835 29.9383 142.19 36.7575 175.695H45.4627C45.4627 175.695 53.4347 135.333 47.874 120.032C42.3133 104.732 32.1605 88.1174 32.1605 88.1174C32.1605 88.1174 18.134 77.3153 10.0322 87.6496Z" fill="#007AFF"/>
<path id="Vector_6" d="M36.7576 175.695V180.044C36.7576 180.044 38.3633 182.106 39.7592 181.797C41.1546 181.487 42.2512 179.632 43.5474 179.632L43.9229 175.694H36.7576V175.695Z" fill="#FBB04C" fill-opacity="0.5"/>
<path id="Vector_7" d="M36.7575 180.044C36.7575 180.044 38.3633 182.106 39.7592 181.797C41.1545 181.487 42.2512 179.632 43.5473 179.632C45.2773 179.632 46.1702 179.757 47.1861 181.828C48.3373 184.175 52.2961 185.494 56.0401 185.494C58.9725 185.494 58.7376 187.495 58.7376 187.495C59.4996 187.677 59.3617 189.617 59.3617 189.617H34.5206C34.1685 187.07 35.1654 187.009 35.1654 187.009C34.6961 179.612 36.7575 179.431 36.7575 179.431V180.044Z" fill="#007AFF"/>
</g>
<g id="Group_5">
<g id="Group_6">
<path id="Vector_8" d="M37.3907 23.9065H36.2183C35.4503 23.9065 34.745 24.345 34.3853 25.0467L30.9083 31.8359L22.1907 30.1412L26.3364 18.8521L30.0646 15.821L37.3907 23.9065Z" fill="#FCDDB3"/>
<path id="Vector_9" d="M36.552 22.9821L30.0636 15.822L26.3354 18.8531L22.1897 30.1422L29.0885 31.483L32.3256 24.5489C32.8281 23.584 33.8027 22.9821 34.8628 22.9821H36.552Z" fill="#FCDDB3"/>
</g>
<path id="Vector_10" d="M39.4081 9.46346C40.332 8.27143 38.7055 4.87061 35.0684 5.62641C31.4312 6.38221 23.5153 4.79847 23.5153 9.46346C23.5153 14.1285 20.6913 14.412 21.2473 18.9468C21.8038 23.4816 26.4679 23.1507 27.2806 22.0641C28.0938 20.9774 29.4057 15.9709 30.4185 16.7261C31.4312 17.4819 32.6723 20.4578 34.9828 17.5766C37.2938 14.6955 39.4081 9.46346 39.4081 9.46346Z" fill="#323232"/>
<path id="Vector_11" d="M35.9448 11.1114L35.9573 11.1937C36.0663 11.927 35.8227 12.6698 35.3016 13.1934L34.6595 13.8388C34.3968 14.1031 34.3074 14.4959 34.4301 14.8487C34.6645 15.52 34.4519 16.2685 33.9014 16.7154L32.8232 17.5896C32.8232 17.5896 31.2224 14.9519 30.0636 15.8215C28.3919 17.0767 31.3718 21.8211 32.717 20.3281C32.717 20.3281 35.705 25.5607 39.2947 23.3711C42.885 21.1815 40.2633 8.85701 38.5649 8.48446C38.1403 8.39147 37.7533 8.43486 37.4115 8.55209C36.3743 8.90829 35.7824 10.0186 35.9448 11.1114Z" fill="#FCDDB3"/>
</g>
<g id="Group_7">
<path id="Vector_12" d="M35.6342 94.1238C35.6342 94.1238 30.7608 87.1559 17.5039 90.8921C9.8529 93.0484 6.71064 93.0355 3.13396 87.6682C2.22644 84.871 4.02077 83.0077 4.02077 83.0077L14.5415 66.4974C15.3395 65.2884 15.7662 63.8585 15.7662 62.3949V46.2655C15.7662 37.5611 20.3447 30.1423 22.1903 30.1423H28.8493C30.3907 30.1423 31.7664 31.1433 32.2848 32.6447C33.8889 37.29 40.0208 47.1498 41.0749 51.2855C42.4779 56.7892 37.1015 59.3762 35.33 64.1584C33.8998 68.0191 33.4038 70.3141 32.5911 75.8961C31.9517 80.2889 38.1027 93.1538 35.8936 94.5933L35.6342 94.1238Z" fill="#323232"/>
<path id="Vector_13" d="M35.6342 94.1238L35.8931 94.5922C38.1023 93.1527 31.9513 80.2878 32.5906 75.895C33.4028 70.313 33.8993 68.018 35.3296 64.1572C35.4211 63.9093 35.5247 63.6686 35.6348 63.4324C31.9676 54.8104 30.5102 42.7074 30.5102 42.7074H18.0458C15.0457 62.6259 22.0181 72.3724 22.1206 89.9554C31.9104 88.8011 35.6342 94.1238 35.6342 94.1238Z" fill="#FBB04C"/>
</g>
<path id="Vector_14" d="M34.8355 60.1821C31.6185 58.6085 29.3832 57.2801 29.3832 57.2801L31.0538 36.3127C31.3177 32.9998 28.7826 30.1637 25.5684 30.175C23.3821 30.1829 21.3872 31.5226 20.5462 33.6096C16.3454 44.0319 17.2868 54.103 18.6957 60.4572C19.5738 64.4177 23.0093 67.2047 26.9386 67.1912L33.402 67.1681C28.1797 67.1867 31.8523 58.7224 34.8355 60.1821Z" fill="#323232"/>
<path id="Vector_15" d="M34.8354 60.1821C31.8049 58.8317 28.1797 67.1867 33.4019 67.1681L40.5684 67.1427L42.4052 70.7729C42.6145 71.1866 42.8963 71.5563 43.2364 71.8635L45.6271 74.0215C46.0517 74.4048 46.5564 74.681 47.1014 74.8281L50.7228 75.8059C51.1289 75.9153 51.5142 75.5687 51.4652 75.1375C51.4281 74.8145 51.2515 74.5265 50.9839 74.3552L49.5357 73.4264L50.7522 73.4219C50.9877 73.4207 51.1627 73.197 51.1142 72.9586C50.985 72.3245 50.4426 71.8714 49.8158 71.8736L48.8304 71.877L46.9995 71.0389L45.5131 68.4931C45.8255 68.771 46.3018 68.7067 46.5351 68.3556C46.9205 67.7739 46.8017 66.9832 46.2637 66.5498L45.2319 65.7185L44.6361 64.5174C44.3036 63.8473 44.0387 62.9562 43.237 62.8215C40.1459 62.3002 37.2054 61.2383 34.8354 60.1821Z" fill="#FCDDB3"/>
<path id="Vector_16" d="M50.9203 74.4093L49.4748 73.4754H50.6913C50.9268 73.4754 51.1029 73.2517 51.0549 73.0138C50.9274 72.3792 50.3867 71.9238 49.7598 71.9238H48.7744L46.9462 71.0789L45.468 68.5275L43.2764 66.3779L46.3881 72.2839L51.3983 75.1927C51.3629 74.8698 51.1868 74.5812 50.9203 74.4093Z" fill="#FBB04C"/>
<path id="Vector_17" d="M29.3708 57.2598C29.3708 57.2598 26.8875 56.3259 25.0168 57.2598L30.0363 49.243L29.3708 57.2598Z" fill="#FBB04C"/>
<path id="Vector_18" d="M17.9704 9.45332C15.6059 11.0309 14.4667 14.3297 15.3301 17.0992C13.0877 17.7423 11.633 20.2752 11.7981 22.675C11.9633 25.0754 13.5205 27.2245 15.5247 28.447C13.9375 27.9318 12.0532 28.6809 11.2089 30.1632C10.3646 31.6454 10.6442 33.7128 11.8494 34.8986C12.3999 35.4402 13.1847 35.97 13.1041 36.7512C13.0114 37.6518 11.8973 37.9263 11.216 38.4956C10.0458 39.4729 10.2818 41.5571 11.4024 42.5947C12.523 43.6329 14.186 43.7957 15.6675 43.5241C19.0131 42.9109 21.9171 40.2106 22.8617 36.8357C23.8063 33.4608 22.7451 29.5747 20.2334 27.2087C19.6497 26.6592 18.9237 25.9282 19.2267 25.1746C19.5211 24.4425 20.5452 24.4008 21.0559 23.8101C21.5432 23.2465 21.4053 22.3188 20.9497 21.7276C20.4934 21.1369 19.8034 20.8022 19.139 20.4877C20.1157 20.3907 20.7567 19.2928 20.7643 18.2783C20.772 17.2638 20.3245 16.3141 19.9375 15.3819C19.5505 14.4497 19.2093 13.4234 19.4382 12.4371C19.6671 11.4502 20.633 10.9621 21.6141 10.9621C22.8127 10.9621 23.5463 11.2422 23.4095 12.5706C23.1626 14.975 25.6104 11.4293 24.2582 9.65791C22.9642 7.96145 19.9702 8.11982 17.9704 9.45332Z" fill="#323232"/>
<g id="Group_8">
<path id="Vector_19" d="M37.9882 44.2788L45.7646 35.1167L52.4999 30.2257C52.6258 30.1344 52.7005 29.9856 52.7005 29.8267C52.7005 29.4784 52.3571 29.2422 52.0464 29.3769L49.0622 30.6715V30.1096L52.8836 27.7239C53.2319 27.5063 53.4178 27.0921 53.3529 26.6761L53.3147 26.4298L53.6516 26.2455C53.9263 26.095 54.0304 25.7422 53.8827 25.4587C53.7459 25.1961 53.4385 25.0839 53.1725 25.1995L52.9512 25.2958L52.9425 25.2699C52.8002 24.8506 52.3876 24.597 51.963 24.6691L49.3887 25.1076L46.5533 26.6863L47.1823 25.5652C47.4608 25.0687 47.6074 24.5045 47.6074 23.9308C47.6074 23.565 47.4221 23.2263 47.1185 23.038C46.985 22.9552 46.8122 22.9952 46.7261 23.1293L43.9932 27.3682C43.8356 27.6128 43.7114 27.8766 43.6236 28.1556C43.3527 29.0145 42.7482 30.9043 42.6638 30.9336C42.5547 30.9714 34.4519 37.4681 34.4519 37.4681L37.9882 44.2788Z" fill="#FBB04C"/>
<path id="Vector_20" d="M51.9636 24.6696L49.3892 25.1081L46.5538 26.6868L46.0088 27.6263L46.2813 28.0023L49.6798 25.86L52.9425 25.2705C52.8008 24.8511 52.3876 24.5975 51.9636 24.6696Z" fill="#FBB04C"/>
<path id="Vector_21" d="M35.6019 36.5483L39.6625 42.3061L37.9881 44.2787L34.4529 37.4687L35.6019 36.5483Z" fill="#FBB04C"/>
</g>
<g id="Group_9">
<g id="Group_10">
<path id="Vector_22" d="M42.7346 19.1316L56.1703 15.3149L56.5818 17.5287L42.7346 19.1316Z" fill="#FBB04C"/>
</g>
<g id="Group_11">
<path id="Vector_23" d="M42.7346 17.8455L51.5226 9.85913L52.8035 11.6835L42.7346 17.8455Z" fill="#FBB04C"/>
</g>
<g id="Group_12">
<path id="Vector_24" d="M42.7832 20.4015L54.1504 22.1278L53.6304 24.3174L42.7832 20.4015Z" fill="#FBB04C"/>
</g>
</g>
</g>
<g id="Group_13">
<g id="Group_14">
<path id="Vector_25" d="M116.527 87.0414C116.527 94.4602 107.485 125.458 106.344 136.914C105.204 148.37 105.204 175.696 105.204 175.696H117.981C117.981 175.696 127.035 144.903 118.889 136.817L130.619 117.552V87.0414H116.527Z" fill="#FBB04C"/>
<path id="Vector_26" d="M130.619 99.052L121.26 90.9997V132.923L130.619 117.552V99.052Z" fill="#323232"/>
<g id="Group_15">
<path id="Vector_27" d="M115.468 181.828C116.166 181.828 117.416 185.113 116.99 187.495C116.99 187.495 117.922 188.193 117.169 189.617H89.1218C89.1218 189.617 88.4721 188.315 89.1218 187.644C89.1218 187.644 88.1772 185.018 91.3064 185.14C94.4361 185.262 98.6281 185.201 100.459 183.919C102.289 182.636 103.807 180.897 105.204 181.828H115.468Z" fill="#007AFF"/>
<path id="Vector_28" d="M105.204 175.695V181.828C105.204 181.828 107.973 185.468 110.743 184.523C113.512 183.579 114.327 181.828 115.468 181.828L116.119 175.695H105.204Z" fill="#FBB04C" fill-opacity="0.5"/>
</g>
<path id="Vector_29" d="M117.981 87.0415V92.4871C117.981 94.9647 118.803 97.3674 120.31 99.2938L121.627 100.977C124.195 104.26 125.977 108.121 126.829 112.252C129.207 123.785 134.61 149.599 140.606 175.696H153.301C153.301 175.696 155.902 141.123 146.081 136.817L150.197 86.6841L117.981 87.0415Z" fill="#FBB04C"/>
<g id="Group_16">
<path id="Vector_30" d="M152.116 181.828C152.814 181.828 154.064 185.113 153.638 187.495C153.638 187.495 154.57 188.193 153.818 189.617H125.77C125.77 189.617 125.12 188.315 125.77 187.644C125.77 187.644 124.825 185.018 127.955 185.14C131.084 185.262 135.276 185.201 137.107 183.919C138.937 182.636 140.455 180.897 141.852 181.828H152.116Z" fill="#007AFF"/>
<path id="Vector_31" d="M140.606 175.695L141.852 181.828C141.852 181.828 144.621 185.468 147.391 184.523C150.161 183.579 150.976 181.828 152.116 181.828L151.522 175.695H140.606Z" fill="#FBB04C" fill-opacity="0.5"/>
</g>
</g>
<g id="Group_17">
<g id="Group_18">
<path id="Vector_32" d="M118.973 23.5604L121.837 22.7765C123.021 22.4529 123.103 21.8104 124.093 22.5544L128.527 25.8848L142.34 25.7923L128.251 11.8706L118.973 23.5604Z" fill="#FCDDB3"/>
<path id="Vector_33" d="M118.973 23.5604L126.313 21.581C127.866 21.1623 129.517 21.4277 130.871 22.3182C131.925 23.012 136.285 25.8459 136.363 25.8453C136.519 25.8436 142.341 25.7923 142.341 25.7923L128.251 11.8706L118.973 23.5604Z" fill="#FCDDB3"/>
</g>
<path id="Vector_34" d="M113.647 9.73623C111.834 8.90547 111.234 5.80449 114.833 4.80295C118.432 3.80086 122.769 -2.54426 126.829 2.13145C126.829 2.13145 130.659 2.84723 130.889 8.61972C131.12 14.3928 133.519 15.5966 132.688 16.4736C131.858 17.3506 126.691 13.3907 126.829 13.3433C126.967 13.2954 121.569 17.9232 121.569 17.9232L115.11 14.0912L113.647 9.73623Z" fill="#323232"/>
<path id="Vector_35" d="M113.647 9.73623C113.435 9.92786 112.242 20.1991 116.176 23.2426C120.11 26.2861 124.746 16.4894 124.746 16.4894C124.746 16.4894 126.045 17.9227 127.383 15.5848C128.721 13.247 127.106 9.23969 124.845 10.9091C122.584 12.5791 122.262 15.7753 122.262 15.7753C121.472 15.888 120.708 15.4383 120.399 14.6791L120.092 13.9284C119.859 13.3574 119.42 12.9009 118.864 12.6704C117.99 12.3085 116.725 11.4451 116.725 9.47754C116.725 9.47754 114.999 8.51546 113.647 9.73623Z" fill="#FCDDB3"/>
</g>
<g id="Group_19">
<g id="Group_20">
<path id="Vector_36" d="M112.256 19.1316L98.4089 17.5287L98.8199 15.3148L112.256 19.1316Z" fill="#FBB04C"/>
</g>
<g id="Group_21">
<path id="Vector_37" d="M112.256 17.8454L102.187 11.6835L103.468 9.8591L112.256 17.8454Z" fill="#FBB04C"/>
</g>
<g id="Group_22">
<path id="Vector_38" d="M112.208 20.4014L101.36 24.3174L100.84 22.1278L112.208 20.4014Z" fill="#FBB04C"/>
</g>
</g>
<g id="Group_23">
<g id="Group_24">
<path id="Vector_39" d="M119.446 57.3455L108.372 59.016L102.509 54.1391C102.224 53.9013 101.796 54.076 101.745 54.4513C101.602 55.4839 101.911 56.5282 102.587 57.3015L103.379 58.2067L99.6108 60.2819H97.2125L93.867 58.9895C93.4435 58.8261 92.9665 58.9754 92.7022 59.3542C92.5997 59.5013 92.6357 59.707 92.7823 59.8068L95.4019 61.5973L93.9335 61.3229L92.3893 60.3585C92.041 60.141 91.5908 60.2255 91.3384 60.5558C91.1771 60.7671 91.2125 61.0743 91.418 61.24L93.4925 62.9134C93.4925 63.3524 93.7176 63.7582 94.0839 63.9797L95.283 64.7051C95.809 65.0235 96.4091 65.1841 97.0185 65.174C98.404 65.1503 101.012 65.1757 102.004 65.1864C102.271 65.1892 102.535 65.1706 102.799 65.13L107.345 64.4317H119.447V57.3455H119.446Z" fill="#FCDDB3"/>
<path id="Vector_40" d="M107.344 64.4312H119.446V59.0155C115.444 59.0155 108.372 59.0155 108.372 59.0155L106.091 57.1178C106.091 57.1178 105.876 59.3266 107.246 61.3223C108.617 63.3181 109.302 64.4312 107.344 64.4312Z" fill="#FBB04C"/>
</g>
<g id="Group_25">
<path id="Vector_41" d="M134.036 23.8219C131.823 23.7695 129.649 24.589 128.067 26.1897C125.006 29.2878 122.347 34.6387 121.259 39.2254C118.603 50.4266 115.259 87.3599 115.155 87.3582C115.05 87.3565 150.142 87.3582 150.142 87.3582C150.142 87.3582 155.722 22.7173 137.327 23.8997L134.036 23.8219Z" fill="#007AFF"/>
<path id="Vector_42" d="M150.265 50.1555C148.796 43.9535 147.024 38.2898 144.926 34.4235L130.131 36.4885C130.131 36.4885 137.216 68.0524 136.884 87.3582C144.101 87.4157 150.142 87.3582 150.142 87.3582C150.142 87.3582 151.844 67.6189 150.265 50.1555Z" fill="#323232"/>
</g>
<g id="Group_26">
<path id="Vector_43" d="M142.515 28.7191C141.338 25.8182 138.512 24.0045 135.473 24.1595C130.61 24.4081 127.355 29.4377 128.989 34.1811L133.61 47.5955H147.938C147.08 42.2035 145.428 35.8984 142.515 28.7191Z" fill="#007AFF"/>
<path id="Vector_44" d="M133.611 47.595L137.227 58.0939C132.56 57.9643 123.385 62.3103 119.143 63.3118C118.615 63.4363 118.064 63.345 117.6 63.0576L108.656 58.4535C108.357 58.268 107.971 58.4484 107.908 58.8029C107.747 59.7086 108.037 60.6375 108.68 61.2743L110.155 62.7352C110.831 63.4053 110.617 64.5743 109.749 64.9406L101.146 68.5798C100.812 68.7213 100.594 69.0572 100.594 69.4303C100.594 69.9094 101.023 70.2645 101.475 70.1596L105.538 69.2156L107.76 68.5838L100.765 71.27C100.335 71.4351 100.119 71.9333 100.286 72.3758C100.397 72.6705 100.705 72.8323 101.001 72.7522L101.759 72.5477L101.784 72.6198C101.995 73.2448 102.606 73.6264 103.24 73.5295L105.149 73.2369C105.308 73.6337 105.724 73.8507 106.128 73.7487L119.26 70.4223H142.124C144.983 70.4223 147.468 68.3431 148.014 65.4405C148.733 61.6119 149.215 55.6157 147.938 47.5955H133.611V47.595Z" fill="#FCDDB3"/>
</g>
</g>
</g>
<g id="Group_27">
<g id="Group_28">
<path id="Vector_45" d="M68.1494 48.7442L46.9761 48.6022L48.0891 45.7537L72.3191 45.7847L70.5853 50.2237L95.1364 50.3888L66.6789 52.508L68.1494 48.7442Z" fill="#F2A649" stroke="#F2A649" stroke-miterlimit="10"/>
<path id="Vector_46" d="M91.5269 46.611V53.7812L98.7451 49.5609L91.5269 46.611Z" fill="#F2A649" stroke="#F2A649" stroke-miterlimit="10"/>
</g>
<g id="Group_29">
<path id="Vector_47" d="M91.7167 37.9844L112.889 38.1269L111.777 40.9754L87.547 40.9439L89.2808 36.5054L64.7297 36.3403L93.1867 34.2211L91.7167 37.9844Z" fill="#323232" stroke="#323232" stroke-miterlimit="10"/>
<path id="Vector_48" d="M68.3385 40.1182V32.9479L61.1208 37.1677L68.3385 40.1182Z" fill="#323232" stroke="#323232" stroke-miterlimit="10"/>
</g>
</g>
<g id="Group_30">
<path id="Vector_49" d="M74.2911 85.8833C77.8565 85.8833 80.7468 82.8946 80.7468 79.2079C80.7468 75.5212 77.8565 72.5325 74.2911 72.5325C70.7257 72.5325 67.8354 75.5212 67.8354 79.2079C67.8354 82.8946 70.7257 85.8833 74.2911 85.8833Z" stroke="#F2A649" stroke-miterlimit="10"/>
<path id="Vector_50" d="M76.7989 22.0308C76.7989 22.4293 76.4866 22.7523 76.1012 22.7523C75.7159 22.7523 75.4036 22.4293 75.4036 22.0308C75.4036 21.6324 75.7159 21.3094 76.1012 21.3094C76.4866 21.3094 76.7989 21.6324 76.7989 22.0308Z" stroke="#F2A649" stroke-miterlimit="10"/>
<path id="Vector_51" d="M64.175 65.7996C64.175 67.3512 62.9584 68.6092 61.4578 68.6092C59.9573 68.6092 58.7407 67.3512 58.7407 65.7996C58.7407 64.248 59.9573 62.99 61.4578 62.99C62.9584 62.99 64.175 64.248 64.175 65.7996Z" stroke="#323232" stroke-miterlimit="10"/>
<path id="Vector_52" d="M7.8115 55.419C7.8115 57.3697 6.28207 58.9512 4.39562 58.9512C2.50917 58.9512 0.979736 57.3697 0.979736 55.419C0.979736 53.4684 2.50917 51.8875 4.39562 51.8875C6.28207 51.8869 7.8115 53.4684 7.8115 55.419Z" stroke="#323232" stroke-miterlimit="10"/>
<path id="Vector_53" d="M142.603 13.1359C142.603 13.7339 142.134 14.2181 141.556 14.2181C140.978 14.2181 140.51 13.7334 140.51 13.1359C140.51 12.5379 140.979 12.0538 141.556 12.0538C142.135 12.0538 142.603 12.5385 142.603 13.1359Z" stroke="#F2A649" stroke-miterlimit="10"/>
<path id="Vector_54" d="M82.1941 12.6462C83.9996 12.6462 85.4633 11.1326 85.4633 9.26563C85.4633 7.39861 83.9996 5.8851 82.1941 5.8851C80.3885 5.8851 78.9248 7.39861 78.9248 9.26563C78.9248 11.1326 80.3885 12.6462 82.1941 12.6462Z" stroke="#323232" stroke-miterlimit="10"/>
<path id="Vector_55" d="M84.6217 68.7862C84.6217 69.3238 84.2003 69.7595 83.6803 69.7595C83.1604 69.7595 82.739 69.3238 82.739 68.7862C82.739 68.2485 83.1604 67.8128 83.6803 67.8128C84.2003 67.8134 84.6217 68.249 84.6217 68.7862Z" stroke="#323232" stroke-miterlimit="10"/>
</g>
</g>
</svg>
