<svg width="438" height="438" viewBox="0 0 438 438" fill="none" xmlns="http://www.w3.org/2000/svg">
<g filter="url(#filter0_f_621_5)">
<path d="M386.934 129.913C383.934 129.936 380.942 130.237 378.003 130.811C369.265 132.671 361.041 136.277 353.876 141.389C350.802 143.507 346.377 148.042 342.104 146.933C338.214 145.913 340.008 138.462 340.066 135.723C340.136 132.264 340.182 128.793 340.229 125.323C340.307 118.493 340.341 111.663 340.334 104.832C340.334 95.3339 340.334 85.828 340.334 76.3146V61.967C340.334 46.5932 333.92 31.8491 322.503 20.9781C311.087 10.1072 295.603 4 279.457 4H64.8647C48.7213 4.00294 33.2402 10.1115 21.8262 20.9821C10.4121 31.8527 4 46.5951 4 61.967V278.878C4.00399 291.038 8.02666 302.89 15.4981 312.752C22.9695 322.615 33.5107 329.989 45.6283 333.829V433.996C45.6283 433.996 123.203 436.214 158.857 336.8H279.457C295.599 336.806 311.082 330.708 322.502 319.846C333.922 308.984 340.345 294.248 340.357 278.878C340.357 264.464 339.658 250.049 339.344 235.713C339.204 229.426 339.146 223.139 339.239 216.864C339.332 211.054 338.564 203.847 340.112 198.225C340.225 197.705 340.467 197.218 340.817 196.806C341.168 196.393 341.617 196.066 342.127 195.852C347.413 193.967 351.349 203.348 354.19 205.909C357.446 208.838 361.109 211.327 365.078 213.304C374.483 218.124 385.338 219.732 395.837 217.861C406.335 215.991 415.845 210.755 422.785 203.023C429.724 195.292 433.675 185.532 433.981 175.366C434.286 165.199 430.928 155.24 424.464 147.144C420.026 141.712 414.329 137.33 407.819 134.341C401.309 131.352 394.161 129.837 386.934 129.913ZM141.321 48.8612C145.006 48.8612 148.608 49.9017 151.672 51.851C154.736 53.8004 157.124 56.5711 158.534 59.8127C159.944 63.0544 160.313 66.6214 159.594 70.0627C158.875 73.504 157.101 76.6651 154.495 79.1461C151.89 81.6272 148.57 83.3168 144.956 84.0013C141.342 84.6859 137.596 84.3345 134.191 82.9918C130.787 81.649 127.877 79.3752 125.83 76.4578C123.783 73.5404 122.69 70.1105 122.69 66.6017C122.69 61.8967 124.653 57.3843 128.147 54.0573C131.641 50.7303 136.38 48.8612 141.321 48.8612ZM70.6519 48.8612C74.3368 48.8612 77.9388 49.9017 81.0027 51.851C84.0665 53.8004 86.4545 56.5711 87.8646 59.8127C89.2747 63.0544 89.6437 66.6214 88.9248 70.0627C88.2059 73.504 86.4315 76.6651 83.8259 79.1461C81.2204 81.6272 77.9007 83.3168 74.2866 84.0013C70.6726 84.6859 66.9265 84.3345 63.5222 82.9918C60.1179 81.649 57.2081 79.3752 55.1609 76.4578C53.1137 73.5404 52.0211 70.1105 52.0211 66.6017C52.0211 61.8967 53.9839 57.3843 57.4779 54.0573C60.9719 50.7303 65.7107 48.8612 70.6519 48.8612ZM211.979 84.3422C208.294 84.3422 204.692 83.3017 201.628 81.3524C198.564 79.403 196.176 76.6324 194.766 73.3907C193.356 70.1491 192.987 66.582 193.706 63.1407C194.425 59.6994 196.199 56.5384 198.805 54.0573C201.41 51.5763 204.73 49.8866 208.344 49.2021C211.958 48.5176 215.704 48.8689 219.108 50.2117C222.513 51.5544 225.422 53.8282 227.47 56.7456C229.517 59.663 230.61 63.093 230.61 66.6017C230.606 71.3049 228.642 75.8144 225.149 79.139C221.655 82.4636 216.918 84.3311 211.979 84.3311V84.3422Z" fill="#007AFF" fill-opacity="0.04"/>
</g>
<defs>
<filter id="filter0_f_621_5" x="0" y="0" width="438" height="438" filterUnits="userSpaceOnUse" color-interpolation-filters="sRGB">
<feFlood flood-opacity="0" result="BackgroundImageFix"/>
<feBlend mode="normal" in="SourceGraphic" in2="BackgroundImageFix" result="shape"/>
<feGaussianBlur stdDeviation="2" result="effect1_foregroundBlur_621_5"/>
</filter>
</defs>
</svg>
