<svg width="360" height="438" viewBox="0 0 360 438" fill="none" xmlns="http://www.w3.org/2000/svg">
<g filter="url(#filter0_f_621_6)">
<path d="M292.305 4H67.6954C50.8012 4.00294 34.6 10.111 22.6552 20.9807C10.7104 31.8505 4 46.5918 4 61.9625V131.71C13.5512 125.552 24.976 122.258 36.6824 122.287C45.6195 122.288 54.4306 124.204 62.4015 127.882C70.3724 131.559 77.2788 136.893 82.5609 143.452C87.8429 150.011 91.352 157.611 92.8037 165.634C94.2554 173.657 93.6089 181.878 90.9165 189.632C88.2241 197.385 83.5616 204.452 77.307 210.26C71.0524 216.068 63.3816 220.454 54.9165 223.061C46.4514 225.669 37.4301 226.425 28.5839 225.268C19.7377 224.111 11.3155 221.074 4 216.404V278.856C4 294.226 10.7107 308.966 22.6559 319.834C34.6011 330.702 50.8023 336.808 67.6954 336.808H168.521C205.834 436.213 287.016 433.996 287.016 433.996V336.775H292.305C309.191 336.775 325.387 330.674 337.331 319.813C349.275 308.952 355.99 294.22 356 278.856V61.9625C356 46.5918 349.29 31.8505 337.345 20.9807C325.4 10.111 309.199 4.00294 292.305 4ZM118.657 278.357C114.8 278.357 111.031 277.317 107.824 275.368C104.618 273.419 102.119 270.648 100.643 267.407C99.1676 264.165 98.7815 260.599 99.5338 257.158C100.286 253.717 102.143 250.556 104.87 248.075C107.597 245.594 111.071 243.905 114.853 243.22C118.635 242.536 122.555 242.887 126.118 244.23C129.68 245.572 132.726 247.846 134.868 250.763C137.01 253.68 138.154 257.11 138.154 260.618C138.154 265.323 136.1 269.835 132.443 273.162C128.787 276.489 123.828 278.357 118.657 278.357ZM192.612 278.357C188.756 278.357 184.987 277.317 181.78 275.368C178.574 273.419 176.075 270.648 174.599 267.407C173.123 264.165 172.737 260.599 173.49 257.158C174.242 253.717 176.099 250.556 178.826 248.075C181.552 245.594 185.026 243.905 188.809 243.22C192.591 242.536 196.511 242.887 200.074 244.23C203.636 245.572 206.681 247.846 208.824 250.763C210.966 253.68 212.11 257.11 212.11 260.618C212.11 265.323 210.055 269.835 206.399 273.162C202.743 276.489 197.783 278.357 192.612 278.357ZM266.568 278.357C262.712 278.357 258.942 277.317 255.736 275.368C252.53 273.419 250.031 270.648 248.555 267.407C247.079 264.165 246.693 260.599 247.445 257.158C248.198 253.717 250.055 250.556 252.781 248.075C255.508 245.594 258.982 243.905 262.764 243.22C266.547 242.536 270.467 242.887 274.029 244.23C277.592 245.572 280.637 247.846 282.78 250.763C284.922 253.68 286.066 257.11 286.066 260.618C286.066 262.952 285.56 265.262 284.577 267.417C283.594 269.572 282.153 271.53 280.338 273.178C278.522 274.825 276.367 276.131 273.996 277.02C271.625 277.909 269.084 278.363 266.519 278.357H266.568Z" fill="#007AFF" fill-opacity="0.04"/>
</g>
<defs>
<filter id="filter0_f_621_6" x="0" y="0" width="360" height="438" filterUnits="userSpaceOnUse" color-interpolation-filters="sRGB">
<feFlood flood-opacity="0" result="BackgroundImageFix"/>
<feBlend mode="normal" in="SourceGraphic" in2="BackgroundImageFix" result="shape"/>
<feGaussianBlur stdDeviation="2" result="effect1_foregroundBlur_621_6"/>
</filter>
</defs>
</svg>
