<svg width="122" height="116" viewBox="0 0 122 116" fill="none" xmlns="http://www.w3.org/2000/svg">
<path d="M39.2123 67.26C32.0665 67.704 25.6024 68.36 20.1348 69.1801" stroke="url(#paint0_linear_162_5)" stroke-width="3" stroke-miterlimit="10" stroke-linecap="round" stroke-linejoin="round"/>
<path d="M102.104 69.2159C96.5728 68.3784 90.0077 67.7083 82.7386 67.2577" stroke="url(#paint1_linear_162_5)" stroke-width="3" stroke-miterlimit="10" stroke-linecap="round" stroke-linejoin="round"/>
<path d="M105.492 4.72147C114.656 6.35775 120.213 8.50395 120.213 10.8536" stroke="url(#paint2_linear_162_5)" stroke-width="3" stroke-miterlimit="10" stroke-linecap="round" stroke-linejoin="round"/>
<path d="M1.78711 10.8538C1.78711 5.72118 28.2983 1.56079 61 1.56079C74.6289 1.56079 87.1828 2.2835 97.1904 3.49778" stroke="url(#paint3_linear_162_5)" stroke-width="3" stroke-miterlimit="10" stroke-linecap="round" stroke-linejoin="round"/>
<path d="M120.213 10.8538V75.9045C120.213 78.5304 113.269 80.9037 102.104 82.5931V17.5423C113.269 15.8529 120.213 13.4796 120.213 10.8538Z" stroke="url(#paint4_linear_162_5)" stroke-width="3" stroke-miterlimit="10" stroke-linecap="round" stroke-linejoin="round"/>
<path d="M1.78711 49.4368V10.8538C1.78711 13.4987 8.8307 15.8863 20.1348 17.5781V82.6288C8.8307 80.937 1.78711 78.5495 1.78711 75.9046V58.2515" stroke="url(#paint5_linear_162_5)" stroke-width="3" stroke-miterlimit="10" stroke-linecap="round" stroke-linejoin="round"/>
<path d="M82.7386 67.0649C82.142 68.44 81.353 69.7891 80.3093 71.2343C74.6871 79.0192 67.6838 84.3066 61 84.3066C54.316 84.3066 47.3126 79.0192 41.6906 71.2343C40.6813 69.8368 39.9102 68.5293 39.3209 67.2009" stroke="url(#paint6_linear_162_5)" stroke-width="3" stroke-miterlimit="10" stroke-linecap="round" stroke-linejoin="round"/>
<path d="M49.1913 88.9317L42.5266 90.9366" stroke="url(#paint7_linear_162_5)" stroke-width="3" stroke-miterlimit="10" stroke-linecap="round" stroke-linejoin="round"/>
<path d="M73.0052 88.9317L79.2642 90.8299" stroke="url(#paint8_linear_162_5)" stroke-width="3" stroke-miterlimit="10" stroke-linecap="round" stroke-linejoin="round"/>
<path d="M60.264 99.1525C55.2755 98.9688 52.4433 96.9236 50.8659 94.9659C49.562 93.3479 48.999 91.2558 49.2401 89.1921L50.2557 80.5036" stroke="url(#paint9_linear_162_5)" stroke-width="3" stroke-miterlimit="10" stroke-linecap="round" stroke-linejoin="round"/>
<path d="M71.7631 80.6377L72.7606 89.1937C73.001 91.2567 72.438 93.3479 71.1348 94.9651C70.4712 95.7888 69.5852 96.628 68.4105 97.3376" stroke="url(#paint10_linear_162_5)" stroke-width="3" stroke-miterlimit="10" stroke-linecap="round" stroke-linejoin="round"/>
<path d="M18.7961 114.32L20.6185 104.09C21.7091 97.8118 26.1783 92.7715 32.2797 90.9353L39.3176 88.8191C40.7647 88.384 42.2444 89.4 42.3528 90.9072C42.7145 95.9363 43.9471 106.384 48.109 114.32" stroke="url(#paint11_linear_162_5)" stroke-width="3" stroke-miterlimit="10" stroke-linecap="round" stroke-linejoin="round"/>
<path d="M103.204 114.32L101.381 104.09C100.291 97.8118 95.8217 92.7715 89.7202 90.9353L82.6824 88.8191C81.2353 88.384 79.7556 89.4 79.6471 90.9072C79.2854 95.9363 78.0528 106.384 73.891 114.32" stroke="url(#paint12_linear_162_5)" stroke-width="3" stroke-miterlimit="10" stroke-linecap="round" stroke-linejoin="round"/>
<path d="M86.3732 28.48C89.4013 33.9228 90.1855 40.5308 87.9871 46.8116C87.7858 47.3878 87.4996 47.9683 87.1679 48.5418" stroke="url(#paint13_linear_162_5)" stroke-width="3" stroke-miterlimit="10" stroke-linecap="round" stroke-linejoin="round"/>
<path d="M34.8848 48.5718C33.3934 45.5103 32.7577 41.9485 32.7577 38.5182C32.7577 29.2546 40.5948 19.4598 49.1364 23.6635C55.1571 17.304 64.6845 14.7113 73.6255 17.8175C76.4277 18.7904 78.9261 20.2371 81.0585 22.0332" stroke="url(#paint14_linear_162_5)" stroke-width="3" stroke-miterlimit="10" stroke-linecap="round" stroke-linejoin="round"/>
<path d="M64.1842 42.7312C57.9868 41.0537 54.6284 37.1783 51.4448 33.6667C50.846 33.0065 49.7527 33.2162 49.4496 34.0544C48.1524 37.642 46.4571 40.6246 43.3003 42.4808C43.1576 42.5646 43.0172 42.6569 42.879 42.756" stroke="url(#paint15_linear_162_5)" stroke-width="3" stroke-miterlimit="10" stroke-linecap="round" stroke-linejoin="round"/>
<path d="M35.9717 61.3419H30.5086C29.1878 61.3419 28.1172 60.2713 28.1172 58.9505V51.0586C28.1172 49.7378 29.1878 48.6672 30.5086 48.6672H35.8668" stroke="url(#paint16_linear_162_5)" stroke-width="3" stroke-miterlimit="10" stroke-linecap="round" stroke-linejoin="round"/>
<path d="M86.2295 48.6671H91.4915C92.8122 48.6671 93.8828 49.7377 93.8828 51.0585V58.9504C93.8828 60.2712 92.8122 61.3418 91.4915 61.3418H86.3343" stroke="url(#paint17_linear_162_5)" stroke-width="3" stroke-miterlimit="10" stroke-linecap="round" stroke-linejoin="round"/>
<path d="M85.9909 47.5908V62.4181C85.9909 65.0597 83.8497 67.2009 81.2081 67.2009H70.1299C68.1267 67.2009 66.297 66.0647 65.4084 64.2695L65.3572 64.1661C64.9459 63.3364 64.3195 62.6619 63.5636 62.1932C62.4983 61.5324 61.1761 61.2803 59.8522 61.5979C58.4225 61.9408 57.2437 62.9516 56.5915 64.2695C55.7032 66.0647 53.8732 67.2009 51.8702 67.2009H40.7921C38.1505 67.2009 36.009 65.0597 36.009 62.4181V47.5908C36.009 44.9492 38.1505 42.8078 40.7921 42.8078H81.2081C83.8497 42.8078 85.9909 44.9492 85.9909 47.5908Z" stroke="url(#paint18_linear_162_5)" stroke-width="3" stroke-miterlimit="10" stroke-linecap="round" stroke-linejoin="round"/>
<path d="M56.428 72.8415C59.1887 75.0654 63.0496 75.0654 65.8103 72.8415Z" fill="#0D1C30"/>
<path d="M56.428 72.8415C59.1887 75.0654 63.0496 75.0654 65.8103 72.8415" stroke="url(#paint19_linear_162_5)" stroke-width="3" stroke-miterlimit="10" stroke-linecap="round" stroke-linejoin="round"/>
<defs>
<linearGradient id="paint0_linear_162_5" x1="29.6735" y1="67.26" x2="29.6735" y2="69.1801" gradientUnits="userSpaceOnUse">
<stop stop-color="#007AFF"/>
<stop offset="0.5" stop-color="white"/>
<stop offset="0.99" stop-color="#FBB04C"/>
</linearGradient>
<linearGradient id="paint1_linear_162_5" x1="92.4211" y1="67.2577" x2="92.4211" y2="69.2159" gradientUnits="userSpaceOnUse">
<stop stop-color="#007AFF"/>
<stop offset="0.5" stop-color="white"/>
<stop offset="0.99" stop-color="#FBB04C"/>
</linearGradient>
<linearGradient id="paint2_linear_162_5" x1="112.852" y1="4.72147" x2="112.852" y2="10.8536" gradientUnits="userSpaceOnUse">
<stop stop-color="#007AFF"/>
<stop offset="0.5" stop-color="white"/>
<stop offset="0.99" stop-color="#FBB04C"/>
</linearGradient>
<linearGradient id="paint3_linear_162_5" x1="49.4887" y1="1.56079" x2="49.4887" y2="10.8538" gradientUnits="userSpaceOnUse">
<stop stop-color="#007AFF"/>
<stop offset="0.5" stop-color="white"/>
<stop offset="0.99" stop-color="#FBB04C"/>
</linearGradient>
<linearGradient id="paint4_linear_162_5" x1="111.158" y1="10.8538" x2="111.158" y2="82.5931" gradientUnits="userSpaceOnUse">
<stop stop-color="#007AFF"/>
<stop offset="0.5" stop-color="white"/>
<stop offset="0.99" stop-color="#FBB04C"/>
</linearGradient>
<linearGradient id="paint5_linear_162_5" x1="10.9609" y1="10.8538" x2="10.9609" y2="82.6288" gradientUnits="userSpaceOnUse">
<stop stop-color="#007AFF"/>
<stop offset="0.5" stop-color="white"/>
<stop offset="0.99" stop-color="#FBB04C"/>
</linearGradient>
<linearGradient id="paint6_linear_162_5" x1="61.0298" y1="67.0649" x2="61.0298" y2="84.3066" gradientUnits="userSpaceOnUse">
<stop stop-color="#007AFF"/>
<stop offset="0.5" stop-color="white"/>
<stop offset="0.99" stop-color="#FBB04C"/>
</linearGradient>
<linearGradient id="paint7_linear_162_5" x1="45.859" y1="88.9317" x2="45.859" y2="90.9366" gradientUnits="userSpaceOnUse">
<stop stop-color="#007AFF"/>
<stop offset="0.5" stop-color="white"/>
<stop offset="0.99" stop-color="#FBB04C"/>
</linearGradient>
<linearGradient id="paint8_linear_162_5" x1="76.1347" y1="88.9317" x2="76.1347" y2="90.8299" gradientUnits="userSpaceOnUse">
<stop stop-color="#007AFF"/>
<stop offset="0.5" stop-color="white"/>
<stop offset="0.99" stop-color="#FBB04C"/>
</linearGradient>
<linearGradient id="paint9_linear_162_5" x1="54.7248" y1="80.5036" x2="54.7248" y2="99.1525" gradientUnits="userSpaceOnUse">
<stop stop-color="#007AFF"/>
<stop offset="0.5" stop-color="white"/>
<stop offset="0.99" stop-color="#FBB04C"/>
</linearGradient>
<linearGradient id="paint10_linear_162_5" x1="70.6126" y1="80.6377" x2="70.6126" y2="97.3376" gradientUnits="userSpaceOnUse">
<stop stop-color="#007AFF"/>
<stop offset="0.5" stop-color="white"/>
<stop offset="0.99" stop-color="#FBB04C"/>
</linearGradient>
<linearGradient id="paint11_linear_162_5" x1="33.4525" y1="88.7178" x2="33.4525" y2="114.32" gradientUnits="userSpaceOnUse">
<stop stop-color="#007AFF"/>
<stop offset="0.5" stop-color="white"/>
<stop offset="0.99" stop-color="#FBB04C"/>
</linearGradient>
<linearGradient id="paint12_linear_162_5" x1="88.5474" y1="88.7178" x2="88.5474" y2="114.32" gradientUnits="userSpaceOnUse">
<stop stop-color="#007AFF"/>
<stop offset="0.5" stop-color="white"/>
<stop offset="0.99" stop-color="#FBB04C"/>
</linearGradient>
<linearGradient id="paint13_linear_162_5" x1="87.8077" y1="28.48" x2="87.8077" y2="48.5418" gradientUnits="userSpaceOnUse">
<stop stop-color="#007AFF"/>
<stop offset="0.5" stop-color="white"/>
<stop offset="0.99" stop-color="#FBB04C"/>
</linearGradient>
<linearGradient id="paint14_linear_162_5" x1="56.9081" y1="16.5056" x2="56.9081" y2="48.5718" gradientUnits="userSpaceOnUse">
<stop stop-color="#007AFF"/>
<stop offset="0.5" stop-color="white"/>
<stop offset="0.99" stop-color="#FBB04C"/>
</linearGradient>
<linearGradient id="paint15_linear_162_5" x1="53.5316" y1="33.2765" x2="53.5316" y2="42.756" gradientUnits="userSpaceOnUse">
<stop stop-color="#007AFF"/>
<stop offset="0.5" stop-color="white"/>
<stop offset="0.99" stop-color="#FBB04C"/>
</linearGradient>
<linearGradient id="paint16_linear_162_5" x1="32.0444" y1="48.6672" x2="32.0444" y2="61.3419" gradientUnits="userSpaceOnUse">
<stop stop-color="#007AFF"/>
<stop offset="0.5" stop-color="white"/>
<stop offset="0.99" stop-color="#FBB04C"/>
</linearGradient>
<linearGradient id="paint17_linear_162_5" x1="90.0562" y1="48.6671" x2="90.0562" y2="61.3418" gradientUnits="userSpaceOnUse">
<stop stop-color="#007AFF"/>
<stop offset="0.5" stop-color="white"/>
<stop offset="0.99" stop-color="#FBB04C"/>
</linearGradient>
<linearGradient id="paint18_linear_162_5" x1="61" y1="42.8078" x2="61" y2="67.2009" gradientUnits="userSpaceOnUse">
<stop stop-color="#007AFF"/>
<stop offset="0.5" stop-color="white"/>
<stop offset="0.99" stop-color="#FBB04C"/>
</linearGradient>
<linearGradient id="paint19_linear_162_5" x1="61.1191" y1="72.8415" x2="61.1191" y2="74.5094" gradientUnits="userSpaceOnUse">
<stop stop-color="#007AFF"/>
<stop offset="0.5" stop-color="white"/>
<stop offset="0.99" stop-color="#FBB04C"/>
</linearGradient>
</defs>
</svg>
