<svg width="117" height="117" viewBox="0 0 117 117" fill="none" xmlns="http://www.w3.org/2000/svg">
<path d="M117 95.0625C117 92.4988 116.002 90.0887 114.189 88.2758L68.585 42.6717L75.9359 35.3217C77.0428 35.91 78.2836 36.2224 79.5725 36.2224C81.6479 36.2224 83.5992 35.4137 85.0667 33.9462C86.5342 32.4787 87.3421 30.5283 87.3421 28.4529C87.3421 26.3775 86.5342 24.4262 85.0667 22.9587L64.3834 2.27623C62.9159 0.807838 60.9646 0 58.8892 0C56.8147 0 54.8634 0.807838 53.3959 2.27534C51.9284 3.74284 51.1197 5.69415 51.1197 7.76953C51.1197 9.0585 51.4321 10.3002 52.0203 11.407L23.7442 39.6832C20.8101 38.1318 17.0833 38.5888 14.6152 41.056C11.5864 44.0857 11.5864 49.0148 14.6152 52.0435L35.2985 72.7269C36.8133 74.2417 38.803 74.9986 40.7927 74.9986C42.7824 74.9986 44.7712 74.2417 46.286 72.7269C48.7533 70.2596 49.2103 66.5329 47.6589 63.5979L55.0116 56.2452L63.0355 64.2691C63.0364 64.2691 63.0364 64.27 63.0373 64.2709L63.0382 64.2718L100.616 101.849C102.429 103.662 104.839 104.66 107.402 104.66C109.966 104.66 112.376 103.662 114.189 101.849C116.002 100.036 117 97.6262 117 95.0625ZM56.6281 5.50758C57.2316 4.90327 58.0349 4.57031 58.8892 4.57031C59.7443 4.57031 60.5477 4.90327 61.152 5.50758L81.8345 26.19C82.4388 26.7943 82.7717 27.5977 82.7717 28.4529C82.7717 29.3071 82.4388 30.1105 81.8345 30.7148C81.2302 31.3191 80.4268 31.6521 79.5725 31.6521C78.7183 31.6521 77.9149 31.3191 77.3106 30.7148L56.6281 10.0315C56.0229 9.42716 55.69 8.62379 55.69 7.76953C55.69 6.91528 56.0229 6.1119 56.6281 5.50758ZM55.0116 14.8794L72.4627 32.3305L63.7389 41.0552C63.738 41.0552 63.738 41.0552 63.7371 41.056L53.3959 51.3973C53.3959 51.3982 53.395 51.3982 53.395 51.3991L44.6703 60.1228L27.2192 42.6717L55.0116 14.8794ZM43.0547 69.4946C41.8076 70.7425 39.7778 70.7425 38.5299 69.4946L17.8474 48.8122C16.5995 47.5652 16.5995 45.5353 17.8474 44.2883C18.4705 43.6643 19.2899 43.3528 20.1094 43.3528C20.9288 43.3528 21.7483 43.6643 22.3713 44.2883L43.0538 64.9707C43.0547 64.9707 43.0547 64.9707 43.0547 64.9716C44.3017 66.2187 44.3017 68.2476 43.0547 69.4946ZM65.3537 45.904L71.7628 52.3131L64.653 59.4221L58.2438 53.0129L65.3537 45.904ZM110.957 98.617C110.007 99.5668 108.745 100.09 107.402 100.09C106.06 100.09 104.798 99.5668 103.848 98.617L67.8843 62.6543L74.9942 55.5445L110.957 91.508C111.907 92.4569 112.43 93.72 112.43 95.0625C112.43 96.405 111.907 97.6681 110.957 98.617Z" fill="url(#paint0_linear_673_12)"/>
<path d="M80.1331 92.3203H76.7812V87.8259C76.7812 83.2484 73.0563 79.5234 68.4788 79.5234H18.3571C13.7797 79.5234 10.0547 83.2484 10.0547 87.8259V92.3203H6.70283C3.0073 92.3203 0 95.3276 0 99.0231V114.715C0 115.977 1.02296 117 2.28516 117H84.5508C85.813 117 86.8359 115.977 86.8359 114.715V99.0231C86.8359 95.3276 83.8286 92.3203 80.1331 92.3203ZM82.2656 112.43H4.57031V99.0231C4.57031 97.8475 5.52722 96.8906 6.70283 96.8906H33.1348C34.397 96.8906 35.4199 95.8677 35.4199 94.6055C35.4199 93.3433 34.397 92.3203 33.1348 92.3203H14.625V87.8259C14.625 85.7683 16.2996 84.0938 18.3571 84.0938H68.4788C70.5363 84.0938 72.2109 85.7683 72.2109 87.8259V92.3203H53.7021C52.4399 92.3203 51.4169 93.3433 51.4169 94.6055C51.4169 95.8677 52.4399 96.8906 53.7021 96.8906H80.1331C81.3087 96.8906 82.2656 97.8475 82.2656 99.0231V112.43Z" fill="url(#paint1_linear_673_12)"/>
<path d="M43.418 92.3203C42.8172 92.3203 42.2272 92.5649 41.8023 92.9898C41.3774 93.4147 41.1328 94.0047 41.1328 94.6055C41.1328 95.2062 41.3774 95.7962 41.8023 96.2211C42.2272 96.646 42.8172 96.8906 43.418 96.8906C44.0187 96.8906 44.6087 96.646 45.0336 96.2211C45.4585 95.7962 45.7031 95.2062 45.7031 94.6055C45.7031 94.002 45.4585 93.4147 45.0336 92.9898C44.6087 92.5649 44.0187 92.3203 43.418 92.3203Z" fill="url(#paint2_linear_673_12)"/>
<defs>
<linearGradient id="paint0_linear_673_12" x1="64.6718" y1="104.66" x2="64.6718" y2="0" gradientUnits="userSpaceOnUse">
<stop stop-color="#007AFF"/>
<stop offset="0.5" stop-color="white"/>
<stop offset="0.99" stop-color="#FBB04C"/>
</linearGradient>
<linearGradient id="paint1_linear_673_12" x1="43.418" y1="117" x2="43.418" y2="79.5234" gradientUnits="userSpaceOnUse">
<stop stop-color="#007AFF"/>
<stop offset="0.5" stop-color="white"/>
<stop offset="0.99" stop-color="#FBB04C"/>
</linearGradient>
<linearGradient id="paint2_linear_673_12" x1="43.418" y1="96.8906" x2="43.418" y2="92.3203" gradientUnits="userSpaceOnUse">
<stop stop-color="#007AFF"/>
<stop offset="0.5" stop-color="white"/>
<stop offset="0.99" stop-color="#FBB04C"/>
</linearGradient>
</defs>
</svg>
