<svg width="117" height="117" viewBox="0 0 117 117" fill="none" xmlns="http://www.w3.org/2000/svg">
<path fill-rule="evenodd" clip-rule="evenodd" d="M14.3945 17.0251H19.8887C20.6131 17.0251 21.2112 16.4273 21.2112 15.7027V8.76585L14.3945 17.0251ZM24.4026 64.8966C23.5964 64.8966 22.9429 64.243 22.9429 63.4368C22.9429 62.6306 23.5964 61.9771 24.4026 61.9771H71.9684C72.7746 61.9771 73.4281 62.6306 73.4281 63.4368C73.4281 64.243 72.7746 64.8966 71.9684 64.8966H24.4026ZM12.6137 106.363C11.8075 106.363 11.154 105.709 11.154 104.903C11.154 104.097 11.8075 103.443 12.6137 103.443H18.025C18.8312 103.443 19.4847 104.097 19.4847 104.903C19.4847 105.709 18.8312 106.363 18.025 106.363H12.6137ZM23.2523 69.7745V78.2839C23.6245 77.834 25.7582 75.2047 25.9933 75.0102C26.6137 74.497 27.5326 74.5838 28.0458 75.204L30.5929 78.2839V69.7745H23.2523ZM33.5124 69.7745V82.3367C33.5124 83.6872 31.7882 84.3618 30.8822 83.2089L26.9227 78.4213L22.9159 83.266C22.0455 84.3184 20.3355 83.6927 20.3348 82.3367H20.333V69.7747H7.21847C6.88049 69.7747 6.59873 70.0565 6.59873 70.3942V109.803C6.59873 110.141 6.88049 110.423 7.21847 110.423H46.6274C46.9653 110.423 47.2469 110.141 47.2469 109.803V70.3942C47.2469 70.0565 46.9651 69.7747 46.6274 69.7747H33.5126L33.5124 69.7745ZM92.2871 50.9887L86.4266 49.44V95.5232C86.4266 97.8588 84.5205 99.7646 82.1849 99.7646H50.1662V104.475H90.9647C91.6891 104.475 92.2871 103.877 92.2871 103.153V50.9887ZM95.2066 41.0818L101.198 42.6652C102.908 43.117 103.29 42.1182 105.542 41.9554C110.477 41.599 114.36 46.2591 113.071 51.1395C111.79 55.9874 106.144 58.1821 101.985 55.4045C100.087 54.1369 100.279 53.1002 98.5635 52.647L95.2068 51.7599V103.153C95.2068 105.488 93.3008 107.394 90.9651 107.394H50.1666V109.803C50.1666 111.752 48.5768 113.342 46.6276 113.342H7.21847C5.269 113.342 3.67944 111.752 3.67944 109.803V70.394C3.67944 68.4445 5.26923 66.855 7.21847 66.855H9.84457V18.4848C9.84457 18.0612 9.99493 17.7618 10.2618 17.4631L21.2135 4.19393C21.5007 3.84453 21.9171 3.66355 22.3366 3.66332V3.65784H82.1846C84.5208 3.65784 86.4263 5.56434 86.4263 7.89977V11.2875H90.9644C93.3006 11.2875 95.2061 13.194 95.2061 15.5294V41.0821L95.2066 41.0818ZM86.4266 38.7617L92.2871 40.3104V15.5292C92.2871 14.8051 91.6888 14.2068 90.9647 14.2068H86.4266V38.7617ZM73.4348 43.662L74.9146 38.062C75.6256 38.7034 76.4468 39.1369 77.3831 39.3842L84.494 41.2633C84.5587 41.2854 84.6252 41.303 84.6935 41.3161L93.274 43.5834C93.3387 43.6056 93.4052 43.6232 93.4735 43.6362L100.457 45.4817C101.802 45.837 103.087 45.7415 104.366 45.1972C107.658 43.7968 111.203 46.8048 110.254 50.3984C109.311 53.9674 104.749 54.8695 102.566 52.0088C101.726 50.9091 100.641 50.1834 99.3048 49.8301L94.2199 48.4864C94.1557 48.4645 94.0892 48.4469 94.0213 48.4339L85.4405 46.1663C85.3759 46.1441 85.3091 46.1265 85.2408 46.1135L76.2313 43.7326C75.2963 43.4856 74.3664 43.4579 73.4352 43.6615L73.4348 43.662ZM46.5871 51.2101L48.0382 45.7186L71.4556 51.9068L70.0045 57.3983L46.5871 51.2101ZM53.508 23.1102L76.9254 29.2984L78.3764 23.807L54.959 17.6188L53.508 23.1102ZM73.6505 31.4456L56.2385 26.8444L55.0982 31.1599C55.0852 31.2282 55.0676 31.295 55.0454 31.3599L51.7854 43.6963L69.1976 48.2974L73.6509 31.4456H73.6505ZM76.8207 32.2833C78.0234 32.6012 79.2564 31.8779 79.5732 30.6791L81.3615 23.9116C81.6794 22.709 80.9559 21.4759 79.7573 21.1592L55.0642 14.6339C53.8613 14.316 52.6284 15.0393 52.3117 16.2381L50.5233 23.0056C50.365 23.6052 50.4653 24.2133 50.7541 24.7096C51.3387 25.7144 52.2939 25.8019 53.4227 26.1001L52.5436 29.4269H25.2068C24.4006 29.4269 23.747 30.0804 23.747 30.8866C23.747 31.6928 24.4006 32.3464 25.2068 32.3464H51.7722L49.6765 40.277H25.2068C24.4006 40.277 23.747 40.9306 23.747 41.7368C23.747 42.543 24.4006 43.1965 25.2068 43.1965H46.1114C45.7716 43.4849 45.5131 43.8761 45.3911 44.3382L43.5972 51.1271H24.4031C23.5969 51.1271 22.9433 51.7807 22.9433 52.5869C22.9433 53.3931 23.5969 54.0467 24.4031 54.0467H45.921L69.9006 60.3832C71.1014 60.7006 72.3354 59.9808 72.653 58.779L74.4414 52.0115C74.5997 51.4121 74.4997 50.804 74.2106 50.3075C73.6754 49.3881 72.9279 49.283 72.0139 49.0415L72.5742 46.9213C73.7947 46.648 74.2942 46.2339 75.4903 46.55L83.5077 48.6686V95.5234C83.5077 96.2473 82.9097 96.8456 82.1853 96.8456H50.1666V86.5976H71.9688C72.775 86.5976 73.4286 85.944 73.4286 85.1378C73.4286 84.3316 72.775 83.6781 71.9688 83.6781H50.1666V75.747H71.9688C72.775 75.747 73.4286 75.0934 73.4286 74.2872C73.4286 73.481 72.775 72.8274 71.9688 72.8274H50.1666V70.3942C50.1666 68.4447 48.5768 66.8552 46.6276 66.8552H12.7641V19.9446H19.8887C22.2249 19.9446 24.1305 18.039 24.1305 15.7029V6.57735H82.1849C82.9093 6.57735 83.5073 7.17583 83.5073 7.9V37.9905L78.1244 36.568C76.9274 36.2519 76.6927 35.6411 75.7748 34.8082L76.4667 32.1898L76.8209 32.2835L76.8207 32.2833Z" fill="url(#paint0_linear_673_13)"/>
<defs>
<linearGradient id="paint0_linear_673_13" x1="58.4999" y1="113.342" x2="58.4999" y2="3.65784" gradientUnits="userSpaceOnUse">
<stop stop-color="#007AFF"/>
<stop offset="0.5" stop-color="white"/>
<stop offset="0.99" stop-color="#FBB04C"/>
</linearGradient>
</defs>
</svg>
