<svg width="117" height="117" viewBox="0 0 117 117" fill="none" xmlns="http://www.w3.org/2000/svg">
<g clip-path="url(#clip0_673_19)">
<path d="M11.1099 97.9563V108.225C11.1099 110.67 13.0984 112.658 15.5426 112.658H39.1233C39.4376 115.104 41.5312 117 44.0609 117H72.9386C75.4683 117 77.5618 115.104 77.8762 112.658H101.457C103.901 112.658 105.89 110.67 105.89 108.225V97.9563C105.89 92.4892 102.034 87.9081 96.8998 86.7831C98.725 84.9061 99.8523 82.3469 99.8523 79.5282C99.8523 73.7849 95.1798 69.1124 89.4364 69.1124C83.6931 69.1124 79.0206 73.7849 79.0206 79.5282C79.0206 82.3463 80.1474 84.9047 81.9719 86.7818C79.1518 87.397 76.6804 89.0551 75.0424 91.4061C73.025 88.8483 70.0986 87.0414 66.7536 86.4776C69.1578 84.2535 70.6665 81.0748 70.6665 77.5492C70.6665 70.8406 65.2086 65.3827 58.5 65.3827C51.7914 65.3827 46.3333 70.8404 46.3333 77.549C46.3333 81.0746 47.8422 84.2532 50.2464 86.4774C46.9012 87.0409 43.9748 88.8478 41.9576 91.4058C40.3196 89.0548 37.8482 87.3967 35.0281 86.7816C36.8526 84.9045 37.9794 82.346 37.9794 79.5279C37.9794 73.7846 33.3069 69.1121 27.5636 69.1121C21.8202 69.1121 17.1477 73.7846 17.1477 79.5279C17.1477 82.3467 18.275 84.9059 20.1002 86.7829C14.9656 87.9081 11.1099 92.4892 11.1099 97.9563ZM89.4367 72.5399C93.2899 72.5399 96.4247 75.6747 96.4247 79.5279C96.4247 83.3812 93.2899 86.516 89.4367 86.516C85.5834 86.516 82.4486 83.3812 82.4486 79.5279C82.4486 75.6747 85.5834 72.5399 89.4367 72.5399ZM84.4235 89.9438H94.4497C98.8678 89.9438 102.462 93.5381 102.462 97.9561V108.225C102.462 108.779 102.011 109.23 101.457 109.23H77.9187V99.6848C77.9187 98.0123 77.5929 96.3414 77.0264 94.8763C78.2608 91.9022 81.1609 89.9438 84.4235 89.9438ZM49.761 77.549C49.761 72.7305 53.6813 68.8103 58.5 68.8103C63.3185 68.8103 67.2387 72.7305 67.2387 77.549C67.2387 82.3677 63.3185 86.288 58.5 86.288C53.6813 86.288 49.761 82.3677 49.761 77.549ZM42.509 99.685C42.509 94.226 46.9505 89.7157 52.4783 89.7157H64.5217C70.0399 89.7157 74.491 94.2177 74.491 99.685V112.02C74.491 112.876 73.7947 113.572 72.9389 113.572H44.0611C43.2053 113.572 42.509 112.876 42.509 112.02C42.509 110.604 42.509 101.149 42.509 99.685ZM27.5631 72.5399C31.4164 72.5399 34.5512 75.6747 34.5512 79.5279C34.5512 83.3812 31.4164 86.516 27.5631 86.516C23.7098 86.516 20.575 83.3812 20.575 79.5279C20.575 75.6747 23.7098 72.5399 27.5631 72.5399ZM14.5376 97.9563C14.5376 93.5381 18.132 89.944 22.5499 89.944H32.5761C35.8386 89.944 38.739 91.9022 39.9734 94.8768C39.4156 96.3192 39.0811 97.9853 39.0811 99.6852V109.231H15.5429C14.9885 109.231 14.5379 108.78 14.5379 108.226L14.5376 97.9563Z" fill="url(#paint0_linear_673_19)"/>
<path d="M37.2195 26.7861C37.2195 29.9734 39.8127 32.5666 43.0002 32.5666C46.1876 32.5666 48.7808 29.9734 48.7808 26.7861C48.7808 23.5987 46.1876 21.0056 43.0002 21.0056C39.8127 21.0056 37.2195 23.5987 37.2195 26.7861ZM45.353 26.7861C45.353 28.0834 44.2975 29.1389 43.0002 29.1389C41.7027 29.1389 40.6472 28.0834 40.6472 26.7861C40.6472 25.4888 41.7027 24.4333 43.0002 24.4333C44.2975 24.4333 45.353 25.4888 45.353 26.7861Z" fill="url(#paint1_linear_673_19)"/>
<path d="M52.7192 26.7861C52.7192 29.9734 55.3124 32.5666 58.5 32.5666C61.6873 32.5666 64.2805 29.9734 64.2805 26.7861C64.2805 23.5987 61.6873 21.0056 58.5 21.0056C55.3124 21.0056 52.7192 23.5987 52.7192 26.7861ZM58.5 24.4333C59.7973 24.4333 60.8528 25.4888 60.8528 26.7861C60.8528 28.0834 59.7973 29.1389 58.5 29.1389C57.2025 29.1389 56.147 28.0834 56.147 26.7861C56.147 25.4888 57.2025 24.4333 58.5 24.4333Z" fill="url(#paint2_linear_673_19)"/>
<path d="M79.7803 26.7861C79.7803 23.5987 77.1871 21.0056 73.9997 21.0056C70.8122 21.0056 68.219 23.5987 68.219 26.7861C68.219 29.9734 70.8122 32.5666 73.9997 32.5666C77.1871 32.5666 79.7803 29.9734 79.7803 26.7861ZM71.6467 26.7861C71.6467 25.4888 72.7022 24.4333 73.9997 24.4333C75.297 24.4333 76.3525 25.4888 76.3525 26.7861C76.3525 28.0834 75.297 29.1389 73.9997 29.1389C72.7022 29.1389 71.6467 28.0834 71.6467 26.7861Z" fill="url(#paint3_linear_673_19)"/>
<path d="M106.818 5.3224H88.6565C86.5569 2.12064 82.9381 0 78.8317 0H62.4988C61.5521 0 60.785 0.767361 60.785 1.71388C60.785 2.6604 61.5521 3.42776 62.4988 3.42776H78.8317C83.4105 3.42776 87.1474 7.15945 87.1474 11.7435V38.2812C87.1474 42.8262 83.4482 46.597 78.8317 46.597H67.8976C64.843 46.597 62.0873 48.525 61.0402 51.3945L58.5389 58.2507C58.5341 58.2637 58.5302 58.2713 58.5299 58.2735C58.5139 58.2797 58.4808 58.2802 58.474 58.2783C58.474 58.2781 58.4685 58.2708 58.4609 58.2507L55.9596 51.3945C54.9125 48.5248 52.1568 46.597 49.1025 46.597H38.1681C33.5685 46.597 29.8524 42.845 29.8524 38.2812V11.7435C29.8524 7.20127 33.5466 3.42776 38.1681 3.42776H54.5007C55.4475 3.42776 56.2146 2.6604 56.2146 1.71388C56.2146 0.767361 55.4475 0 54.5007 0H38.1681C34.0617 0 30.4429 2.12041 28.343 5.3224H10.1816C4.56738 5.3224 0 9.89001 0 15.504V37.9088C0 43.5227 4.56738 48.0904 10.1816 48.0904H12.4026C13.6587 48.0904 14.7917 48.8833 15.2222 50.0634L17.3342 55.8517C17.7997 57.1278 18.9781 57.9522 20.3365 57.9522C21.6948 57.9522 22.8735 57.1278 23.3389 55.8517L25.4507 50.0634C25.8812 48.8833 27.0144 48.0904 28.2706 48.0904H31.7226C33.5745 49.3113 35.7893 50.0248 38.1686 50.0248H49.1029C50.7231 50.0248 52.1845 51.0474 52.7398 52.5693L55.2411 59.4255C55.7466 60.8108 57.0258 61.7059 58.5002 61.7059C59.9749 61.7059 61.2541 60.8108 61.7596 59.4255L64.2609 52.5693C64.8162 51.0474 66.2778 50.0248 67.898 50.0248H78.8321C81.2114 50.0248 83.4262 49.3115 85.2781 48.0904H88.7301C89.9863 48.0904 91.1195 48.8833 91.55 50.0634L93.662 55.8517C94.1275 57.1278 95.3059 57.9522 96.6642 57.9522C98.0226 57.9522 99.201 57.1278 99.6665 55.8517L101.778 50.0634C102.209 48.8833 103.342 48.0904 104.598 48.0904H106.819C112.433 48.0904 117.001 43.523 117.001 37.9088V31.7886C117.001 30.8421 116.234 30.0747 115.287 30.0747C114.34 30.0747 113.573 30.8421 113.573 31.7886V37.9088C113.573 41.6327 110.543 44.6626 106.819 44.6626H104.598C101.908 44.6626 99.4805 46.3609 98.5582 48.8886L96.6642 54.0796L94.7703 48.8886C93.848 46.3607 91.4207 44.6626 88.7301 44.6626H88.683C88.6858 44.6582 88.6883 44.6539 88.691 44.6496C89.9607 42.6909 90.5756 40.4492 90.5756 38.2812V11.7435C90.5756 10.8013 90.4497 9.74421 90.1876 8.75016H106.819C110.543 8.75016 113.573 11.7798 113.573 15.504V23.7907C113.573 24.7372 114.34 25.5046 115.287 25.5046C116.234 25.5046 117.001 24.7372 117.001 23.7907V15.504C117 9.89001 112.433 5.3224 106.818 5.3224ZM28.2703 44.6626C25.58 44.6626 23.1525 46.3609 22.2302 48.8886L20.3362 54.0798L18.4423 48.8886C17.5204 46.3607 15.0931 44.6626 12.4023 44.6626H10.1814C6.45745 44.6626 3.42776 41.6329 3.42776 37.9088V15.504C3.42776 11.7801 6.45745 8.75016 10.1816 8.75016H26.8129C26.5498 9.74718 26.4248 10.8128 26.4248 11.7435V38.2812C26.4248 40.5011 27.0631 42.7268 28.3094 44.6496C28.3122 44.6539 28.3147 44.6582 28.3174 44.6626H28.2703Z" fill="url(#paint4_linear_673_19)"/>
</g>
<defs>
<linearGradient id="paint0_linear_673_19" x1="58.4998" y1="117" x2="58.4998" y2="65.3827" gradientUnits="userSpaceOnUse">
<stop stop-color="#007AFF"/>
<stop offset="0.5" stop-color="white"/>
<stop offset="0.99" stop-color="#FBB04C"/>
</linearGradient>
<linearGradient id="paint1_linear_673_19" x1="43.0001" y1="32.5666" x2="43.0001" y2="21.0056" gradientUnits="userSpaceOnUse">
<stop stop-color="#007AFF"/>
<stop offset="0.5" stop-color="white"/>
<stop offset="0.99" stop-color="#FBB04C"/>
</linearGradient>
<linearGradient id="paint2_linear_673_19" x1="58.4999" y1="32.5666" x2="58.4999" y2="21.0056" gradientUnits="userSpaceOnUse">
<stop stop-color="#007AFF"/>
<stop offset="0.5" stop-color="white"/>
<stop offset="0.99" stop-color="#FBB04C"/>
</linearGradient>
<linearGradient id="paint3_linear_673_19" x1="73.9996" y1="32.5666" x2="73.9996" y2="21.0056" gradientUnits="userSpaceOnUse">
<stop stop-color="#007AFF"/>
<stop offset="0.5" stop-color="white"/>
<stop offset="0.99" stop-color="#FBB04C"/>
</linearGradient>
<linearGradient id="paint4_linear_673_19" x1="58.5005" y1="61.7059" x2="58.5005" y2="0" gradientUnits="userSpaceOnUse">
<stop stop-color="#007AFF"/>
<stop offset="0.5" stop-color="white"/>
<stop offset="0.99" stop-color="#FBB04C"/>
</linearGradient>
<clipPath id="clip0_673_19">
<rect width="117" height="117" fill="white"/>
</clipPath>
</defs>
</svg>
