<svg width="117" height="117" viewBox="0 0 117 117" fill="none" xmlns="http://www.w3.org/2000/svg">
<path d="M36.9134 88.0142C39.7065 85.6506 41.4841 82.1269 41.4841 78.1951C41.4841 71.0924 35.6956 65.3139 28.5803 65.3139C21.4616 65.3139 15.6701 71.0924 15.6701 78.1951C15.6701 82.131 17.4521 85.6579 20.2516 88.0215C16.9955 89.3848 14.084 91.5353 11.8294 94.291C8.69397 98.1235 6.96753 102.966 6.96753 107.928V115.286C6.96753 116.233 7.73466 117 8.6814 117H24.9302C25.877 117 26.6441 116.233 26.6441 115.286C26.6441 114.339 25.877 113.572 24.9302 113.572H10.3953V107.928C10.3953 99.6214 16.1765 92.2965 24.2122 90.3101C25.5772 90.8009 27.0477 91.0701 28.5803 91.0701C30.1155 91.0701 31.5885 90.8 32.9553 90.3068C41.0015 92.2885 46.7912 99.6166 46.7912 107.928V113.572H32.8664C31.9196 113.572 31.1525 114.339 31.1525 115.286C31.1525 116.233 31.9196 117 32.8664 117H48.5051C49.4518 117 50.2189 116.233 50.2189 115.286V107.928C50.2189 102.966 48.4918 98.123 45.3559 94.291C43.097 91.5306 40.1779 89.3773 36.9134 88.0142ZM19.0978 78.1953C19.0978 72.9826 23.3516 68.7418 28.5803 68.7418C33.8053 68.7418 38.0564 72.9829 38.0564 78.1953C38.0564 83.4043 33.8053 87.6424 28.5803 87.6424C23.3516 87.6421 19.0978 83.4041 19.0978 78.1953Z" fill="url(#paint0_linear_673_35)"/>
<path d="M80.0442 61.4504C80.3691 61.7587 80.7933 61.9209 81.2242 61.9209C81.4523 61.9209 81.6824 61.8754 81.9004 61.7817C82.5298 61.5112 82.9377 60.8921 82.9377 60.207V52.4633H85.5882C86.5349 52.4633 87.3021 51.6962 87.3021 50.7495V39.0744C89.2207 38.541 90.8182 37.0559 91.3749 35.0196L91.5817 34.2844L98.6074 36.2266C99.519 36.4802 100.463 35.9446 100.715 35.0331L107.275 11.4027C107.396 10.9646 107.339 10.4962 107.115 10.1006C106.892 9.70506 106.52 9.41439 106.081 9.29282L80.7597 2.27099C80.3221 2.14965 79.8534 2.20723 79.4576 2.43095C79.062 2.6549 78.7714 3.02692 78.6502 3.46498L76.4812 11.2964C76.2289 12.2064 76.7607 13.1488 77.6697 13.404L80.0515 14.0725C80.6742 14.2454 81.1939 14.6538 81.5149 15.2228C81.8328 15.7861 81.9134 16.433 81.7425 17.0443C81.7402 17.0525 81.7379 17.0608 81.7359 17.069C81.5739 17.6832 81.1747 18.196 80.5993 18.5194C80.0335 18.8434 79.3897 18.9286 78.783 18.7577L76.3994 18.0904C75.9613 17.9684 75.4922 18.0244 75.0957 18.2479C74.6992 18.4714 74.4079 18.8434 74.2861 19.2819L72.1104 27.1134C71.9888 27.5517 72.0461 28.0201 72.2699 28.4159C72.4938 28.8117 72.8658 29.1024 73.3039 29.2237L74.6802 29.6051C74.3148 30.4774 73.4501 31.0923 72.4431 31.0923C71.7987 31.0923 71.1906 30.84 70.7308 30.3814C70.4066 30.058 70.0201 29.5005 70.0201 28.6801V26.2187C70.0201 25.272 69.253 24.5049 68.3063 24.5049H61.0383V19.8032H61.7924C63.355 19.8032 64.8228 19.1976 65.9251 18.098C67.0332 16.9931 67.6433 15.5244 67.6433 13.963C67.6433 10.7428 65.0188 8.12282 61.7924 8.12282H61.0383V1.71387C61.0383 0.767127 60.2712 0 59.3245 0H33.0811C32.1343 0 31.3672 0.767127 31.3672 1.71387V26.2187V34.2897C31.3672 35.2364 32.1343 36.0036 33.0811 36.0036C34.0278 36.0036 34.7949 35.2364 34.7949 34.2897V27.9326H42.0693C43.016 27.9326 43.7831 27.1655 43.7831 26.2187V23.7636C43.7831 22.4334 44.8702 21.3511 46.2063 21.3511C46.8644 21.3511 47.4565 21.5947 47.9186 22.0556C48.377 22.5127 48.6292 23.1192 48.6292 23.7636V26.2187C48.6292 27.1655 49.3964 27.9326 50.3431 27.9326H57.6111V32.6535H56.8569C55.2987 32.6535 53.8309 33.2614 52.724 34.3653C51.6162 35.4704 51.006 36.9366 51.006 38.4937C51.006 41.7139 53.6305 44.3339 56.8569 44.3339H57.6111V49.0354H47.3752C46.9362 49.0354 46.5139 49.2038 46.1956 49.5059L39.12 56.2185V50.7492C39.12 50.2938 38.9388 49.8571 38.6162 49.5353C38.2951 49.2152 37.8598 49.0354 37.4062 49.0354C37.4043 49.0354 37.4027 49.0354 37.4011 49.0354L34.7952 49.0431V42.1989C34.7952 41.2521 34.028 40.485 33.0813 40.485C32.1345 40.485 31.3674 41.2521 31.3674 42.1989V50.7623C31.3674 51.2177 31.5486 51.6544 31.8713 51.9761C32.1924 52.2963 32.6277 52.4761 33.0813 52.4761H33.0863L35.6923 52.4683V60.2068C35.6923 60.8919 36.1002 61.5109 36.7295 61.7815C36.9475 61.8752 37.1774 61.9207 37.4057 61.9207C37.8367 61.9207 38.2608 61.7582 38.5858 61.4502L48.0586 52.4631H59.3249H70.5715L80.0442 61.4504ZM77.129 21.8546L77.8564 22.0584C79.3532 22.4793 80.9322 22.2791 82.2907 21.501C83.6659 20.7284 84.6444 19.4695 85.0471 17.9554C85.4605 16.4648 85.2665 14.8967 84.5 13.5389C83.7283 12.1714 82.474 11.1879 80.9724 10.7715L80.24 10.5661L81.4957 6.03281L103.513 12.1383L97.8707 32.4673L90.8505 30.5267C89.9414 30.2744 88.9997 30.8064 88.744 31.7143L88.0719 34.1037C87.7228 35.3813 86.3793 36.1327 85.0914 35.7821C84.4596 35.6043 83.9319 35.1999 83.6431 34.6725C83.6392 34.6658 83.6358 34.6587 83.6317 34.6521C83.3154 34.0925 83.2324 33.4337 83.3974 32.7961L84.0622 30.4339C84.1856 29.9954 84.1294 29.5254 83.9054 29.1284C83.6817 28.7315 83.3092 28.4397 82.87 28.3181L75.8722 26.3794L77.129 21.8546ZM50.3388 19.6286C49.2364 18.529 47.7687 17.9234 46.2061 17.9234C42.9799 17.9234 40.3552 20.5433 40.3552 23.7636V24.5049H34.7947V3.42774H57.6108V9.83692C57.6108 10.7837 58.378 11.5508 59.3247 11.5508H61.7927C63.1288 11.5508 64.2158 12.6328 64.2158 13.9632C64.2158 14.6074 63.9636 15.2141 63.5052 15.6712C63.0431 16.1321 62.451 16.3757 61.7929 16.3757H59.3249C58.3782 16.3757 57.6111 17.1428 57.6111 18.0895V24.5051H52.057V23.7638C52.057 22.2021 51.4468 20.7337 50.3388 19.6286ZM59.3247 40.9064H56.8567C55.5206 40.9064 54.4335 39.8243 54.4335 38.4939C54.4335 37.6736 54.8202 37.1157 55.1442 36.7924C55.4696 36.4679 56.0306 36.0815 56.8565 36.0815H59.3245C60.2712 36.0815 61.0383 35.3144 61.0383 34.3676V27.9328H66.5924V28.6803C66.5924 30.2374 67.2025 31.7036 68.3106 32.8087C69.4173 33.9124 70.8851 34.5203 72.4433 34.5203C75.0244 34.5203 77.2186 32.8427 77.9937 30.5233L80.2962 31.1613L80.0933 31.8821C80.0908 31.8912 80.0885 31.9003 80.086 31.9095C79.6888 33.4156 79.8861 34.9837 80.6415 36.3269C81.3218 37.5639 82.484 38.5198 83.8741 38.9907V49.0354H81.2236C80.2768 49.0354 79.5097 49.8025 79.5097 50.7492V56.2185L72.4342 49.5059C72.1156 49.204 71.6935 49.0354 71.2546 49.0354H61.0383V42.62C61.0386 41.6735 60.2714 40.9064 59.3247 40.9064Z" fill="url(#paint1_linear_673_35)"/>
<path d="M105.171 94.291C102.911 91.5299 99.9923 89.3759 96.7282 88.013C99.5207 85.6495 101.298 82.1264 101.298 78.1953C101.298 71.0926 95.5091 65.3141 88.3938 65.3141C81.2785 65.3141 75.49 71.0926 75.49 78.1953C75.49 82.1306 77.2706 85.657 80.0678 88.0203C76.8106 89.3837 73.8979 91.5347 71.6429 94.291C68.5077 98.1235 66.781 102.966 66.781 107.928V115.286C66.781 116.233 67.5481 117 68.4949 117H84.7437C85.6904 117 86.4576 116.233 86.4576 115.286C86.4576 114.339 85.6904 113.572 84.7437 113.572H70.2087V107.928C70.2087 99.6209 75.9904 92.2958 84.0271 90.3096C85.3916 90.8007 86.8616 91.0699 88.3938 91.0699C89.9299 91.0699 91.4036 90.7995 92.7712 90.3059C100.816 92.2867 106.605 99.6157 106.605 107.928V113.572H92.6798C91.7331 113.572 90.966 114.339 90.966 115.286C90.966 116.233 91.7331 117 92.6798 117H108.319C109.265 117 110.032 116.233 110.032 115.286V107.928C110.033 102.966 108.306 98.1235 105.171 94.291ZM78.9179 78.1953C78.9179 72.9826 83.169 68.7418 88.394 68.7418C93.619 68.7418 97.8701 72.9828 97.8701 78.1953C97.8701 83.4043 93.619 87.6424 88.394 87.6424C83.169 87.6424 78.9179 83.4041 78.9179 78.1953Z" fill="url(#paint2_linear_673_35)"/>
<defs>
<linearGradient id="paint0_linear_673_35" x1="28.5932" y1="117" x2="28.5932" y2="65.3139" gradientUnits="userSpaceOnUse">
<stop stop-color="#007AFF"/>
<stop offset="0.5" stop-color="white"/>
<stop offset="0.99" stop-color="#FBB04C"/>
</linearGradient>
<linearGradient id="paint1_linear_673_35" x1="69.3522" y1="61.9209" x2="69.3522" y2="0" gradientUnits="userSpaceOnUse">
<stop stop-color="#007AFF"/>
<stop offset="0.5" stop-color="white"/>
<stop offset="0.99" stop-color="#FBB04C"/>
</linearGradient>
<linearGradient id="paint2_linear_673_35" x1="88.4067" y1="117" x2="88.4067" y2="65.3141" gradientUnits="userSpaceOnUse">
<stop stop-color="#007AFF"/>
<stop offset="0.5" stop-color="white"/>
<stop offset="0.99" stop-color="#FBB04C"/>
</linearGradient>
</defs>
</svg>
