<svg width="117" height="117" viewBox="0 0 117 117" fill="none" xmlns="http://www.w3.org/2000/svg">
<path fill-rule="evenodd" clip-rule="evenodd" d="M104.664 89.5295C104.664 92.3923 102.378 94.7309 99.5343 94.8182V82.5058C99.5343 76.685 94.8566 71.9393 89.0632 71.8251C90.5615 70.192 91.4788 68.0189 91.4788 65.636C91.4788 60.588 87.3723 56.482 82.325 56.482C77.2781 56.482 73.1716 60.588 73.1716 65.636C73.1716 68.0189 74.0886 70.1923 75.5872 71.8251C69.7938 71.9393 65.1154 76.685 65.1154 82.5058V94.8221H59.9862V40.8311H87.8296V53.411C87.8296 54.9699 89.9309 55.4673 90.6366 54.0898L97.4444 40.8314H99.3712C102.29 40.8314 104.664 43.2076 104.664 46.1254V89.5295ZM76.1429 65.636C76.1429 69.0445 78.9158 71.8172 82.3247 71.8172C85.7341 71.8172 88.507 69.0445 88.507 65.636C88.507 62.2276 85.7339 59.4538 82.3247 59.4538C78.9158 59.4535 76.1429 62.2276 76.1429 65.636ZM96.5632 94.8221V82.5058C96.5632 78.2507 93.1018 74.7885 88.8468 74.7885H75.8032C71.5481 74.7885 68.0868 78.2505 68.0868 82.5058V94.8221H96.5632ZM100.571 110.157H95.1678L87.0445 100.715C86.7621 100.389 86.3509 100.199 85.9183 100.199H31.0823C30.6491 100.199 30.238 100.389 29.9556 100.715L21.8327 110.157H16.429L25.0158 97.7923H91.9847L100.571 110.157ZM32.0246 79.7614C32.0246 78.2992 33.2138 77.1112 34.6753 77.1112C36.1369 77.1112 37.3256 78.2992 37.3256 79.7614C37.3256 81.2237 36.1371 82.4131 34.6753 82.4131C33.2138 82.4131 32.0246 81.2237 32.0246 79.7614ZM38.1933 85.3833C40.1112 85.3833 41.6715 86.9436 41.6715 88.8617V94.8224H27.6792V88.8615C27.6792 86.9436 29.2388 85.3831 31.1574 85.3831L38.1933 85.3833ZM17.6291 94.8221H24.7076V88.8615C24.7076 85.7703 26.8939 83.183 29.8006 82.5568C27.6614 78.8388 30.3491 74.1394 34.6751 74.1394C39.0013 74.1394 41.689 78.8388 39.5498 82.5568C42.4568 83.1832 44.6428 85.7703 44.6428 88.8615V94.8221H57.0144V69.3117H12.3361V89.5295C12.3361 92.4473 14.7107 94.8221 17.6291 94.8221ZM32.0246 51.282C32.0246 49.8198 33.2138 48.6317 34.6753 48.6317C36.1369 48.6317 37.3256 49.8198 37.3256 51.282C37.3256 52.7415 36.1371 53.9323 34.6753 53.9323C33.2138 53.9325 32.0246 52.7417 32.0246 51.282ZM38.1933 56.9041C40.1112 56.9041 41.6715 58.4644 41.6715 60.3811V66.3404H27.6792V60.3811C27.6792 58.4646 29.2388 56.9041 31.1574 56.9041H38.1933ZM12.3361 46.1251V66.3401H24.7076V60.3809C24.7076 57.2897 26.8939 54.7012 29.8006 54.0776C27.6628 50.3615 30.3452 45.6602 34.6751 45.6602C39.0055 45.6602 41.6876 50.3617 39.5498 54.0776C42.4568 54.7012 44.6428 57.2897 44.6428 60.3809V66.3401H57.0144V40.8311H17.6291C14.7107 40.8311 12.3361 43.2074 12.3361 46.1251ZM66.5223 30.5939H89.315C90.1356 30.5939 90.8007 31.2605 90.8007 32.0788V47.2661L98.946 31.4016C99.2001 30.9058 99.7105 30.5939 100.268 30.5939H102.152C102.737 30.5939 103.212 30.1181 103.212 29.5348V7.90196C103.212 7.31859 102.737 6.84287 102.152 6.84287H66.5223C65.938 6.84287 65.4629 7.31859 65.4629 7.90196V29.535C65.4629 30.1181 65.938 30.5939 66.5223 30.5939ZM99.3709 37.861H98.9696L101.175 33.5657H102.152C104.375 33.5657 106.183 31.7566 106.183 29.535V7.90196C106.183 5.68036 104.375 3.87131 102.152 3.87131H66.5223C64.2995 3.87131 62.4914 5.68036 62.4914 7.90196V29.535C62.4914 31.7566 64.2995 33.5657 66.5223 33.5657H87.8293V37.861H17.6291C13.0722 37.861 9.3645 41.5677 9.3645 46.1251V89.5295C9.3645 94.0857 13.072 97.7923 17.6291 97.7923H21.3979L12.3686 110.794C11.6872 111.775 12.3929 113.129 13.5887 113.129H22.5141C22.9473 113.129 23.3589 112.938 23.6408 112.612L31.7634 103.171H85.2369L93.359 112.612C93.641 112.938 94.0526 113.129 94.4857 113.129H103.411C104.607 113.129 105.313 111.776 104.631 110.794L95.6019 97.7925H99.3709C103.928 97.7925 107.635 94.0857 107.635 89.5298V46.1251C107.636 41.5675 103.928 37.861 99.3709 37.861ZM18.7137 10.0938C18.7137 9.80344 18.9594 9.5575 19.2503 9.5575H41.495C41.7859 9.5575 42.0316 9.80344 42.0316 10.0938V27.2835C42.0316 27.5736 41.7859 27.8196 41.495 27.8196H27.2655C26.4453 27.8196 25.7803 28.4836 25.7803 29.3048V31.3867L23.1354 28.3332C22.8537 28.0068 22.4435 27.8198 22.0124 27.8198H19.2503C18.9594 27.8198 18.7137 27.5739 18.7137 27.2837V10.0938ZM19.2503 30.7916C17.3158 30.7916 15.7422 29.2163 15.7422 27.2837V10.0941C15.7422 8.15865 17.3156 6.58617 19.2503 6.58617H41.495C43.429 6.58617 45.0029 8.15865 45.0029 10.0941V27.2837C45.0029 29.2163 43.429 30.7916 41.495 30.7916H28.7512V35.3705C28.7512 36.7448 27.0395 37.3801 26.1425 36.3449L21.3336 30.7916H19.2503Z" fill="url(#paint0_linear_673_47)"/>
<defs>
<linearGradient id="paint0_linear_673_47" x1="58.4999" y1="113.129" x2="58.4999" y2="3.87131" gradientUnits="userSpaceOnUse">
<stop stop-color="#007AFF"/>
<stop offset="0.5" stop-color="white"/>
<stop offset="0.99" stop-color="#FBB04C"/>
</linearGradient>
</defs>
</svg>
