<svg width="117" height="117" viewBox="0 0 117 117" fill="none" xmlns="http://www.w3.org/2000/svg">
<g clip-path="url(#clip0_673_81)">
<path d="M105.574 9.13884H48.9764C49.7666 6.72206 49.2049 3.95588 47.2874 2.03841C44.5715 -0.6775 40.1525 -0.677043 37.4366 2.03841L30.3361 9.13884H11.4258C5.12561 9.13884 0 14.2644 0 20.5646V82.7209C0 89.021 5.12561 94.1466 11.4258 94.1466H41.694L39.5641 102.373H37.0195C32.9874 102.373 29.707 105.654 29.707 109.686C29.707 113.718 32.9874 116.998 37.0195 116.998H79.9805C84.0126 116.998 87.293 113.718 87.293 109.686C87.293 105.654 84.0126 102.373 79.9805 102.373H77.4359L75.306 94.1466H105.574C111.874 94.1466 117 89.021 117 82.7209V58.1225C117 56.8604 115.977 55.8374 114.715 55.8374C113.453 55.8374 112.43 56.8604 112.43 58.1225V73.123H107.859V65.3535C107.859 64.0914 106.836 63.0683 105.574 63.0683H100.09V55.2988C100.09 54.0367 99.0666 53.0136 97.8047 53.0136H62.8982L75.6554 40.2565C76.9709 38.9409 77.6955 37.1916 77.6955 35.3311C77.6955 33.4705 76.9709 31.7214 75.6554 30.4056C73.686 28.4363 70.8211 27.8965 68.3595 28.7832L53.285 13.7087H105.574C109.354 13.7087 112.43 16.7841 112.43 20.5642V37.5559C112.43 38.818 113.453 39.8411 114.715 39.8411C115.977 39.8411 117 38.818 117 37.5559V20.5646C117 14.2642 111.874 9.13884 105.574 9.13884ZM51.818 44.3924L33.3011 25.8756L46.1444 13.0323L46.1492 13.0371C46.151 13.0389 46.1526 13.0405 46.1544 13.0423L64.661 31.5491L51.818 44.3924ZM54.3867 63.0685C53.1246 63.0685 52.1016 64.0916 52.1016 65.3537V73.1232H15.7214L44.9033 43.9411L49.0486 48.0864C48.7769 48.8375 48.6348 49.6382 48.6348 50.4606C48.6348 52.3212 49.3591 54.0705 50.6749 55.3861C52.033 56.7441 53.8163 57.4228 55.6004 57.4228C57.1102 57.4228 58.6195 56.9343 59.8711 55.961V63.0683H54.3867V63.0685ZM5.54128 72.1522C4.91514 71.5263 4.57031 70.6939 4.57031 69.8086C4.57031 68.9233 4.91514 68.0908 5.54128 67.4649L29.8542 43.152L34.5417 47.8396L10.2286 72.1525C9.60268 72.7784 8.7702 73.1232 7.88493 73.1232C6.99966 73.1232 6.16718 72.7784 5.54128 72.1522ZM41.6717 40.7094L37.7734 44.6077L33.0859 39.9201L36.9841 36.0219L41.6717 40.7094ZM40.6685 5.27008C41.1353 4.80322 41.7489 4.56967 42.3622 4.56967C42.9756 4.56967 43.5889 4.80322 44.056 5.27008C44.9895 6.20356 44.9899 7.72228 44.0571 8.65645L44.056 8.65759L28.9264 23.7872C28.4742 24.2396 27.8725 24.4887 27.2327 24.4887C26.5928 24.4887 25.9914 24.2396 25.5389 23.7869C24.605 22.8532 24.605 21.3336 25.5389 20.3996L40.6685 5.27008ZM11.4258 13.7092H25.7658L22.3072 17.1677C19.5916 19.8836 19.5916 24.3027 22.3072 27.0186C23.6653 28.3764 25.4491 29.0556 27.2327 29.0556C28.0359 29.0556 28.8389 28.9166 29.6033 28.6413L33.7522 32.7902L28.2384 38.3041L28.2381 38.3043L28.2379 38.3045L4.57031 61.9721V20.5646C4.57031 16.7845 7.64568 13.7092 11.4258 13.7092ZM82.7227 109.686C82.7227 111.198 81.4926 112.428 79.9805 112.428H37.0195C35.5074 112.428 34.2773 111.198 34.2773 109.686C34.2773 108.174 35.5074 106.944 37.0195 106.944H79.9805C81.4926 106.944 82.7227 108.174 82.7227 109.686ZM72.715 102.373H44.285L46.4152 94.1466H70.5851L72.715 102.373ZM112.43 82.7209C112.43 86.501 109.354 89.5763 105.574 89.5763H11.4258C7.64568 89.5763 4.57031 86.501 4.57031 82.7209V77.6935H112.43V82.7209ZM103.289 73.1232H56.6719V67.6388H103.289V73.1232ZM64.4414 57.5842H95.5195V63.0685H64.4414V57.5842ZM70.7299 32.9374C71.3433 32.9374 71.9566 33.1707 72.4235 33.6378C72.8759 34.09 73.125 34.6917 73.125 35.3315C73.125 35.9714 72.8759 36.5728 72.4235 37.0253L57.2941 52.1548C56.3602 53.0888 54.8406 53.0888 53.9066 52.1548C53.4541 51.7026 53.2051 51.1009 53.2051 50.4611C53.2051 49.8212 53.4541 49.2198 53.9066 48.7673L69.0371 33.6369C69.5039 33.1705 70.1168 32.9374 70.7299 32.9374Z" fill="url(#paint0_linear_673_81)"/>
<path d="M114.715 45.5551C114.114 45.5551 113.524 45.7973 113.099 46.2223C112.674 46.6496 112.43 47.2392 112.43 47.8402C112.43 48.4412 112.674 49.0285 113.099 49.4558C113.524 49.8809 114.114 50.1254 114.715 50.1254C115.316 50.1254 115.905 49.8809 116.33 49.4558C116.755 49.0308 117 48.4412 117 47.8402C117 47.2392 116.755 46.6496 116.33 46.2223C115.905 45.7973 115.316 45.5551 114.715 45.5551Z" fill="url(#paint1_linear_673_81)"/>
</g>
<defs>
<linearGradient id="paint0_linear_673_81" x1="58.5" y1="116.998" x2="58.5" y2="0.00164795" gradientUnits="userSpaceOnUse">
<stop stop-color="#007AFF"/>
<stop offset="0.5" stop-color="white"/>
<stop offset="0.99" stop-color="#FBB04C"/>
</linearGradient>
<linearGradient id="paint1_linear_673_81" x1="114.715" y1="50.1254" x2="114.715" y2="45.5551" gradientUnits="userSpaceOnUse">
<stop stop-color="#007AFF"/>
<stop offset="0.5" stop-color="white"/>
<stop offset="0.99" stop-color="#FBB04C"/>
</linearGradient>
<clipPath id="clip0_673_81">
<rect width="117" height="117" fill="white"/>
</clipPath>
</defs>
</svg>
