<svg width="117" height="117" viewBox="0 0 117 117" fill="none" xmlns="http://www.w3.org/2000/svg">
<path d="M114.917 52.0583L105.161 35.6C104.74 34.89 103.895 34.5499 103.101 34.7705C98.2015 36.1281 96.5038 35.4846 94.3542 34.6699C92.25 33.8724 89.8917 32.9807 85.0298 33.7129C84.1082 31.3759 81.8295 29.7171 79.1691 29.7171C76.5085 29.7171 74.2295 31.3759 73.3081 33.7129C68.4458 32.9805 66.0882 33.8724 63.984 34.6699C61.8341 35.4846 60.1363 36.1281 55.2373 34.7705C54.4419 34.5502 53.5975 34.8902 53.1766 35.6L43.4215 52.0583C43.2001 52.432 43.1189 52.8723 43.1925 53.3003C44.1617 58.9371 49.0222 63.0287 54.7492 63.0287C60.4765 63.0287 65.337 58.9373 66.3059 53.3003C66.3795 52.8723 66.2984 52.432 66.077 52.0583L58.4103 39.1234C61.6511 39.4628 63.4879 38.7674 65.2797 38.0885C67.151 37.3792 68.9288 36.7058 73.0177 37.3662C73.5069 39.5958 75.1797 41.3864 77.3423 42.0432L77.3471 64.0972C71.0735 64.7364 65.4316 68.6216 62.6492 74.361C62.3746 74.9275 62.4107 75.5957 62.745 76.129C63.0793 76.6626 63.6645 76.9866 64.2941 76.9866H94.0596C94.6892 76.9866 95.2744 76.6626 95.6087 76.129C95.943 75.5954 95.9791 74.9275 95.7045 74.361C92.9211 68.6209 87.278 64.7352 81.0034 64.097L80.9986 42.0425C83.1599 41.3851 84.8315 39.5949 85.3205 37.3664C89.4091 36.706 91.1872 37.3794 93.0587 38.0887C94.8505 38.7676 96.6864 39.463 99.9279 39.1237L92.2612 52.0586C92.0398 52.4322 91.9586 52.8725 92.0322 53.3005C93.0016 58.9373 97.8619 63.0289 103.589 63.0289C109.316 63.0289 114.177 58.9376 115.146 53.3005C115.219 52.8721 115.138 52.432 114.917 52.0583ZM54.749 59.3724C51.5777 59.3724 48.7937 57.55 47.479 54.8186H62.0192C60.7043 57.55 57.9203 59.3724 54.749 59.3724ZM61.2955 51.1623H48.2025L54.7488 40.1175L61.2955 51.1623ZM90.7896 73.3304H67.5632C70.3116 69.7735 74.5405 67.6586 79.1764 67.6586C83.8123 67.6586 88.041 69.7735 90.7896 73.3304ZM79.1689 38.658C77.7116 38.658 76.5263 37.4724 76.5263 36.0154C76.5263 34.5584 77.7118 33.3731 79.1689 33.3731C80.6259 33.3731 81.8112 34.5586 81.8112 36.0154C81.8114 37.4727 80.6259 38.658 79.1689 38.658ZM103.589 40.1173L110.135 51.1621H97.0422L103.589 40.1173ZM103.589 59.3724C100.417 59.3724 97.6334 57.55 96.3187 54.8186H110.859C109.544 57.55 106.76 59.3724 103.589 59.3724ZM76.3785 90.5769L61.2905 94.6815C61.0672 94.7423 60.8458 94.7919 60.6253 94.8307C60.6646 94.7677 60.703 94.7035 60.7407 94.6381C62.2427 92.0367 61.3702 88.6702 58.7547 86.9739C58.6856 86.9291 58.6137 86.8891 58.5392 86.8539C55.0175 85.1949 51.6979 82.8812 49.0306 81.022C48.093 80.3687 47.2075 79.7512 46.4411 79.2542C43.1829 77.1404 39.638 77.6918 36.6001 78.5099L25.9974 81.3648L25.6745 80.1171C25.4197 79.1319 24.7945 78.304 23.9145 77.786C23.0343 77.2677 22.0068 77.1231 21.0226 77.3776L16.8051 78.469C14.7675 78.9964 13.5387 81.0832 14.0659 83.1209L19.7349 105.028C20.1796 106.746 21.7333 107.889 23.4312 107.889C23.747 107.889 24.0676 107.85 24.3871 107.767L28.6041 106.676C30.642 106.149 31.8707 104.062 31.3435 102.024L30.9153 100.369L32.6168 99.9136L47.9068 108.741C49.6721 109.761 51.5537 110.276 53.4645 110.275C54.5198 110.275 55.584 110.118 56.6423 109.803L84.2348 101.565C87.0618 100.721 88.8472 97.1849 87.9804 94.1459C87.5627 92.6815 85.4907 88.0984 76.3785 90.5769ZM27.6875 103.137L23.4705 104.228C23.3875 104.249 23.295 104.194 23.274 104.112L17.6052 82.2052C17.5839 82.1237 17.639 82.0298 17.7208 82.0087L21.9381 80.9176C21.9509 80.9141 21.9632 80.9128 21.9758 80.9128C22.0039 80.9128 22.0318 80.9208 22.0589 80.9368C22.0985 80.9601 22.1238 80.9925 22.1344 81.0332L27.8031 102.94C27.8244 103.022 27.7693 103.115 27.6875 103.137ZM83.1884 98.0613L55.5961 106.299C53.5804 106.901 51.6085 106.657 49.7345 105.575L33.7886 96.3684C33.3689 96.126 32.8693 96.0606 32.4016 96.1858L29.9989 96.8296L26.9133 84.9047L37.5507 82.0405C40.7972 81.1667 42.7963 81.248 44.4514 82.3218C45.1669 82.7859 45.9886 83.3586 46.9402 84.0217C49.689 85.9378 53.1026 88.3169 56.8534 90.1011C57.7841 90.76 58.0961 91.9071 57.5748 92.81C57.3669 93.1701 56.7375 94.2558 54.874 93.5282C53.0914 92.6326 51.4234 91.6343 49.66 90.5774C48.8113 90.0687 47.9335 89.5427 47.0249 89.018C46.1506 88.513 45.0323 88.8128 44.5277 89.6871C44.0227 90.5616 44.3225 91.6795 45.1968 92.1843C46.0796 92.6939 46.9441 93.2122 47.7804 93.7133C49.6307 94.8223 53.3688 96.8636 53.3818 96.8695L54.9352 97.5688C57.3964 98.6691 59.7894 98.8789 62.2509 98.2096L77.3389 94.105C81.2477 93.0415 83.978 93.4416 84.4647 95.1481C84.8066 96.3501 84.036 97.8083 83.1884 98.0613ZM21.8585 84.2669C21.7715 85.0094 21.0992 85.5407 20.3567 85.4536C19.6143 85.3668 19.083 84.6942 19.1701 83.9518C19.2569 83.2093 19.9294 82.678 20.6719 82.7649C21.4141 82.8519 21.9456 83.5245 21.8585 84.2669ZM16.5588 58.1826C16.5588 59.9839 17.6367 61.5351 19.1799 62.2341V63.4247C19.1799 65.2524 20.2886 66.825 21.8681 67.5087V68.6671C21.8681 71.1204 23.864 73.1163 26.3173 73.1163H29.719C32.1721 73.1163 34.1682 71.1204 34.1682 68.6671V67.5087C35.7477 66.825 36.8562 65.2524 36.8562 63.4247V62.2344C38.3992 61.5353 39.4773 59.9839 39.4773 58.1826V55.6243C39.8717 49.0271 41.5068 46.2317 43.0883 43.5285C44.5081 41.1022 45.9763 38.5933 45.9763 33.9341C45.9763 24.0321 37.9204 15.9764 28.0184 15.9764C18.1166 15.9764 10.0607 24.0323 10.0607 33.9341C10.0607 38.5933 11.5287 41.1024 12.9485 43.5285C14.5298 46.231 16.1646 49.0262 16.5595 55.6209V58.1826H16.5588ZM23.4044 35.9729H21.4845C20.4257 35.9729 19.5645 35.1116 19.5645 34.0529C19.5645 32.9942 20.426 32.1329 21.4845 32.1329C22.5429 32.1329 23.4044 32.9942 23.4044 34.0529V35.9729ZM28.9752 53.7329H27.0607V39.6289H28.9752V53.7329ZM35.8206 57.3892V58.1826C35.8206 58.6124 35.4575 58.9755 35.0279 58.9755H21.008C20.5782 58.9755 20.2151 58.6124 20.2151 58.1826V57.3892H35.8206ZM32.4068 64.2177H23.6291C23.1992 64.2177 22.8359 63.8545 22.8359 63.4247V62.6318H33.1995V63.4247C33.1995 63.8545 32.8364 64.2177 32.4068 64.2177ZM29.7188 69.46H26.3171C25.8873 69.46 25.5242 69.0969 25.5242 68.6671V67.8739H30.5115V68.6671C30.5117 69.0969 30.1486 69.46 29.7188 69.46ZM13.7163 33.9341C13.7163 26.0482 20.1319 19.6327 28.0177 19.6327C35.9038 19.6327 42.3194 26.0482 42.3194 33.9341C42.3194 37.6022 41.2659 39.4027 39.9323 41.6819C38.4287 44.2516 36.5868 47.3991 35.9589 53.7329H32.6312V39.6289H34.5512C37.6259 39.6289 40.1274 37.1274 40.1274 34.0527C40.1274 30.978 37.6259 28.4765 34.5512 28.4765C31.4765 28.4765 28.975 30.978 28.975 34.0527V35.9727H27.0605V34.0527C27.0605 30.9778 24.5589 28.4765 21.4842 28.4765C18.4096 28.4765 15.908 30.978 15.908 34.0527C15.908 37.1274 18.4096 39.6289 21.4842 39.6289H23.4042V53.7329H20.0768C19.4488 47.3989 17.607 44.2513 16.1034 41.6819C14.77 39.4027 13.7163 37.6022 13.7163 33.9341ZM32.6314 35.9729V34.0529C32.6314 32.9942 33.4929 32.1329 34.5514 32.1329C35.6099 32.1329 36.4714 32.9942 36.4714 34.0529C36.4714 35.1116 35.6099 35.9729 34.5514 35.9729H32.6314ZM26.1896 12.3522V8.55264C26.1896 7.54306 27.0081 6.72452 28.0177 6.72452C29.0273 6.72452 29.8458 7.54306 29.8458 8.55264V12.3519C29.8458 13.3615 29.0273 14.1801 28.0177 14.1801C27.0081 14.1801 26.1896 13.3618 26.1896 12.3522ZM12.3697 13.2356C11.8649 12.3611 12.1647 11.2432 13.039 10.7384C13.9137 10.2331 15.0316 10.5334 15.5364 11.4075L17.4358 14.6977C17.9406 15.5722 17.6408 16.6901 16.7665 17.1949C16.4786 17.3612 16.1642 17.4401 15.8543 17.4401C15.2222 17.4401 14.608 17.1121 14.2691 16.5258L12.3697 13.2356ZM8.52991 25.4315C8.19148 26.0179 7.57677 26.3458 6.94493 26.3458C6.63483 26.3458 6.32062 26.2667 6.03269 26.1006L2.74253 24.2009C1.86823 23.6961 1.56842 22.578 2.07343 21.7037C2.578 20.8292 3.69612 20.5301 4.57065 21.0346L7.86082 22.9343C8.73535 23.4393 9.03493 24.5572 8.52991 25.4315ZM38.6 14.6979L40.4995 11.4075C41.0045 10.533 42.1219 10.2331 42.9969 10.7382C43.8712 11.243 44.171 12.3611 43.6662 13.2354L41.7668 16.5258C41.4281 17.1121 40.8134 17.4403 40.1816 17.4403C39.8715 17.4403 39.5575 17.3612 39.2694 17.1951C38.3951 16.6903 38.0952 15.5722 38.6 14.6979ZM47.506 25.4315C47.001 24.5572 47.3008 23.4391 48.1751 22.9343L51.4652 21.0346C52.34 20.5298 53.4579 20.8296 53.9625 21.7037C54.4675 22.578 54.1677 23.6961 53.2934 24.2009L50.0032 26.1006C49.7153 26.2667 49.4008 26.3458 49.091 26.3458C48.4589 26.346 47.8444 26.0181 47.506 25.4315Z" fill="url(#paint0_linear_673_78)"/>
<defs>
<linearGradient id="paint0_linear_673_78" x1="58.5002" y1="110.275" x2="58.5002" y2="6.72452" gradientUnits="userSpaceOnUse">
<stop stop-color="#007AFF"/>
<stop offset="0.5" stop-color="white"/>
<stop offset="0.99" stop-color="#FBB04C"/>
</linearGradient>
</defs>
</svg>
